<ttFont>
<head>
    <!-- Most of this table will be recalculated by the compiler -->
    <tableVersion value="1.0"/>
    <fontRevision value="2.0"/>
    <checkSumAdjustment value="0xa8873f9d"/>
    <magicNumber value="0x5f0f3cf5"/>
    <flags value="00000000 00000011"/>
    <unitsPerEm value="2048"/>
    <created value="Mon Apr 15 23:05:27 2019"/>
    <modified value="Wed Sep 11 14:52:15 2019"/>
    <xMin value="-1860"/>
    <yMin value="-682"/>
    <xMax value="2904"/>
    <yMax value="2034"/>
    <macStyle value="00000000 00000000"/>
    <lowestRecPPEM value="6"/>
    <fontDirectionHint value="2"/>
    <indexToLocFormat value="1"/>
    <glyphDataFormat value="0"/>
  </head>
    <TTGlyph name=".notdef" xMin="100" yMin="0" xMax="1300" yMax="1800">
      <contour>
        <pt x="100" y="0" on="1"/>
        <pt x="100" y="1800" on="1"/>
        <pt x="1300" y="1800" on="1"/>
        <pt x="1300" y="0" on="1"/>
      </contour>
      <contour>
        <pt x="150" y="1750" on="1"/>
        <pt x="150" y="50" on="1"/>
        <pt x="1250" y="50" on="1"/>
        <pt x="1250" y="1750" on="1"/>
      </contour>
    </TTGlyph>
    <TTGlyph name="A" xMin="10" yMin="0" xMax="1370" yMax="1407">
      <contour>
        <pt x="1370" y="0" on="1"/>
        <pt x="883" y="0" on="1"/>
        <pt x="883" y="88" on="1"/>
        <pt x="1001" y="98" on="1"/>
        <pt x="1009" y="98" on="0"/>
        <pt x="1023" y="119" on="0"/>
        <pt x="1023" y="128" on="1"/>
        <pt x="1023" y="132" on="0"/>
        <pt x="1022" y="133" on="1"/>
        <pt x="881" y="508" on="1"/>
        <pt x="408" y="508" on="1"/>
        <pt x="272" y="139" on="1"/>
        <pt x="271" y="137" on="0"/>
        <pt x="271" y="133" on="1"/>
        <pt x="271" y="121" on="0"/>
        <pt x="292" y="98" on="0"/>
        <pt x="301" y="98" on="1"/>
        <pt x="422" y="88" on="1"/>
        <pt x="422" y="0" on="1"/>
        <pt x="10" y="0" on="1"/>
        <pt x="10" y="88" on="1"/>
        <pt x="129" y="113" on="1"/>
        <pt x="606" y="1407" on="1"/>
        <pt x="760" y="1407" on="1"/>
        <pt x="1235" y="143" on="1"/>
        <pt x="1243" y="122" on="0"/>
        <pt x="1255" y="108" on="0"/>
        <pt x="1278" y="104" on="1"/>
        <pt x="1370" y="88" on="1"/>
      </contour>
      <contour>
        <pt x="844" y="606" on="1"/>
        <pt x="643" y="1143" on="1"/>
        <pt x="444" y="606" on="1"/>
      </contour>
    </TTGlyph>
    <TTGlyph name="AE" xMin="10" yMin="0" xMax="1845" yMax="1374">
      <contour>
        <pt x="1845" y="0" on="1"/>
        <pt x="831" y="0" on="1"/>
        <pt x="831" y="88" on="1"/>
        <pt x="932" y="96" on="1"/>
        <pt x="954" y="98" on="0"/>
        <pt x="985" y="128" on="0"/>
        <pt x="985" y="141" on="1"/>
        <pt x="985" y="512" on="1"/>
        <pt x="512" y="512" on="1"/>
        <pt x="283" y="141" on="1"/>
        <pt x="276" y="131" on="0"/>
        <pt x="276" y="121" on="1"/>
        <pt x="276" y="100" on="0"/>
        <pt x="297" y="98" on="1"/>
        <pt x="414" y="88" on="1"/>
        <pt x="414" y="0" on="1"/>
        <pt x="10" y="0" on="1"/>
        <pt x="10" y="88" on="1"/>
        <pt x="119" y="104" on="1"/>
        <pt x="815" y="1235" on="1"/>
        <pt x="818" y="1241" on="0"/>
        <pt x="818" y="1247" on="1"/>
        <pt x="818" y="1259" on="0"/>
        <pt x="797" y="1277" on="0"/>
        <pt x="786" y="1278" on="1"/>
        <pt x="686" y="1288" on="1"/>
        <pt x="686" y="1374" on="1"/>
        <pt x="1772" y="1374" on="1"/>
        <pt x="1772" y="1069" on="1"/>
        <pt x="1653" y="1069" on="1"/>
        <pt x="1624" y="1237" on="1"/>
        <pt x="1621" y="1252" on="0"/>
        <pt x="1603" y="1276" on="0"/>
        <pt x="1589" y="1276" on="1"/>
        <pt x="1192" y="1276" on="1"/>
        <pt x="1192" y="764" on="1"/>
        <pt x="1450" y="764" on="1"/>
        <pt x="1464" y="764" on="0"/>
        <pt x="1486" y="790" on="0"/>
        <pt x="1487" y="801" on="1"/>
        <pt x="1505" y="942" on="1"/>
        <pt x="1606" y="942" on="1"/>
        <pt x="1606" y="485" on="1"/>
        <pt x="1505" y="485" on="1"/>
        <pt x="1487" y="629" on="1"/>
        <pt x="1486" y="640" on="0"/>
        <pt x="1462" y="664" on="0"/>
        <pt x="1450" y="664" on="1"/>
        <pt x="1192" y="664" on="1"/>
        <pt x="1192" y="100" on="1"/>
        <pt x="1661" y="100" on="1"/>
        <pt x="1673" y="100" on="0"/>
        <pt x="1697" y="129" on="0"/>
        <pt x="1698" y="139" on="1"/>
        <pt x="1729" y="342" on="1"/>
        <pt x="1845" y="342" on="1"/>
      </contour>
      <contour>
        <pt x="985" y="612" on="1"/>
        <pt x="985" y="1280" on="1"/>
        <pt x="569" y="612" on="1"/>
      </contour>
    </TTGlyph>
    <TTGlyph name="Aacute" xMin="10" yMin="0" xMax="1370" yMax="1896">
      <contour>
        <pt x="1028" y="1804" on="1"/>
        <pt x="1028" y="1753" on="0"/>
        <pt x="981" y="1722" on="1"/>
        <pt x="672" y="1524" on="1"/>
        <pt x="555" y="1524" on="1"/>
        <pt x="827" y="1841" on="1"/>
        <pt x="849" y="1867" on="0"/>
        <pt x="895" y="1896" on="0"/>
        <pt x="936" y="1896" on="1"/>
        <pt x="990" y="1896" on="0"/>
        <pt x="1028" y="1835" on="0"/>
      </contour>
      <contour>
        <pt x="1370" y="0" on="1"/>
        <pt x="883" y="0" on="1"/>
        <pt x="883" y="88" on="1"/>
        <pt x="1001" y="98" on="1"/>
        <pt x="1009" y="98" on="0"/>
        <pt x="1023" y="119" on="0"/>
        <pt x="1023" y="128" on="1"/>
        <pt x="1023" y="132" on="0"/>
        <pt x="1022" y="133" on="1"/>
        <pt x="881" y="508" on="1"/>
        <pt x="408" y="508" on="1"/>
        <pt x="272" y="139" on="1"/>
        <pt x="271" y="137" on="0"/>
        <pt x="271" y="133" on="1"/>
        <pt x="271" y="121" on="0"/>
        <pt x="292" y="98" on="0"/>
        <pt x="301" y="98" on="1"/>
        <pt x="422" y="88" on="1"/>
        <pt x="422" y="0" on="1"/>
        <pt x="10" y="0" on="1"/>
        <pt x="10" y="88" on="1"/>
        <pt x="129" y="113" on="1"/>
        <pt x="606" y="1407" on="1"/>
        <pt x="760" y="1407" on="1"/>
        <pt x="1235" y="143" on="1"/>
        <pt x="1243" y="122" on="0"/>
        <pt x="1255" y="108" on="0"/>
        <pt x="1278" y="104" on="1"/>
        <pt x="1370" y="88" on="1"/>
      </contour>
      <contour>
        <pt x="844" y="606" on="1"/>
        <pt x="643" y="1143" on="1"/>
        <pt x="444" y="606" on="1"/>
      </contour>
    </TTGlyph>
    <TTGlyph name="Acircumflex" xMin="10" yMin="0" xMax="1370" yMax="1872">
      <contour>
        <pt x="993" y="1524" on="1"/>
        <pt x="870" y="1524" on="1"/>
        <pt x="659" y="1729" on="1"/>
        <pt x="446" y="1524" on="1"/>
        <pt x="324" y="1524" on="1"/>
        <pt x="582" y="1872" on="1"/>
        <pt x="735" y="1872" on="1"/>
      </contour>
      <contour>
        <pt x="1370" y="0" on="1"/>
        <pt x="883" y="0" on="1"/>
        <pt x="883" y="88" on="1"/>
        <pt x="1001" y="98" on="1"/>
        <pt x="1009" y="98" on="0"/>
        <pt x="1023" y="119" on="0"/>
        <pt x="1023" y="128" on="1"/>
        <pt x="1023" y="132" on="0"/>
        <pt x="1022" y="133" on="1"/>
        <pt x="881" y="508" on="1"/>
        <pt x="408" y="508" on="1"/>
        <pt x="272" y="139" on="1"/>
        <pt x="271" y="137" on="0"/>
        <pt x="271" y="133" on="1"/>
        <pt x="271" y="121" on="0"/>
        <pt x="292" y="98" on="0"/>
        <pt x="301" y="98" on="1"/>
        <pt x="422" y="88" on="1"/>
        <pt x="422" y="0" on="1"/>
        <pt x="10" y="0" on="1"/>
        <pt x="10" y="88" on="1"/>
        <pt x="129" y="113" on="1"/>
        <pt x="606" y="1407" on="1"/>
        <pt x="760" y="1407" on="1"/>
        <pt x="1235" y="143" on="1"/>
        <pt x="1243" y="122" on="0"/>
        <pt x="1255" y="108" on="0"/>
        <pt x="1278" y="104" on="1"/>
        <pt x="1370" y="88" on="1"/>
      </contour>
      <contour>
        <pt x="844" y="606" on="1"/>
        <pt x="643" y="1143" on="1"/>
        <pt x="444" y="606" on="1"/>
      </contour>
    </TTGlyph>
    <TTGlyph name="Adieresis" xMin="10" yMin="0" xMax="1370" yMax="1815">
      <contour>
        <pt x="993" y="1702" on="1"/>
        <pt x="993" y="1656" on="0"/>
        <pt x="927" y="1587" on="0"/>
        <pt x="881" y="1587" on="1"/>
        <pt x="835" y="1587" on="0"/>
        <pt x="768" y="1656" on="0"/>
        <pt x="768" y="1702" on="1"/>
        <pt x="768" y="1745" on="0"/>
        <pt x="838" y="1815" on="0"/>
        <pt x="881" y="1815" on="1"/>
        <pt x="927" y="1815" on="0"/>
        <pt x="993" y="1748" on="0"/>
      </contour>
      <contour>
        <pt x="569" y="1702" on="1"/>
        <pt x="569" y="1656" on="0"/>
        <pt x="503" y="1587" on="0"/>
        <pt x="457" y="1587" on="1"/>
        <pt x="412" y="1587" on="0"/>
        <pt x="344" y="1655" on="0"/>
        <pt x="344" y="1700" on="1"/>
        <pt x="344" y="1744" on="0"/>
        <pt x="412" y="1815" on="0"/>
        <pt x="457" y="1815" on="1"/>
        <pt x="503" y="1815" on="0"/>
        <pt x="569" y="1748" on="0"/>
      </contour>
      <contour>
        <pt x="1370" y="0" on="1"/>
        <pt x="883" y="0" on="1"/>
        <pt x="883" y="88" on="1"/>
        <pt x="1001" y="98" on="1"/>
        <pt x="1009" y="98" on="0"/>
        <pt x="1023" y="119" on="0"/>
        <pt x="1023" y="128" on="1"/>
        <pt x="1023" y="132" on="0"/>
        <pt x="1022" y="133" on="1"/>
        <pt x="881" y="508" on="1"/>
        <pt x="408" y="508" on="1"/>
        <pt x="272" y="139" on="1"/>
        <pt x="271" y="137" on="0"/>
        <pt x="271" y="133" on="1"/>
        <pt x="271" y="121" on="0"/>
        <pt x="292" y="98" on="0"/>
        <pt x="301" y="98" on="1"/>
        <pt x="422" y="88" on="1"/>
        <pt x="422" y="0" on="1"/>
        <pt x="10" y="0" on="1"/>
        <pt x="10" y="88" on="1"/>
        <pt x="129" y="113" on="1"/>
        <pt x="606" y="1407" on="1"/>
        <pt x="760" y="1407" on="1"/>
        <pt x="1235" y="143" on="1"/>
        <pt x="1243" y="122" on="0"/>
        <pt x="1255" y="108" on="0"/>
        <pt x="1278" y="104" on="1"/>
        <pt x="1370" y="88" on="1"/>
      </contour>
      <contour>
        <pt x="844" y="606" on="1"/>
        <pt x="643" y="1143" on="1"/>
        <pt x="444" y="606" on="1"/>
      </contour>
    </TTGlyph>
    <TTGlyph name="Agrave" xMin="10" yMin="0" xMax="1370" yMax="1896">
      <contour>
        <pt x="778" y="1524" on="1"/>
        <pt x="664" y="1524" on="1"/>
        <pt x="352" y="1722" on="1"/>
        <pt x="331" y="1736" on="0"/>
        <pt x="303" y="1776" on="0"/>
        <pt x="303" y="1804" on="1"/>
        <pt x="303" y="1835" on="0"/>
        <pt x="346" y="1896" on="0"/>
        <pt x="399" y="1896" on="1"/>
        <pt x="441" y="1896" on="0"/>
        <pt x="484" y="1867" on="0"/>
        <pt x="506" y="1841" on="1"/>
      </contour>
      <contour>
        <pt x="1370" y="0" on="1"/>
        <pt x="883" y="0" on="1"/>
        <pt x="883" y="88" on="1"/>
        <pt x="1001" y="98" on="1"/>
        <pt x="1009" y="98" on="0"/>
        <pt x="1023" y="119" on="0"/>
        <pt x="1023" y="128" on="1"/>
        <pt x="1023" y="132" on="0"/>
        <pt x="1022" y="133" on="1"/>
        <pt x="881" y="508" on="1"/>
        <pt x="408" y="508" on="1"/>
        <pt x="272" y="139" on="1"/>
        <pt x="271" y="137" on="0"/>
        <pt x="271" y="133" on="1"/>
        <pt x="271" y="121" on="0"/>
        <pt x="292" y="98" on="0"/>
        <pt x="301" y="98" on="1"/>
        <pt x="422" y="88" on="1"/>
        <pt x="422" y="0" on="1"/>
        <pt x="10" y="0" on="1"/>
        <pt x="10" y="88" on="1"/>
        <pt x="129" y="113" on="1"/>
        <pt x="606" y="1407" on="1"/>
        <pt x="760" y="1407" on="1"/>
        <pt x="1235" y="143" on="1"/>
        <pt x="1243" y="122" on="0"/>
        <pt x="1255" y="108" on="0"/>
        <pt x="1278" y="104" on="1"/>
        <pt x="1370" y="88" on="1"/>
      </contour>
      <contour>
        <pt x="844" y="606" on="1"/>
        <pt x="643" y="1143" on="1"/>
        <pt x="444" y="606" on="1"/>
      </contour>
    </TTGlyph>
    <TTGlyph name="Aring" xMin="10" yMin="0" xMax="1370" yMax="2034">
      <contour>
        <pt x="926" y="1780" on="1"/>
        <pt x="926" y="1709" on="0"/>
        <pt x="857" y="1593" on="0"/>
        <pt x="741" y="1524" on="0"/>
        <pt x="670" y="1524" on="1"/>
        <pt x="599" y="1524" on="0"/>
        <pt x="484" y="1593" on="0"/>
        <pt x="416" y="1709" on="0"/>
        <pt x="416" y="1780" on="1"/>
        <pt x="416" y="1851" on="0"/>
        <pt x="484" y="1966" on="0"/>
        <pt x="599" y="2034" on="0"/>
        <pt x="670" y="2034" on="1"/>
        <pt x="741" y="2034" on="0"/>
        <pt x="857" y="1966" on="0"/>
        <pt x="926" y="1851" on="0"/>
      </contour>
      <contour>
        <pt x="1370" y="0" on="1"/>
        <pt x="883" y="0" on="1"/>
        <pt x="883" y="88" on="1"/>
        <pt x="1001" y="98" on="1"/>
        <pt x="1009" y="98" on="0"/>
        <pt x="1023" y="119" on="0"/>
        <pt x="1023" y="128" on="1"/>
        <pt x="1023" y="132" on="0"/>
        <pt x="1022" y="133" on="1"/>
        <pt x="881" y="508" on="1"/>
        <pt x="408" y="508" on="1"/>
        <pt x="272" y="139" on="1"/>
        <pt x="271" y="137" on="0"/>
        <pt x="271" y="133" on="1"/>
        <pt x="271" y="121" on="0"/>
        <pt x="292" y="98" on="0"/>
        <pt x="301" y="98" on="1"/>
        <pt x="422" y="88" on="1"/>
        <pt x="422" y="0" on="1"/>
        <pt x="10" y="0" on="1"/>
        <pt x="10" y="88" on="1"/>
        <pt x="129" y="113" on="1"/>
        <pt x="606" y="1407" on="1"/>
        <pt x="760" y="1407" on="1"/>
        <pt x="1235" y="143" on="1"/>
        <pt x="1243" y="122" on="0"/>
        <pt x="1255" y="108" on="0"/>
        <pt x="1278" y="104" on="1"/>
        <pt x="1370" y="88" on="1"/>
      </contour>
      <contour>
        <pt x="803" y="1780" on="1"/>
        <pt x="803" y="1835" on="0"/>
        <pt x="725" y="1913" on="0"/>
        <pt x="670" y="1913" on="1"/>
        <pt x="615" y="1913" on="0"/>
        <pt x="537" y="1835" on="0"/>
        <pt x="537" y="1780" on="1"/>
        <pt x="537" y="1725" on="0"/>
        <pt x="615" y="1647" on="0"/>
        <pt x="670" y="1647" on="1"/>
        <pt x="725" y="1647" on="0"/>
        <pt x="803" y="1725" on="0"/>
      </contour>
      <contour>
        <pt x="844" y="606" on="1"/>
        <pt x="643" y="1143" on="1"/>
        <pt x="444" y="606" on="1"/>
      </contour>
    </TTGlyph>
    <TTGlyph name="Atilde" xMin="10" yMin="0" xMax="1370" yMax="1812">
      <contour>
        <pt x="1028" y="1812" on="1"/>
        <pt x="1005" y="1722" on="0"/>
        <pt x="891" y="1587" on="0"/>
        <pt x="791" y="1587" on="1"/>
        <pt x="737" y="1587" on="0"/>
        <pt x="660" y="1636" on="0"/>
        <pt x="575" y="1686" on="0"/>
        <pt x="508" y="1686" on="1"/>
        <pt x="467" y="1686" on="0"/>
        <pt x="404" y="1624" on="0"/>
        <pt x="399" y="1587" on="1"/>
        <pt x="317" y="1587" on="1"/>
        <pt x="340" y="1678" on="0"/>
        <pt x="455" y="1812" on="0"/>
        <pt x="555" y="1812" on="1"/>
        <pt x="610" y="1812" on="0"/>
        <pt x="688" y="1763" on="0"/>
        <pt x="774" y="1714" on="0"/>
        <pt x="840" y="1714" on="1"/>
        <pt x="881" y="1714" on="0"/>
        <pt x="942" y="1775" on="0"/>
        <pt x="946" y="1812" on="1"/>
      </contour>
      <contour>
        <pt x="1370" y="0" on="1"/>
        <pt x="883" y="0" on="1"/>
        <pt x="883" y="88" on="1"/>
        <pt x="1001" y="98" on="1"/>
        <pt x="1009" y="98" on="0"/>
        <pt x="1023" y="119" on="0"/>
        <pt x="1023" y="128" on="1"/>
        <pt x="1023" y="132" on="0"/>
        <pt x="1022" y="133" on="1"/>
        <pt x="881" y="508" on="1"/>
        <pt x="408" y="508" on="1"/>
        <pt x="272" y="139" on="1"/>
        <pt x="271" y="137" on="0"/>
        <pt x="271" y="133" on="1"/>
        <pt x="271" y="121" on="0"/>
        <pt x="292" y="98" on="0"/>
        <pt x="301" y="98" on="1"/>
        <pt x="422" y="88" on="1"/>
        <pt x="422" y="0" on="1"/>
        <pt x="10" y="0" on="1"/>
        <pt x="10" y="88" on="1"/>
        <pt x="129" y="113" on="1"/>
        <pt x="606" y="1407" on="1"/>
        <pt x="760" y="1407" on="1"/>
        <pt x="1235" y="143" on="1"/>
        <pt x="1243" y="122" on="0"/>
        <pt x="1255" y="108" on="0"/>
        <pt x="1278" y="104" on="1"/>
        <pt x="1370" y="88" on="1"/>
      </contour>
      <contour>
        <pt x="844" y="606" on="1"/>
        <pt x="643" y="1143" on="1"/>
        <pt x="444" y="606" on="1"/>
      </contour>
    </TTGlyph>
    <TTGlyph name="B" xMin="66" yMin="0" xMax="1159" yMax="1374">
      <contour>
        <pt x="1159" y="406" on="1"/>
        <pt x="1159" y="282" on="0"/>
        <pt x="1059" y="123" on="0"/>
        <pt x="900" y="34" on="0"/>
        <pt x="720" y="0" on="0"/>
        <pt x="639" y="0" on="1"/>
        <pt x="66" y="0" on="1"/>
        <pt x="66" y="88" on="1"/>
        <pt x="174" y="96" on="1"/>
        <pt x="196" y="98" on="0"/>
        <pt x="217" y="126" on="0"/>
        <pt x="217" y="141" on="1"/>
        <pt x="217" y="1233" on="1"/>
        <pt x="217" y="1248" on="0"/>
        <pt x="196" y="1277" on="0"/>
        <pt x="174" y="1278" on="1"/>
        <pt x="66" y="1286" on="1"/>
        <pt x="66" y="1374" on="1"/>
        <pt x="614" y="1374" on="1"/>
        <pt x="859" y="1374" on="0"/>
        <pt x="1075" y="1198" on="0"/>
        <pt x="1075" y="1044" on="1"/>
        <pt x="1075" y="942" on="0"/>
        <pt x="978" y="814" on="0"/>
        <pt x="841" y="745" on="0"/>
        <pt x="780" y="729" on="1"/>
        <pt x="872" y="729" on="0"/>
        <pt x="1046" y="668" on="0"/>
        <pt x="1159" y="527" on="0"/>
      </contour>
      <contour>
        <pt x="854" y="1030" on="1"/>
        <pt x="854" y="1150" on="0"/>
        <pt x="697" y="1280" on="0"/>
        <pt x="539" y="1280" on="1"/>
        <pt x="507" y="1280" on="0"/>
        <pt x="433" y="1274" on="0"/>
        <pt x="422" y="1274" on="1"/>
        <pt x="422" y="756" on="1"/>
        <pt x="422" y="756" on="0"/>
        <pt x="479" y="754" on="0"/>
        <pt x="496" y="754" on="1"/>
        <pt x="696" y="754" on="0"/>
        <pt x="854" y="898" on="0"/>
      </contour>
      <contour>
        <pt x="936" y="389" on="1"/>
        <pt x="936" y="529" on="0"/>
        <pt x="769" y="659" on="0"/>
        <pt x="606" y="659" on="1"/>
        <pt x="573" y="659" on="0"/>
        <pt x="491" y="653" on="0"/>
        <pt x="428" y="647" on="0"/>
        <pt x="422" y="647" on="1"/>
        <pt x="422" y="106" on="1"/>
        <pt x="422" y="106" on="0"/>
        <pt x="469" y="103" on="0"/>
        <pt x="530" y="100" on="0"/>
        <pt x="549" y="100" on="1"/>
        <pt x="764" y="100" on="0"/>
        <pt x="936" y="244" on="0"/>
      </contour>
    </TTGlyph>
    <TTGlyph name="C" xMin="80" yMin="-33" xMax="1204" yMax="1407">
      <contour>
        <pt x="1204" y="379" on="1"/>
        <pt x="1204" y="47" on="1"/>
        <pt x="1199" y="45" on="0"/>
        <pt x="1082" y="5" on="0"/>
        <pt x="900" y="-33" on="0"/>
        <pt x="795" y="-33" on="1"/>
        <pt x="623" y="-33" on="0"/>
        <pt x="357" y="86" on="0"/>
        <pt x="174" y="290" on="0"/>
        <pt x="80" y="549" on="0"/>
        <pt x="80" y="690" on="1"/>
        <pt x="80" y="902" on="0"/>
        <pt x="260" y="1225" on="0"/>
        <pt x="583" y="1407" on="0"/>
        <pt x="797" y="1407" on="1"/>
        <pt x="897" y="1407" on="0"/>
        <pt x="1080" y="1365" on="0"/>
        <pt x="1204" y="1327" on="1"/>
        <pt x="1204" y="1006" on="1"/>
        <pt x="1081" y="1006" on="1"/>
        <pt x="1051" y="1192" on="1"/>
        <pt x="1047" y="1209" on="0"/>
        <pt x="1025" y="1235" on="0"/>
        <pt x="1016" y="1239" on="1"/>
        <pt x="1008" y="1243" on="1"/>
        <pt x="982" y="1255" on="0"/>
        <pt x="878" y="1292" on="0"/>
        <pt x="807" y="1292" on="1"/>
        <pt x="668" y="1292" on="0"/>
        <pt x="445" y="1155" on="0"/>
        <pt x="315" y="887" on="0"/>
        <pt x="315" y="690" on="1"/>
        <pt x="315" y="404" on="0"/>
        <pt x="591" y="80" on="0"/>
        <pt x="834" y="80" on="1"/>
        <pt x="906" y="80" on="0"/>
        <pt x="996" y="114" on="0"/>
        <pt x="999" y="115" on="1"/>
        <pt x="1031" y="127" on="0"/>
        <pt x="1038" y="156" on="1"/>
        <pt x="1085" y="379" on="1"/>
      </contour>
    </TTGlyph>
    <TTGlyph name="Ccedilla" xMin="80" yMin="-461" xMax="1204" yMax="1407">
      <contour>
        <pt x="1204" y="379" on="1"/>
        <pt x="1204" y="47" on="1"/>
        <pt x="1199" y="45" on="0"/>
        <pt x="1088" y="6" on="0"/>
        <pt x="913" y="-32" on="0"/>
        <pt x="811" y="-33" on="1"/>
        <pt x="811" y="-129" on="1"/>
        <pt x="822" y="-127" on="0"/>
        <pt x="842" y="-121" on="0"/>
        <pt x="858" y="-121" on="1"/>
        <pt x="920" y="-121" on="0"/>
        <pt x="1008" y="-188" on="0"/>
        <pt x="1008" y="-266" on="1"/>
        <pt x="1008" y="-361" on="0"/>
        <pt x="871" y="-461" on="0"/>
        <pt x="768" y="-461" on="1"/>
        <pt x="714" y="-461" on="0"/>
        <pt x="616" y="-440" on="0"/>
        <pt x="616" y="-440" on="1"/>
        <pt x="616" y="-360" on="1"/>
        <pt x="616" y="-360" on="0"/>
        <pt x="703" y="-377" on="0"/>
        <pt x="741" y="-377" on="1"/>
        <pt x="791" y="-377" on="0"/>
        <pt x="872" y="-340" on="0"/>
        <pt x="872" y="-293" on="1"/>
        <pt x="872" y="-256" on="0"/>
        <pt x="816" y="-217" on="0"/>
        <pt x="776" y="-217" on="1"/>
        <pt x="761" y="-217" on="0"/>
        <pt x="729" y="-229" on="0"/>
        <pt x="729" y="-229" on="1"/>
        <pt x="729" y="-31" on="1"/>
        <pt x="572" y="-19" on="0"/>
        <pt x="330" y="107" on="0"/>
        <pt x="165" y="307" on="0"/>
        <pt x="80" y="556" on="0"/>
        <pt x="80" y="690" on="1"/>
        <pt x="80" y="902" on="0"/>
        <pt x="260" y="1225" on="0"/>
        <pt x="583" y="1407" on="0"/>
        <pt x="797" y="1407" on="1"/>
        <pt x="897" y="1407" on="0"/>
        <pt x="1080" y="1365" on="0"/>
        <pt x="1204" y="1327" on="1"/>
        <pt x="1204" y="1006" on="1"/>
        <pt x="1081" y="1006" on="1"/>
        <pt x="1051" y="1192" on="1"/>
        <pt x="1050" y="1206" on="0"/>
        <pt x="1025" y="1235" on="0"/>
        <pt x="1016" y="1239" on="1"/>
        <pt x="1008" y="1243" on="1"/>
        <pt x="982" y="1255" on="0"/>
        <pt x="878" y="1292" on="0"/>
        <pt x="807" y="1292" on="1"/>
        <pt x="668" y="1292" on="0"/>
        <pt x="445" y="1158" on="0"/>
        <pt x="315" y="893" on="0"/>
        <pt x="315" y="696" on="1"/>
        <pt x="315" y="506" on="0"/>
        <pt x="440" y="229" on="0"/>
        <pt x="672" y="80" on="0"/>
        <pt x="834" y="80" on="1"/>
        <pt x="906" y="80" on="0"/>
        <pt x="996" y="114" on="0"/>
        <pt x="999" y="115" on="1"/>
        <pt x="1031" y="127" on="0"/>
        <pt x="1038" y="156" on="1"/>
        <pt x="1085" y="379" on="1"/>
      </contour>
    </TTGlyph>
    <TTGlyph name="D" xMin="66" yMin="0" xMax="1346" yMax="1374">
      <contour>
        <pt x="1346" y="690" on="1"/>
        <pt x="1346" y="556" on="0"/>
        <pt x="1268" y="308" on="0"/>
        <pt x="1099" y="113" on="0"/>
        <pt x="828" y="0" on="0"/>
        <pt x="635" y="0" on="1"/>
        <pt x="66" y="0" on="1"/>
        <pt x="66" y="88" on="1"/>
        <pt x="174" y="96" on="1"/>
        <pt x="196" y="98" on="0"/>
        <pt x="219" y="126" on="0"/>
        <pt x="219" y="141" on="1"/>
        <pt x="219" y="1233" on="1"/>
        <pt x="219" y="1248" on="0"/>
        <pt x="196" y="1277" on="0"/>
        <pt x="174" y="1278" on="1"/>
        <pt x="66" y="1286" on="1"/>
        <pt x="66" y="1374" on="1"/>
        <pt x="594" y="1374" on="1"/>
        <pt x="809" y="1374" on="0"/>
        <pt x="1149" y="1229" on="0"/>
        <pt x="1346" y="927" on="0"/>
      </contour>
      <contour>
        <pt x="1114" y="686" on="1"/>
        <pt x="1114" y="901" on="0"/>
        <pt x="983" y="1160" on="0"/>
        <pt x="744" y="1276" on="0"/>
        <pt x="582" y="1276" on="1"/>
        <pt x="426" y="1276" on="1"/>
        <pt x="426" y="98" on="1"/>
        <pt x="592" y="100" on="1"/>
        <pt x="750" y="102" on="0"/>
        <pt x="984" y="219" on="0"/>
        <pt x="1114" y="475" on="0"/>
      </contour>
    </TTGlyph>
    <TTGlyph name="Delta" xMin="12" yMin="0" xMax="1300" yMax="1470">
      <contour>
        <pt x="1300" y="0" on="1"/>
        <pt x="12" y="0" on="1"/>
        <pt x="696" y="1470" on="1"/>
      </contour>
      <contour>
        <pt x="1022" y="115" on="1"/>
        <pt x="621" y="1085" on="1"/>
        <pt x="166" y="115" on="1"/>
      </contour>
    </TTGlyph>
    <TTGlyph name="E" xMin="66" yMin="0" xMax="1128" yMax="1374">
      <contour>
        <pt x="1128" y="0" on="1"/>
        <pt x="66" y="0" on="1"/>
        <pt x="66" y="88" on="1"/>
        <pt x="172" y="96" on="1"/>
        <pt x="194" y="98" on="0"/>
        <pt x="217" y="126" on="0"/>
        <pt x="217" y="141" on="1"/>
        <pt x="217" y="1233" on="1"/>
        <pt x="217" y="1248" on="0"/>
        <pt x="194" y="1277" on="0"/>
        <pt x="172" y="1278" on="1"/>
        <pt x="66" y="1286" on="1"/>
        <pt x="66" y="1374" on="1"/>
        <pt x="1061" y="1374" on="1"/>
        <pt x="1061" y="1069" on="1"/>
        <pt x="938" y="1069" on="1"/>
        <pt x="907" y="1237" on="1"/>
        <pt x="906" y="1252" on="0"/>
        <pt x="884" y="1276" on="0"/>
        <pt x="870" y="1276" on="1"/>
        <pt x="426" y="1276" on="1"/>
        <pt x="426" y="766" on="1"/>
        <pt x="733" y="766" on="1"/>
        <pt x="747" y="766" on="0"/>
        <pt x="770" y="790" on="0"/>
        <pt x="770" y="801" on="1"/>
        <pt x="791" y="942" on="1"/>
        <pt x="895" y="942" on="1"/>
        <pt x="895" y="485" on="1"/>
        <pt x="791" y="485" on="1"/>
        <pt x="770" y="627" on="1"/>
        <pt x="770" y="638" on="0"/>
        <pt x="746" y="664" on="0"/>
        <pt x="733" y="664" on="1"/>
        <pt x="426" y="664" on="1"/>
        <pt x="426" y="100" on="1"/>
        <pt x="944" y="100" on="1"/>
        <pt x="957" y="100" on="0"/>
        <pt x="980" y="129" on="0"/>
        <pt x="981" y="139" on="1"/>
        <pt x="1018" y="342" on="1"/>
        <pt x="1128" y="342" on="1"/>
      </contour>
    </TTGlyph>
    <TTGlyph name="Eacute" xMin="66" yMin="0" xMax="1128" yMax="1896">
      <contour>
        <pt x="1128" y="0" on="1"/>
        <pt x="66" y="0" on="1"/>
        <pt x="66" y="88" on="1"/>
        <pt x="172" y="96" on="1"/>
        <pt x="194" y="98" on="0"/>
        <pt x="217" y="126" on="0"/>
        <pt x="217" y="141" on="1"/>
        <pt x="217" y="1233" on="1"/>
        <pt x="217" y="1248" on="0"/>
        <pt x="194" y="1277" on="0"/>
        <pt x="172" y="1278" on="1"/>
        <pt x="66" y="1286" on="1"/>
        <pt x="66" y="1374" on="1"/>
        <pt x="1061" y="1374" on="1"/>
        <pt x="1061" y="1069" on="1"/>
        <pt x="938" y="1069" on="1"/>
        <pt x="907" y="1237" on="1"/>
        <pt x="906" y="1252" on="0"/>
        <pt x="884" y="1276" on="0"/>
        <pt x="870" y="1276" on="1"/>
        <pt x="426" y="1276" on="1"/>
        <pt x="426" y="766" on="1"/>
        <pt x="733" y="766" on="1"/>
        <pt x="747" y="766" on="0"/>
        <pt x="770" y="790" on="0"/>
        <pt x="770" y="801" on="1"/>
        <pt x="791" y="942" on="1"/>
        <pt x="895" y="942" on="1"/>
        <pt x="895" y="485" on="1"/>
        <pt x="791" y="485" on="1"/>
        <pt x="770" y="627" on="1"/>
        <pt x="770" y="638" on="0"/>
        <pt x="746" y="664" on="0"/>
        <pt x="733" y="664" on="1"/>
        <pt x="426" y="664" on="1"/>
        <pt x="426" y="100" on="1"/>
        <pt x="944" y="100" on="1"/>
        <pt x="957" y="100" on="0"/>
        <pt x="980" y="129" on="0"/>
        <pt x="981" y="139" on="1"/>
        <pt x="1018" y="342" on="1"/>
        <pt x="1128" y="342" on="1"/>
      </contour>
      <contour>
        <pt x="961" y="1806" on="1"/>
        <pt x="961" y="1753" on="0"/>
        <pt x="913" y="1722" on="1"/>
        <pt x="602" y="1524" on="1"/>
        <pt x="485" y="1524" on="1"/>
        <pt x="760" y="1841" on="1"/>
        <pt x="783" y="1867" on="0"/>
        <pt x="825" y="1896" on="0"/>
        <pt x="866" y="1896" on="1"/>
        <pt x="920" y="1896" on="0"/>
        <pt x="961" y="1837" on="0"/>
      </contour>
    </TTGlyph>
    <TTGlyph name="Ecircumflex" xMin="66" yMin="0" xMax="1128" yMax="1872">
      <contour>
        <pt x="946" y="1524" on="1"/>
        <pt x="823" y="1524" on="1"/>
        <pt x="612" y="1729" on="1"/>
        <pt x="401" y="1524" on="1"/>
        <pt x="281" y="1524" on="1"/>
        <pt x="539" y="1872" on="1"/>
        <pt x="690" y="1872" on="1"/>
      </contour>
      <contour>
        <pt x="1128" y="0" on="1"/>
        <pt x="66" y="0" on="1"/>
        <pt x="66" y="88" on="1"/>
        <pt x="172" y="96" on="1"/>
        <pt x="194" y="98" on="0"/>
        <pt x="217" y="126" on="0"/>
        <pt x="217" y="141" on="1"/>
        <pt x="217" y="1233" on="1"/>
        <pt x="217" y="1248" on="0"/>
        <pt x="194" y="1277" on="0"/>
        <pt x="172" y="1278" on="1"/>
        <pt x="66" y="1286" on="1"/>
        <pt x="66" y="1374" on="1"/>
        <pt x="1061" y="1374" on="1"/>
        <pt x="1061" y="1069" on="1"/>
        <pt x="938" y="1069" on="1"/>
        <pt x="907" y="1237" on="1"/>
        <pt x="906" y="1252" on="0"/>
        <pt x="884" y="1276" on="0"/>
        <pt x="870" y="1276" on="1"/>
        <pt x="426" y="1276" on="1"/>
        <pt x="426" y="766" on="1"/>
        <pt x="733" y="766" on="1"/>
        <pt x="747" y="766" on="0"/>
        <pt x="770" y="790" on="0"/>
        <pt x="770" y="801" on="1"/>
        <pt x="791" y="942" on="1"/>
        <pt x="895" y="942" on="1"/>
        <pt x="895" y="485" on="1"/>
        <pt x="791" y="485" on="1"/>
        <pt x="770" y="627" on="1"/>
        <pt x="770" y="638" on="0"/>
        <pt x="746" y="664" on="0"/>
        <pt x="733" y="664" on="1"/>
        <pt x="426" y="664" on="1"/>
        <pt x="426" y="100" on="1"/>
        <pt x="944" y="100" on="1"/>
        <pt x="957" y="100" on="0"/>
        <pt x="980" y="129" on="0"/>
        <pt x="981" y="139" on="1"/>
        <pt x="1018" y="342" on="1"/>
        <pt x="1128" y="342" on="1"/>
      </contour>
    </TTGlyph>
    <TTGlyph name="Edieresis" xMin="66" yMin="0" xMax="1128" yMax="1815">
      <contour>
        <pt x="950" y="1702" on="1"/>
        <pt x="950" y="1656" on="0"/>
        <pt x="888" y="1587" on="0"/>
        <pt x="842" y="1587" on="1"/>
        <pt x="796" y="1587" on="0"/>
        <pt x="727" y="1656" on="0"/>
        <pt x="727" y="1702" on="1"/>
        <pt x="727" y="1745" on="0"/>
        <pt x="799" y="1815" on="0"/>
        <pt x="842" y="1815" on="1"/>
        <pt x="888" y="1815" on="0"/>
        <pt x="950" y="1748" on="0"/>
      </contour>
      <contour>
        <pt x="526" y="1702" on="1"/>
        <pt x="526" y="1656" on="0"/>
        <pt x="462" y="1587" on="0"/>
        <pt x="416" y="1587" on="1"/>
        <pt x="371" y="1587" on="0"/>
        <pt x="303" y="1655" on="0"/>
        <pt x="303" y="1700" on="1"/>
        <pt x="303" y="1744" on="0"/>
        <pt x="371" y="1815" on="0"/>
        <pt x="416" y="1815" on="1"/>
        <pt x="462" y="1815" on="0"/>
        <pt x="526" y="1748" on="0"/>
      </contour>
      <contour>
        <pt x="1128" y="0" on="1"/>
        <pt x="66" y="0" on="1"/>
        <pt x="66" y="88" on="1"/>
        <pt x="172" y="96" on="1"/>
        <pt x="194" y="98" on="0"/>
        <pt x="217" y="126" on="0"/>
        <pt x="217" y="141" on="1"/>
        <pt x="217" y="1233" on="1"/>
        <pt x="217" y="1248" on="0"/>
        <pt x="194" y="1277" on="0"/>
        <pt x="172" y="1278" on="1"/>
        <pt x="66" y="1286" on="1"/>
        <pt x="66" y="1374" on="1"/>
        <pt x="1061" y="1374" on="1"/>
        <pt x="1061" y="1069" on="1"/>
        <pt x="938" y="1069" on="1"/>
        <pt x="907" y="1237" on="1"/>
        <pt x="906" y="1252" on="0"/>
        <pt x="884" y="1276" on="0"/>
        <pt x="870" y="1276" on="1"/>
        <pt x="426" y="1276" on="1"/>
        <pt x="426" y="766" on="1"/>
        <pt x="733" y="766" on="1"/>
        <pt x="747" y="766" on="0"/>
        <pt x="770" y="790" on="0"/>
        <pt x="770" y="801" on="1"/>
        <pt x="791" y="942" on="1"/>
        <pt x="895" y="942" on="1"/>
        <pt x="895" y="485" on="1"/>
        <pt x="791" y="485" on="1"/>
        <pt x="770" y="627" on="1"/>
        <pt x="770" y="638" on="0"/>
        <pt x="746" y="664" on="0"/>
        <pt x="733" y="664" on="1"/>
        <pt x="426" y="664" on="1"/>
        <pt x="426" y="100" on="1"/>
        <pt x="944" y="100" on="1"/>
        <pt x="957" y="100" on="0"/>
        <pt x="980" y="129" on="0"/>
        <pt x="981" y="139" on="1"/>
        <pt x="1018" y="342" on="1"/>
        <pt x="1128" y="342" on="1"/>
      </contour>
    </TTGlyph>
    <TTGlyph name="Egrave" xMin="66" yMin="0" xMax="1128" yMax="1896">
      <contour>
        <pt x="752" y="1524" on="1"/>
        <pt x="635" y="1524" on="1"/>
        <pt x="324" y="1722" on="1"/>
        <pt x="276" y="1753" on="0"/>
        <pt x="276" y="1806" on="1"/>
        <pt x="276" y="1837" on="0"/>
        <pt x="317" y="1896" on="0"/>
        <pt x="371" y="1896" on="1"/>
        <pt x="412" y="1896" on="0"/>
        <pt x="454" y="1867" on="0"/>
        <pt x="477" y="1841" on="1"/>
      </contour>
      <contour>
        <pt x="1128" y="0" on="1"/>
        <pt x="66" y="0" on="1"/>
        <pt x="66" y="88" on="1"/>
        <pt x="172" y="96" on="1"/>
        <pt x="194" y="98" on="0"/>
        <pt x="217" y="126" on="0"/>
        <pt x="217" y="141" on="1"/>
        <pt x="217" y="1233" on="1"/>
        <pt x="217" y="1248" on="0"/>
        <pt x="194" y="1277" on="0"/>
        <pt x="172" y="1278" on="1"/>
        <pt x="66" y="1286" on="1"/>
        <pt x="66" y="1374" on="1"/>
        <pt x="1061" y="1374" on="1"/>
        <pt x="1061" y="1069" on="1"/>
        <pt x="938" y="1069" on="1"/>
        <pt x="907" y="1237" on="1"/>
        <pt x="906" y="1252" on="0"/>
        <pt x="884" y="1276" on="0"/>
        <pt x="870" y="1276" on="1"/>
        <pt x="426" y="1276" on="1"/>
        <pt x="426" y="766" on="1"/>
        <pt x="733" y="766" on="1"/>
        <pt x="747" y="766" on="0"/>
        <pt x="770" y="790" on="0"/>
        <pt x="770" y="801" on="1"/>
        <pt x="791" y="942" on="1"/>
        <pt x="895" y="942" on="1"/>
        <pt x="895" y="485" on="1"/>
        <pt x="791" y="485" on="1"/>
        <pt x="770" y="627" on="1"/>
        <pt x="770" y="638" on="0"/>
        <pt x="746" y="664" on="0"/>
        <pt x="733" y="664" on="1"/>
        <pt x="426" y="664" on="1"/>
        <pt x="426" y="100" on="1"/>
        <pt x="944" y="100" on="1"/>
        <pt x="957" y="100" on="0"/>
        <pt x="980" y="129" on="0"/>
        <pt x="981" y="139" on="1"/>
        <pt x="1018" y="342" on="1"/>
        <pt x="1128" y="342" on="1"/>
      </contour>
    </TTGlyph>
    <TTGlyph name="Eth" xMin="31" yMin="0" xMax="1346" yMax="1374">
      <contour>
        <pt x="1346" y="686" on="1"/>
        <pt x="1346" y="492" on="0"/>
        <pt x="1188" y="181" on="0"/>
        <pt x="873" y="0" on="0"/>
        <pt x="637" y="0" on="1"/>
        <pt x="66" y="0" on="1"/>
        <pt x="66" y="88" on="1"/>
        <pt x="174" y="96" on="1"/>
        <pt x="194" y="98" on="0"/>
        <pt x="217" y="128" on="0"/>
        <pt x="217" y="141" on="1"/>
        <pt x="217" y="668" on="1"/>
        <pt x="31" y="668" on="1"/>
        <pt x="31" y="772" on="1"/>
        <pt x="217" y="772" on="1"/>
        <pt x="217" y="1233" on="1"/>
        <pt x="217" y="1248" on="0"/>
        <pt x="190" y="1275" on="0"/>
        <pt x="174" y="1276" on="1"/>
        <pt x="66" y="1286" on="1"/>
        <pt x="66" y="1374" on="1"/>
        <pt x="592" y="1374" on="1"/>
        <pt x="749" y="1374" on="0"/>
        <pt x="1022" y="1297" on="0"/>
        <pt x="1229" y="1132" on="0"/>
        <pt x="1346" y="871" on="0"/>
      </contour>
      <contour>
        <pt x="1114" y="686" on="1"/>
        <pt x="1114" y="997" on="0"/>
        <pt x="836" y="1276" on="0"/>
        <pt x="582" y="1276" on="1"/>
        <pt x="424" y="1276" on="1"/>
        <pt x="424" y="772" on="1"/>
        <pt x="752" y="772" on="1"/>
        <pt x="752" y="668" on="1"/>
        <pt x="424" y="668" on="1"/>
        <pt x="424" y="98" on="1"/>
        <pt x="584" y="98" on="1"/>
        <pt x="839" y="98" on="0"/>
        <pt x="1114" y="387" on="0"/>
      </contour>
    </TTGlyph>
    <TTGlyph name="Euro" xMin="100" yMin="-31" xMax="975" yMax="1300">
      <contour>
        <pt x="793" y="803" on="1"/>
        <pt x="777" y="683" on="1"/>
        <pt x="374" y="683" on="1"/>
        <pt x="373" y="666" on="0"/>
        <pt x="371" y="634" on="0"/>
        <pt x="371" y="618" on="1"/>
        <pt x="371" y="587" on="0"/>
        <pt x="377" y="546" on="1"/>
        <pt x="761" y="546" on="1"/>
        <pt x="745" y="426" on="1"/>
        <pt x="396" y="426" on="1"/>
        <pt x="432" y="293" on="0"/>
        <pt x="548" y="174" on="0"/>
        <pt x="710" y="143" on="0"/>
        <pt x="815" y="143" on="1"/>
        <pt x="867" y="143" on="0"/>
        <pt x="929" y="154" on="0"/>
        <pt x="975" y="170" on="1"/>
        <pt x="975" y="-4" on="1"/>
        <pt x="899" y="-22" on="0"/>
        <pt x="826" y="-31" on="0"/>
        <pt x="797" y="-31" on="1"/>
        <pt x="760" y="-31" on="1"/>
        <pt x="552" y="-31" on="0"/>
        <pt x="257" y="177" on="0"/>
        <pt x="204" y="426" on="1"/>
        <pt x="100" y="426" on="1"/>
        <pt x="100" y="546" on="1"/>
        <pt x="188" y="546" on="1"/>
        <pt x="186" y="571" on="0"/>
        <pt x="183" y="611" on="0"/>
        <pt x="183" y="631" on="1"/>
        <pt x="183" y="655" on="0"/>
        <pt x="186" y="683" on="1"/>
        <pt x="100" y="683" on="1"/>
        <pt x="100" y="803" on="1"/>
        <pt x="199" y="803" on="1"/>
        <pt x="247" y="1045" on="0"/>
        <pt x="537" y="1300" on="0"/>
        <pt x="773" y="1300" on="1"/>
        <pt x="814" y="1300" on="0"/>
        <pt x="912" y="1288" on="0"/>
        <pt x="975" y="1274" on="1"/>
        <pt x="975" y="1099" on="1"/>
        <pt x="912" y="1119" on="0"/>
        <pt x="785" y="1127" on="0"/>
        <pt x="723" y="1129" on="1"/>
        <pt x="583" y="1125" on="0"/>
        <pt x="420" y="979" on="0"/>
        <pt x="387" y="803" on="1"/>
      </contour>
    </TTGlyph>
    <TTGlyph name="Euro.punct" xMin="-40" yMin="-33" xMax="1073" yMax="1407">
      <contour>
        <pt x="1073" y="379" on="1"/>
        <pt x="1073" y="47" on="1"/>
        <pt x="1069" y="45" on="0"/>
        <pt x="970" y="5" on="0"/>
        <pt x="815" y="-33" on="0"/>
        <pt x="726" y="-33" on="1"/>
        <pt x="555" y="-33" on="0"/>
        <pt x="304" y="127" on="0"/>
        <pt x="152" y="393" on="0"/>
        <pt x="128" y="552" on="1"/>
        <pt x="-40" y="552" on="1"/>
        <pt x="-20" y="645" on="1"/>
        <pt x="119" y="645" on="1"/>
        <pt x="118" y="656" on="0"/>
        <pt x="118" y="679" on="0"/>
        <pt x="118" y="690" on="1"/>
        <pt x="118" y="702" on="0"/>
        <pt x="118" y="725" on="0"/>
        <pt x="119" y="737" on="1"/>
        <pt x="-40" y="737" on="1"/>
        <pt x="-20" y="831" on="1"/>
        <pt x="128" y="831" on="1"/>
        <pt x="152" y="1004" on="0"/>
        <pt x="314" y="1263" on="0"/>
        <pt x="567" y="1407" on="0"/>
        <pt x="727" y="1407" on="1"/>
        <pt x="812" y="1407" on="0"/>
        <pt x="967" y="1365" on="0"/>
        <pt x="1073" y="1327" on="1"/>
        <pt x="1073" y="1006" on="1"/>
        <pt x="969" y="1006" on="1"/>
        <pt x="943" y="1192" on="1"/>
        <pt x="942" y="1206" on="0"/>
        <pt x="922" y="1235" on="0"/>
        <pt x="914" y="1239" on="1"/>
        <pt x="906" y="1243" on="1"/>
        <pt x="905" y="1244" on="0"/>
        <pt x="903" y="1244" on="0"/>
        <pt x="902" y="1245" on="1"/>
        <pt x="878" y="1258" on="0"/>
        <pt x="793" y="1292" on="0"/>
        <pt x="736" y="1292" on="1"/>
        <pt x="581" y="1292" on="0"/>
        <pt x="355" y="1057" on="0"/>
        <pt x="326" y="831" on="1"/>
        <pt x="797" y="831" on="1"/>
        <pt x="777" y="737" on="1"/>
        <pt x="319" y="737" on="1"/>
        <pt x="318" y="725" on="0"/>
        <pt x="318" y="702" on="0"/>
        <pt x="318" y="690" on="1"/>
        <pt x="318" y="679" on="0"/>
        <pt x="318" y="656" on="0"/>
        <pt x="319" y="645" on="1"/>
        <pt x="760" y="645" on="1"/>
        <pt x="741" y="552" on="1"/>
        <pt x="326" y="552" on="1"/>
        <pt x="353" y="329" on="0"/>
        <pt x="578" y="80" on="0"/>
        <pt x="759" y="80" on="1"/>
        <pt x="820" y="80" on="0"/>
        <pt x="897" y="114" on="0"/>
        <pt x="899" y="115" on="1"/>
        <pt x="927" y="127" on="0"/>
        <pt x="932" y="156" on="1"/>
        <pt x="972" y="379" on="1"/>
      </contour>
    </TTGlyph>
    <TTGlyph name="F" xMin="51" yMin="0" xMax="1047" yMax="1374">
      <contour>
        <pt x="1047" y="1049" on="1"/>
        <pt x="926" y="1049" on="1"/>
        <pt x="897" y="1237" on="1"/>
        <pt x="894" y="1252" on="0"/>
        <pt x="876" y="1274" on="0"/>
        <pt x="862" y="1274" on="1"/>
        <pt x="426" y="1274" on="1"/>
        <pt x="426" y="741" on="1"/>
        <pt x="739" y="741" on="1"/>
        <pt x="753" y="741" on="0"/>
        <pt x="775" y="768" on="0"/>
        <pt x="776" y="778" on="1"/>
        <pt x="795" y="922" on="1"/>
        <pt x="897" y="922" on="1"/>
        <pt x="897" y="461" on="1"/>
        <pt x="795" y="461" on="1"/>
        <pt x="776" y="604" on="1"/>
        <pt x="775" y="615" on="0"/>
        <pt x="752" y="641" on="0"/>
        <pt x="739" y="641" on="1"/>
        <pt x="426" y="641" on="1"/>
        <pt x="426" y="141" on="1"/>
        <pt x="426" y="126" on="0"/>
        <pt x="447" y="98" on="0"/>
        <pt x="469" y="96" on="1"/>
        <pt x="606" y="88" on="1"/>
        <pt x="606" y="0" on="1"/>
        <pt x="68" y="0" on="1"/>
        <pt x="68" y="88" on="1"/>
        <pt x="176" y="96" on="1"/>
        <pt x="198" y="98" on="0"/>
        <pt x="219" y="126" on="0"/>
        <pt x="219" y="141" on="1"/>
        <pt x="219" y="1233" on="1"/>
        <pt x="219" y="1248" on="0"/>
        <pt x="198" y="1277" on="0"/>
        <pt x="176" y="1278" on="1"/>
        <pt x="51" y="1286" on="1"/>
        <pt x="51" y="1374" on="1"/>
        <pt x="1047" y="1374" on="1"/>
      </contour>
    </TTGlyph>
    <TTGlyph name="G" xMin="80" yMin="-33" xMax="1372" yMax="1407">
      <contour>
        <pt x="1372" y="575" on="1"/>
        <pt x="1268" y="565" on="1"/>
        <pt x="1246" y="564" on="0"/>
        <pt x="1225" y="538" on="0"/>
        <pt x="1225" y="522" on="1"/>
        <pt x="1225" y="49" on="1"/>
        <pt x="1225" y="49" on="0"/>
        <pt x="1102" y="8" on="0"/>
        <pt x="906" y="-33" on="0"/>
        <pt x="795" y="-33" on="1"/>
        <pt x="624" y="-33" on="0"/>
        <pt x="358" y="85" on="0"/>
        <pt x="175" y="288" on="0"/>
        <pt x="80" y="548" on="0"/>
        <pt x="80" y="690" on="1"/>
        <pt x="80" y="905" on="0"/>
        <pt x="259" y="1228" on="0"/>
        <pt x="592" y="1407" on="0"/>
        <pt x="821" y="1407" on="1"/>
        <pt x="926" y="1407" on="0"/>
        <pt x="1104" y="1369" on="0"/>
        <pt x="1189" y="1346" on="1"/>
        <pt x="1223" y="1337" on="1"/>
        <pt x="1223" y="1006" on="1"/>
        <pt x="1100" y="1006" on="1"/>
        <pt x="1067" y="1190" on="1"/>
        <pt x="1064" y="1208" on="0"/>
        <pt x="1040" y="1233" on="0"/>
        <pt x="1026" y="1239" on="1"/>
        <pt x="1022" y="1240" on="0"/>
        <pt x="1014" y="1244" on="1"/>
        <pt x="983" y="1258" on="0"/>
        <pt x="878" y="1292" on="0"/>
        <pt x="813" y="1292" on="1"/>
        <pt x="666" y="1292" on="0"/>
        <pt x="440" y="1155" on="0"/>
        <pt x="313" y="891" on="0"/>
        <pt x="313" y="700" on="1"/>
        <pt x="313" y="405" on="0"/>
        <pt x="598" y="82" on="0"/>
        <pt x="838" y="82" on="1"/>
        <pt x="906" y="82" on="0"/>
        <pt x="1011" y="113" on="0"/>
        <pt x="1018" y="113" on="1"/>
        <pt x="1018" y="522" on="1"/>
        <pt x="1018" y="538" on="0"/>
        <pt x="997" y="564" on="0"/>
        <pt x="975" y="565" on="1"/>
        <pt x="838" y="575" on="1"/>
        <pt x="838" y="664" on="1"/>
        <pt x="1372" y="664" on="1"/>
      </contour>
    </TTGlyph>
    <TTGlyph name="H" xMin="66" yMin="0" xMax="1456" yMax="1374">
      <contour>
        <pt x="1456" y="0" on="1"/>
        <pt x="938" y="0" on="1"/>
        <pt x="938" y="88" on="1"/>
        <pt x="1055" y="96" on="1"/>
        <pt x="1076" y="98" on="0"/>
        <pt x="1098" y="126" on="0"/>
        <pt x="1098" y="141" on="1"/>
        <pt x="1098" y="670" on="1"/>
        <pt x="424" y="670" on="1"/>
        <pt x="424" y="141" on="1"/>
        <pt x="424" y="126" on="0"/>
        <pt x="445" y="98" on="0"/>
        <pt x="467" y="96" on="1"/>
        <pt x="584" y="88" on="1"/>
        <pt x="584" y="0" on="1"/>
        <pt x="66" y="0" on="1"/>
        <pt x="66" y="88" on="1"/>
        <pt x="172" y="96" on="1"/>
        <pt x="194" y="98" on="0"/>
        <pt x="217" y="126" on="0"/>
        <pt x="217" y="141" on="1"/>
        <pt x="217" y="1233" on="1"/>
        <pt x="217" y="1248" on="0"/>
        <pt x="194" y="1275" on="0"/>
        <pt x="172" y="1276" on="1"/>
        <pt x="66" y="1284" on="1"/>
        <pt x="66" y="1374" on="1"/>
        <pt x="584" y="1374" on="1"/>
        <pt x="584" y="1284" on="1"/>
        <pt x="467" y="1276" on="1"/>
        <pt x="445" y="1275" on="0"/>
        <pt x="424" y="1248" on="0"/>
        <pt x="424" y="1233" on="1"/>
        <pt x="424" y="772" on="1"/>
        <pt x="1098" y="772" on="1"/>
        <pt x="1098" y="1233" on="1"/>
        <pt x="1098" y="1248" on="0"/>
        <pt x="1076" y="1275" on="0"/>
        <pt x="1055" y="1276" on="1"/>
        <pt x="938" y="1284" on="1"/>
        <pt x="938" y="1374" on="1"/>
        <pt x="1456" y="1374" on="1"/>
        <pt x="1456" y="1284" on="1"/>
        <pt x="1350" y="1276" on="1"/>
        <pt x="1328" y="1275" on="0"/>
        <pt x="1305" y="1248" on="0"/>
        <pt x="1305" y="1233" on="1"/>
        <pt x="1305" y="141" on="1"/>
        <pt x="1305" y="126" on="0"/>
        <pt x="1328" y="98" on="0"/>
        <pt x="1350" y="96" on="1"/>
        <pt x="1456" y="88" on="1"/>
      </contour>
    </TTGlyph>
    <TTGlyph name="I" xMin="68" yMin="0" xMax="608" yMax="1374">
      <contour>
        <pt x="608" y="0" on="1"/>
        <pt x="68" y="0" on="1"/>
        <pt x="68" y="88" on="1"/>
        <pt x="190" y="96" on="1"/>
        <pt x="212" y="98" on="0"/>
        <pt x="233" y="126" on="0"/>
        <pt x="233" y="141" on="1"/>
        <pt x="233" y="1233" on="1"/>
        <pt x="233" y="1248" on="0"/>
        <pt x="212" y="1275" on="0"/>
        <pt x="190" y="1276" on="1"/>
        <pt x="68" y="1284" on="1"/>
        <pt x="68" y="1374" on="1"/>
        <pt x="608" y="1374" on="1"/>
        <pt x="608" y="1284" on="1"/>
        <pt x="483" y="1276" on="1"/>
        <pt x="462" y="1275" on="0"/>
        <pt x="440" y="1248" on="0"/>
        <pt x="440" y="1233" on="1"/>
        <pt x="440" y="141" on="1"/>
        <pt x="440" y="126" on="0"/>
        <pt x="462" y="98" on="0"/>
        <pt x="483" y="96" on="1"/>
        <pt x="608" y="88" on="1"/>
      </contour>
    </TTGlyph>
    <TTGlyph name="Iacute" xMin="68" yMin="0" xMax="662" yMax="1896">
      <contour>
        <pt x="662" y="1806" on="1"/>
        <pt x="662" y="1753" on="0"/>
        <pt x="614" y="1722" on="1"/>
        <pt x="303" y="1524" on="1"/>
        <pt x="186" y="1524" on="1"/>
        <pt x="461" y="1841" on="1"/>
        <pt x="484" y="1867" on="0"/>
        <pt x="526" y="1896" on="0"/>
        <pt x="567" y="1896" on="1"/>
        <pt x="621" y="1896" on="0"/>
        <pt x="662" y="1837" on="0"/>
      </contour>
      <contour>
        <pt x="608" y="0" on="1"/>
        <pt x="68" y="0" on="1"/>
        <pt x="68" y="88" on="1"/>
        <pt x="190" y="96" on="1"/>
        <pt x="212" y="98" on="0"/>
        <pt x="233" y="126" on="0"/>
        <pt x="233" y="141" on="1"/>
        <pt x="233" y="1233" on="1"/>
        <pt x="233" y="1248" on="0"/>
        <pt x="212" y="1275" on="0"/>
        <pt x="190" y="1276" on="1"/>
        <pt x="68" y="1284" on="1"/>
        <pt x="68" y="1374" on="1"/>
        <pt x="608" y="1374" on="1"/>
        <pt x="608" y="1284" on="1"/>
        <pt x="483" y="1276" on="1"/>
        <pt x="462" y="1275" on="0"/>
        <pt x="440" y="1248" on="0"/>
        <pt x="440" y="1233" on="1"/>
        <pt x="440" y="141" on="1"/>
        <pt x="440" y="126" on="0"/>
        <pt x="462" y="98" on="0"/>
        <pt x="483" y="96" on="1"/>
        <pt x="608" y="88" on="1"/>
      </contour>
    </TTGlyph>
    <TTGlyph name="Icircumflex" xMin="2" yMin="0" xMax="674" yMax="1872">
      <contour>
        <pt x="674" y="1524" on="1"/>
        <pt x="551" y="1524" on="1"/>
        <pt x="340" y="1729" on="1"/>
        <pt x="129" y="1524" on="1"/>
        <pt x="2" y="1524" on="1"/>
        <pt x="260" y="1872" on="1"/>
        <pt x="418" y="1872" on="1"/>
      </contour>
      <contour>
        <pt x="608" y="0" on="1"/>
        <pt x="68" y="0" on="1"/>
        <pt x="68" y="88" on="1"/>
        <pt x="190" y="96" on="1"/>
        <pt x="212" y="98" on="0"/>
        <pt x="233" y="126" on="0"/>
        <pt x="233" y="141" on="1"/>
        <pt x="233" y="1233" on="1"/>
        <pt x="233" y="1248" on="0"/>
        <pt x="212" y="1275" on="0"/>
        <pt x="190" y="1276" on="1"/>
        <pt x="68" y="1284" on="1"/>
        <pt x="68" y="1374" on="1"/>
        <pt x="608" y="1374" on="1"/>
        <pt x="608" y="1284" on="1"/>
        <pt x="483" y="1276" on="1"/>
        <pt x="462" y="1275" on="0"/>
        <pt x="440" y="1248" on="0"/>
        <pt x="440" y="1233" on="1"/>
        <pt x="440" y="141" on="1"/>
        <pt x="440" y="126" on="0"/>
        <pt x="462" y="98" on="0"/>
        <pt x="483" y="96" on="1"/>
        <pt x="608" y="88" on="1"/>
      </contour>
    </TTGlyph>
    <TTGlyph name="Idieresis" xMin="14" yMin="0" xMax="662" yMax="1815">
      <contour>
        <pt x="662" y="1702" on="1"/>
        <pt x="662" y="1656" on="0"/>
        <pt x="597" y="1587" on="0"/>
        <pt x="551" y="1587" on="1"/>
        <pt x="505" y="1587" on="0"/>
        <pt x="438" y="1656" on="0"/>
        <pt x="438" y="1702" on="1"/>
        <pt x="438" y="1745" on="0"/>
        <pt x="506" y="1815" on="0"/>
        <pt x="549" y="1815" on="1"/>
        <pt x="595" y="1815" on="0"/>
        <pt x="662" y="1748" on="0"/>
      </contour>
      <contour>
        <pt x="238" y="1702" on="1"/>
        <pt x="238" y="1656" on="0"/>
        <pt x="171" y="1587" on="0"/>
        <pt x="125" y="1587" on="1"/>
        <pt x="81" y="1587" on="0"/>
        <pt x="14" y="1655" on="0"/>
        <pt x="14" y="1700" on="1"/>
        <pt x="14" y="1744" on="0"/>
        <pt x="81" y="1815" on="0"/>
        <pt x="125" y="1815" on="1"/>
        <pt x="171" y="1815" on="0"/>
        <pt x="238" y="1748" on="0"/>
      </contour>
      <contour>
        <pt x="608" y="0" on="1"/>
        <pt x="68" y="0" on="1"/>
        <pt x="68" y="88" on="1"/>
        <pt x="190" y="96" on="1"/>
        <pt x="212" y="98" on="0"/>
        <pt x="233" y="126" on="0"/>
        <pt x="233" y="141" on="1"/>
        <pt x="233" y="1233" on="1"/>
        <pt x="233" y="1248" on="0"/>
        <pt x="212" y="1275" on="0"/>
        <pt x="190" y="1276" on="1"/>
        <pt x="68" y="1284" on="1"/>
        <pt x="68" y="1374" on="1"/>
        <pt x="608" y="1374" on="1"/>
        <pt x="608" y="1284" on="1"/>
        <pt x="483" y="1276" on="1"/>
        <pt x="462" y="1275" on="0"/>
        <pt x="440" y="1248" on="0"/>
        <pt x="440" y="1233" on="1"/>
        <pt x="440" y="141" on="1"/>
        <pt x="440" y="126" on="0"/>
        <pt x="462" y="98" on="0"/>
        <pt x="483" y="96" on="1"/>
        <pt x="608" y="88" on="1"/>
      </contour>
    </TTGlyph>
    <TTGlyph name="Igrave" xMin="-2" yMin="0" xMax="608" yMax="1896">
      <contour>
        <pt x="473" y="1524" on="1"/>
        <pt x="356" y="1524" on="1"/>
        <pt x="45" y="1722" on="1"/>
        <pt x="-2" y="1753" on="0"/>
        <pt x="-2" y="1806" on="1"/>
        <pt x="-2" y="1837" on="0"/>
        <pt x="38" y="1896" on="0"/>
        <pt x="92" y="1896" on="1"/>
        <pt x="133" y="1896" on="0"/>
        <pt x="177" y="1867" on="0"/>
        <pt x="199" y="1841" on="1"/>
      </contour>
      <contour>
        <pt x="608" y="0" on="1"/>
        <pt x="68" y="0" on="1"/>
        <pt x="68" y="88" on="1"/>
        <pt x="190" y="96" on="1"/>
        <pt x="212" y="98" on="0"/>
        <pt x="233" y="126" on="0"/>
        <pt x="233" y="141" on="1"/>
        <pt x="233" y="1233" on="1"/>
        <pt x="233" y="1248" on="0"/>
        <pt x="212" y="1275" on="0"/>
        <pt x="190" y="1276" on="1"/>
        <pt x="68" y="1284" on="1"/>
        <pt x="68" y="1374" on="1"/>
        <pt x="608" y="1374" on="1"/>
        <pt x="608" y="1284" on="1"/>
        <pt x="483" y="1276" on="1"/>
        <pt x="462" y="1275" on="0"/>
        <pt x="440" y="1248" on="0"/>
        <pt x="440" y="1233" on="1"/>
        <pt x="440" y="141" on="1"/>
        <pt x="440" y="126" on="0"/>
        <pt x="462" y="98" on="0"/>
        <pt x="483" y="96" on="1"/>
        <pt x="608" y="88" on="1"/>
      </contour>
    </TTGlyph>
    <TTGlyph name="J" xMin="51" yMin="-33" xMax="940" yMax="1374">
      <contour>
        <pt x="940" y="1286" on="1"/>
        <pt x="821" y="1278" on="1"/>
        <pt x="800" y="1277" on="0"/>
        <pt x="778" y="1248" on="0"/>
        <pt x="778" y="1233" on="1"/>
        <pt x="778" y="518" on="1"/>
        <pt x="778" y="348" on="0"/>
        <pt x="691" y="101" on="0"/>
        <pt x="494" y="-33" on="0"/>
        <pt x="328" y="-33" on="1"/>
        <pt x="262" y="-33" on="0"/>
        <pt x="139" y="-6" on="0"/>
        <pt x="57" y="23" on="0"/>
        <pt x="51" y="25" on="1"/>
        <pt x="51" y="375" on="1"/>
        <pt x="174" y="375" on="1"/>
        <pt x="219" y="125" on="1"/>
        <pt x="225" y="94" on="0"/>
        <pt x="282" y="72" on="0"/>
        <pt x="313" y="72" on="1"/>
        <pt x="453" y="72" on="0"/>
        <pt x="571" y="289" on="0"/>
        <pt x="571" y="504" on="1"/>
        <pt x="571" y="1233" on="1"/>
        <pt x="571" y="1248" on="0"/>
        <pt x="550" y="1277" on="0"/>
        <pt x="528" y="1278" on="1"/>
        <pt x="399" y="1286" on="1"/>
        <pt x="399" y="1374" on="1"/>
        <pt x="940" y="1374" on="1"/>
      </contour>
    </TTGlyph>
    <TTGlyph name="K" xMin="66" yMin="0" xMax="1307" yMax="1374">
      <contour>
        <pt x="1307" y="0" on="1"/>
        <pt x="948" y="0" on="1"/>
        <pt x="948" y="63" on="1"/>
        <pt x="567" y="610" on="1"/>
        <pt x="424" y="610" on="1"/>
        <pt x="424" y="141" on="1"/>
        <pt x="424" y="126" on="0"/>
        <pt x="447" y="98" on="0"/>
        <pt x="469" y="96" on="1"/>
        <pt x="586" y="88" on="1"/>
        <pt x="586" y="0" on="1"/>
        <pt x="66" y="0" on="1"/>
        <pt x="66" y="88" on="1"/>
        <pt x="174" y="96" on="1"/>
        <pt x="196" y="98" on="0"/>
        <pt x="217" y="126" on="0"/>
        <pt x="217" y="141" on="1"/>
        <pt x="217" y="1233" on="1"/>
        <pt x="217" y="1248" on="0"/>
        <pt x="196" y="1277" on="0"/>
        <pt x="174" y="1278" on="1"/>
        <pt x="66" y="1286" on="1"/>
        <pt x="66" y="1374" on="1"/>
        <pt x="586" y="1374" on="1"/>
        <pt x="586" y="1286" on="1"/>
        <pt x="469" y="1278" on="1"/>
        <pt x="447" y="1277" on="0"/>
        <pt x="424" y="1248" on="0"/>
        <pt x="424" y="1233" on="1"/>
        <pt x="424" y="696" on="1"/>
        <pt x="498" y="696" on="1"/>
        <pt x="944" y="1241" on="1"/>
        <pt x="948" y="1245" on="0"/>
        <pt x="948" y="1252" on="1"/>
        <pt x="948" y="1274" on="0"/>
        <pt x="928" y="1276" on="1"/>
        <pt x="823" y="1286" on="1"/>
        <pt x="823" y="1374" on="1"/>
        <pt x="1257" y="1374" on="1"/>
        <pt x="1257" y="1286" on="1"/>
        <pt x="1257" y="1286" on="0"/>
        <pt x="1192" y="1279" on="0"/>
        <pt x="1124" y="1271" on="0"/>
        <pt x="1118" y="1270" on="1"/>
        <pt x="700" y="770" on="1"/>
        <pt x="1159" y="98" on="1"/>
        <pt x="1307" y="88" on="1"/>
      </contour>
    </TTGlyph>
    <TTGlyph name="L" xMin="55" yMin="0" xMax="1051" yMax="1374">
      <contour>
        <pt x="1051" y="0" on="1"/>
        <pt x="55" y="0" on="1"/>
        <pt x="55" y="88" on="1"/>
        <pt x="174" y="96" on="1"/>
        <pt x="196" y="98" on="0"/>
        <pt x="217" y="126" on="0"/>
        <pt x="217" y="141" on="1"/>
        <pt x="217" y="1233" on="1"/>
        <pt x="217" y="1248" on="0"/>
        <pt x="196" y="1277" on="0"/>
        <pt x="174" y="1278" on="1"/>
        <pt x="55" y="1286" on="1"/>
        <pt x="55" y="1374" on="1"/>
        <pt x="578" y="1374" on="1"/>
        <pt x="578" y="1286" on="1"/>
        <pt x="469" y="1278" on="1"/>
        <pt x="447" y="1277" on="0"/>
        <pt x="424" y="1248" on="0"/>
        <pt x="424" y="1233" on="1"/>
        <pt x="424" y="100" on="1"/>
        <pt x="854" y="100" on="1"/>
        <pt x="868" y="100" on="0"/>
        <pt x="898" y="122" on="0"/>
        <pt x="899" y="135" on="1"/>
        <pt x="932" y="381" on="1"/>
        <pt x="1051" y="381" on="1"/>
      </contour>
    </TTGlyph>
    <TTGlyph name="M" xMin="59" yMin="0" xMax="1731" yMax="1374">
      <contour>
        <pt x="1731" y="0" on="1"/>
        <pt x="1214" y="0" on="1"/>
        <pt x="1214" y="88" on="1"/>
        <pt x="1323" y="96" on="1"/>
        <pt x="1345" y="98" on="0"/>
        <pt x="1368" y="126" on="0"/>
        <pt x="1368" y="141" on="1"/>
        <pt x="1368" y="1270" on="1"/>
        <pt x="897" y="0" on="1"/>
        <pt x="795" y="0" on="1"/>
        <pt x="340" y="1251" on="1"/>
        <pt x="340" y="141" on="1"/>
        <pt x="340" y="126" on="0"/>
        <pt x="363" y="98" on="0"/>
        <pt x="385" y="96" on="1"/>
        <pt x="502" y="88" on="1"/>
        <pt x="502" y="0" on="1"/>
        <pt x="59" y="0" on="1"/>
        <pt x="59" y="88" on="1"/>
        <pt x="176" y="96" on="1"/>
        <pt x="198" y="98" on="0"/>
        <pt x="219" y="126" on="0"/>
        <pt x="219" y="141" on="1"/>
        <pt x="219" y="1233" on="1"/>
        <pt x="219" y="1248" on="0"/>
        <pt x="198" y="1277" on="0"/>
        <pt x="176" y="1278" on="1"/>
        <pt x="59" y="1286" on="1"/>
        <pt x="59" y="1374" on="1"/>
        <pt x="518" y="1374" on="1"/>
        <pt x="518" y="1319" on="1"/>
        <pt x="889" y="313" on="1"/>
        <pt x="1260" y="1313" on="1"/>
        <pt x="1260" y="1374" on="1"/>
        <pt x="1731" y="1374" on="1"/>
        <pt x="1731" y="1286" on="1"/>
        <pt x="1620" y="1278" on="1"/>
        <pt x="1598" y="1277" on="0"/>
        <pt x="1575" y="1248" on="0"/>
        <pt x="1575" y="1233" on="1"/>
        <pt x="1575" y="141" on="1"/>
        <pt x="1575" y="126" on="0"/>
        <pt x="1598" y="98" on="0"/>
        <pt x="1620" y="96" on="1"/>
        <pt x="1731" y="88" on="1"/>
      </contour>
    </TTGlyph>
    <TTGlyph name="N" xMin="51" yMin="0" xMax="1417" yMax="1374">
      <contour>
        <pt x="1417" y="1286" on="1"/>
        <pt x="1303" y="1278" on="1"/>
        <pt x="1281" y="1277" on="0"/>
        <pt x="1260" y="1248" on="0"/>
        <pt x="1260" y="1233" on="1"/>
        <pt x="1260" y="0" on="1"/>
        <pt x="1100" y="0" on="1"/>
        <pt x="338" y="1147" on="1"/>
        <pt x="338" y="141" on="1"/>
        <pt x="338" y="126" on="0"/>
        <pt x="359" y="98" on="0"/>
        <pt x="381" y="96" on="1"/>
        <pt x="498" y="88" on="1"/>
        <pt x="498" y="0" on="1"/>
        <pt x="55" y="0" on="1"/>
        <pt x="55" y="88" on="1"/>
        <pt x="172" y="96" on="1"/>
        <pt x="194" y="98" on="0"/>
        <pt x="217" y="126" on="0"/>
        <pt x="217" y="141" on="1"/>
        <pt x="217" y="1233" on="1"/>
        <pt x="217" y="1248" on="0"/>
        <pt x="194" y="1277" on="0"/>
        <pt x="172" y="1278" on="1"/>
        <pt x="51" y="1286" on="1"/>
        <pt x="51" y="1374" on="1"/>
        <pt x="457" y="1374" on="1"/>
        <pt x="457" y="1323" on="1"/>
        <pt x="1139" y="293" on="1"/>
        <pt x="1139" y="1233" on="1"/>
        <pt x="1139" y="1248" on="0"/>
        <pt x="1117" y="1277" on="0"/>
        <pt x="1096" y="1278" on="1"/>
        <pt x="979" y="1286" on="1"/>
        <pt x="979" y="1374" on="1"/>
        <pt x="1417" y="1374" on="1"/>
      </contour>
    </TTGlyph>
    <TTGlyph name="Ntilde" xMin="51" yMin="0" xMax="1417" yMax="1812">
      <contour>
        <pt x="1114" y="1812" on="1"/>
        <pt x="1091" y="1722" on="0"/>
        <pt x="979" y="1587" on="0"/>
        <pt x="879" y="1587" on="1"/>
        <pt x="825" y="1587" on="0"/>
        <pt x="746" y="1636" on="0"/>
        <pt x="661" y="1686" on="0"/>
        <pt x="594" y="1686" on="1"/>
        <pt x="553" y="1686" on="0"/>
        <pt x="492" y="1624" on="0"/>
        <pt x="487" y="1587" on="1"/>
        <pt x="406" y="1587" on="1"/>
        <pt x="429" y="1678" on="0"/>
        <pt x="541" y="1812" on="0"/>
        <pt x="641" y="1812" on="1"/>
        <pt x="696" y="1812" on="0"/>
        <pt x="774" y="1763" on="0"/>
        <pt x="860" y="1714" on="0"/>
        <pt x="926" y="1714" on="1"/>
        <pt x="967" y="1714" on="0"/>
        <pt x="1028" y="1775" on="0"/>
        <pt x="1032" y="1812" on="1"/>
      </contour>
      <contour>
        <pt x="1417" y="1286" on="1"/>
        <pt x="1303" y="1278" on="1"/>
        <pt x="1281" y="1277" on="0"/>
        <pt x="1260" y="1248" on="0"/>
        <pt x="1260" y="1233" on="1"/>
        <pt x="1260" y="0" on="1"/>
        <pt x="1100" y="0" on="1"/>
        <pt x="338" y="1147" on="1"/>
        <pt x="338" y="141" on="1"/>
        <pt x="338" y="126" on="0"/>
        <pt x="359" y="98" on="0"/>
        <pt x="381" y="96" on="1"/>
        <pt x="498" y="88" on="1"/>
        <pt x="498" y="0" on="1"/>
        <pt x="55" y="0" on="1"/>
        <pt x="55" y="88" on="1"/>
        <pt x="172" y="96" on="1"/>
        <pt x="194" y="98" on="0"/>
        <pt x="217" y="126" on="0"/>
        <pt x="217" y="141" on="1"/>
        <pt x="217" y="1233" on="1"/>
        <pt x="217" y="1248" on="0"/>
        <pt x="194" y="1277" on="0"/>
        <pt x="172" y="1278" on="1"/>
        <pt x="51" y="1286" on="1"/>
        <pt x="51" y="1374" on="1"/>
        <pt x="457" y="1374" on="1"/>
        <pt x="457" y="1323" on="1"/>
        <pt x="1139" y="293" on="1"/>
        <pt x="1139" y="1233" on="1"/>
        <pt x="1139" y="1248" on="0"/>
        <pt x="1117" y="1277" on="0"/>
        <pt x="1096" y="1278" on="1"/>
        <pt x="979" y="1286" on="1"/>
        <pt x="979" y="1374" on="1"/>
        <pt x="1417" y="1374" on="1"/>
      </contour>
    </TTGlyph>
    <TTGlyph name="O" xMin="80" yMin="-33" xMax="1417" yMax="1407">
      <contour>
        <pt x="1417" y="686" on="1"/>
        <pt x="1417" y="537" on="0"/>
        <pt x="1322" y="277" on="0"/>
        <pt x="1146" y="79" on="0"/>
        <pt x="900" y="-33" on="0"/>
        <pt x="750" y="-33" on="1"/>
        <pt x="549" y="-33" on="0"/>
        <pt x="248" y="156" on="0"/>
        <pt x="80" y="482" on="0"/>
        <pt x="80" y="688" on="1"/>
        <pt x="80" y="838" on="0"/>
        <pt x="173" y="1098" on="0"/>
        <pt x="349" y="1296" on="0"/>
        <pt x="595" y="1407" on="0"/>
        <pt x="748" y="1407" on="1"/>
        <pt x="900" y="1407" on="0"/>
        <pt x="1146" y="1295" on="0"/>
        <pt x="1322" y="1096" on="0"/>
        <pt x="1417" y="835" on="0"/>
      </contour>
      <contour>
        <pt x="1180" y="684" on="1"/>
        <pt x="1180" y="851" on="0"/>
        <pt x="1084" y="1126" on="0"/>
        <pt x="893" y="1290" on="0"/>
        <pt x="750" y="1290" on="1"/>
        <pt x="602" y="1290" on="0"/>
        <pt x="409" y="1125" on="0"/>
        <pt x="315" y="851" on="0"/>
        <pt x="315" y="688" on="1"/>
        <pt x="315" y="524" on="0"/>
        <pt x="409" y="247" on="0"/>
        <pt x="600" y="80" on="0"/>
        <pt x="745" y="80" on="1"/>
        <pt x="893" y="80" on="0"/>
        <pt x="1085" y="247" on="0"/>
        <pt x="1180" y="522" on="0"/>
      </contour>
    </TTGlyph>
    <TTGlyph name="OE" xMin="80" yMin="-33" xMax="1980" yMax="1407">
      <contour>
        <pt x="1980" y="0" on="1"/>
        <pt x="1069" y="0" on="1"/>
        <pt x="1069" y="113" on="1"/>
        <pt x="999" y="43" on="0"/>
        <pt x="803" y="-33" on="0"/>
        <pt x="680" y="-33" on="1"/>
        <pt x="480" y="-33" on="0"/>
        <pt x="213" y="156" on="0"/>
        <pt x="80" y="482" on="0"/>
        <pt x="80" y="688" on="1"/>
        <pt x="80" y="888" on="0"/>
        <pt x="209" y="1214" on="0"/>
        <pt x="474" y="1407" on="0"/>
        <pt x="678" y="1407" on="1"/>
        <pt x="803" y="1407" on="0"/>
        <pt x="999" y="1331" on="0"/>
        <pt x="1069" y="1262" on="1"/>
        <pt x="1069" y="1374" on="1"/>
        <pt x="1913" y="1374" on="1"/>
        <pt x="1913" y="1069" on="1"/>
        <pt x="1790" y="1069" on="1"/>
        <pt x="1759" y="1237" on="1"/>
        <pt x="1758" y="1252" on="0"/>
        <pt x="1736" y="1276" on="0"/>
        <pt x="1722" y="1276" on="1"/>
        <pt x="1278" y="1276" on="1"/>
        <pt x="1278" y="766" on="1"/>
        <pt x="1585" y="766" on="1"/>
        <pt x="1599" y="766" on="0"/>
        <pt x="1622" y="790" on="0"/>
        <pt x="1622" y="801" on="1"/>
        <pt x="1642" y="942" on="1"/>
        <pt x="1747" y="942" on="1"/>
        <pt x="1747" y="485" on="1"/>
        <pt x="1642" y="485" on="1"/>
        <pt x="1622" y="627" on="1"/>
        <pt x="1622" y="638" on="0"/>
        <pt x="1598" y="664" on="0"/>
        <pt x="1585" y="664" on="1"/>
        <pt x="1278" y="664" on="1"/>
        <pt x="1278" y="100" on="1"/>
        <pt x="1796" y="100" on="1"/>
        <pt x="1808" y="100" on="0"/>
        <pt x="1832" y="129" on="0"/>
        <pt x="1835" y="139" on="1"/>
        <pt x="1870" y="342" on="1"/>
        <pt x="1980" y="342" on="1"/>
      </contour>
      <contour>
        <pt x="1040" y="684" on="1"/>
        <pt x="1040" y="851" on="0"/>
        <pt x="980" y="1126" on="0"/>
        <pt x="824" y="1290" on="0"/>
        <pt x="680" y="1290" on="1"/>
        <pt x="569" y="1290" on="0"/>
        <pt x="426" y="1195" on="0"/>
        <pt x="346" y="1028" on="0"/>
        <pt x="315" y="810" on="0"/>
        <pt x="315" y="688" on="1"/>
        <pt x="315" y="565" on="0"/>
        <pt x="347" y="345" on="0"/>
        <pt x="426" y="177" on="0"/>
        <pt x="567" y="80" on="0"/>
        <pt x="676" y="80" on="1"/>
        <pt x="787" y="80" on="0"/>
        <pt x="929" y="176" on="0"/>
        <pt x="1008" y="345" on="0"/>
        <pt x="1040" y="563" on="0"/>
      </contour>
    </TTGlyph>
    <TTGlyph name="Oacute" xMin="80" yMin="-33" xMax="1417" yMax="1896">
      <contour>
        <pt x="1106" y="1806" on="1"/>
        <pt x="1106" y="1751" on="0"/>
        <pt x="1059" y="1722" on="1"/>
        <pt x="748" y="1524" on="1"/>
        <pt x="631" y="1524" on="1"/>
        <pt x="905" y="1841" on="1"/>
        <pt x="927" y="1867" on="0"/>
        <pt x="970" y="1896" on="0"/>
        <pt x="1012" y="1896" on="1"/>
        <pt x="1065" y="1896" on="0"/>
        <pt x="1106" y="1837" on="0"/>
      </contour>
      <contour>
        <pt x="1417" y="686" on="1"/>
        <pt x="1417" y="537" on="0"/>
        <pt x="1322" y="277" on="0"/>
        <pt x="1146" y="79" on="0"/>
        <pt x="900" y="-33" on="0"/>
        <pt x="750" y="-33" on="1"/>
        <pt x="549" y="-33" on="0"/>
        <pt x="248" y="156" on="0"/>
        <pt x="80" y="482" on="0"/>
        <pt x="80" y="688" on="1"/>
        <pt x="80" y="838" on="0"/>
        <pt x="173" y="1098" on="0"/>
        <pt x="349" y="1296" on="0"/>
        <pt x="595" y="1407" on="0"/>
        <pt x="748" y="1407" on="1"/>
        <pt x="900" y="1407" on="0"/>
        <pt x="1146" y="1295" on="0"/>
        <pt x="1322" y="1096" on="0"/>
        <pt x="1417" y="835" on="0"/>
      </contour>
      <contour>
        <pt x="1180" y="684" on="1"/>
        <pt x="1180" y="851" on="0"/>
        <pt x="1084" y="1126" on="0"/>
        <pt x="893" y="1290" on="0"/>
        <pt x="750" y="1290" on="1"/>
        <pt x="602" y="1290" on="0"/>
        <pt x="409" y="1125" on="0"/>
        <pt x="315" y="851" on="0"/>
        <pt x="315" y="688" on="1"/>
        <pt x="315" y="524" on="0"/>
        <pt x="409" y="247" on="0"/>
        <pt x="600" y="80" on="0"/>
        <pt x="745" y="80" on="1"/>
        <pt x="893" y="80" on="0"/>
        <pt x="1085" y="247" on="0"/>
        <pt x="1180" y="522" on="0"/>
      </contour>
    </TTGlyph>
    <TTGlyph name="Ocircumflex" xMin="80" yMin="-33" xMax="1417" yMax="1872">
      <contour>
        <pt x="1081" y="1524" on="1"/>
        <pt x="958" y="1524" on="1"/>
        <pt x="748" y="1729" on="1"/>
        <pt x="537" y="1524" on="1"/>
        <pt x="414" y="1524" on="1"/>
        <pt x="670" y="1872" on="1"/>
        <pt x="823" y="1872" on="1"/>
      </contour>
      <contour>
        <pt x="1417" y="686" on="1"/>
        <pt x="1417" y="537" on="0"/>
        <pt x="1322" y="277" on="0"/>
        <pt x="1146" y="79" on="0"/>
        <pt x="900" y="-33" on="0"/>
        <pt x="750" y="-33" on="1"/>
        <pt x="549" y="-33" on="0"/>
        <pt x="248" y="156" on="0"/>
        <pt x="80" y="482" on="0"/>
        <pt x="80" y="688" on="1"/>
        <pt x="80" y="838" on="0"/>
        <pt x="173" y="1098" on="0"/>
        <pt x="349" y="1296" on="0"/>
        <pt x="595" y="1407" on="0"/>
        <pt x="748" y="1407" on="1"/>
        <pt x="900" y="1407" on="0"/>
        <pt x="1146" y="1295" on="0"/>
        <pt x="1322" y="1096" on="0"/>
        <pt x="1417" y="835" on="0"/>
      </contour>
      <contour>
        <pt x="1180" y="684" on="1"/>
        <pt x="1180" y="851" on="0"/>
        <pt x="1084" y="1126" on="0"/>
        <pt x="893" y="1290" on="0"/>
        <pt x="750" y="1290" on="1"/>
        <pt x="602" y="1290" on="0"/>
        <pt x="409" y="1125" on="0"/>
        <pt x="315" y="851" on="0"/>
        <pt x="315" y="688" on="1"/>
        <pt x="315" y="524" on="0"/>
        <pt x="409" y="247" on="0"/>
        <pt x="600" y="80" on="0"/>
        <pt x="745" y="80" on="1"/>
        <pt x="893" y="80" on="0"/>
        <pt x="1085" y="247" on="0"/>
        <pt x="1180" y="522" on="0"/>
      </contour>
    </TTGlyph>
    <TTGlyph name="Odieresis" xMin="80" yMin="-33" xMax="1417" yMax="1815">
      <contour>
        <pt x="1069" y="1702" on="1"/>
        <pt x="1069" y="1656" on="0"/>
        <pt x="1005" y="1587" on="0"/>
        <pt x="958" y="1587" on="1"/>
        <pt x="912" y="1587" on="0"/>
        <pt x="846" y="1656" on="0"/>
        <pt x="846" y="1702" on="1"/>
        <pt x="846" y="1745" on="0"/>
        <pt x="913" y="1815" on="0"/>
        <pt x="956" y="1815" on="1"/>
        <pt x="1003" y="1815" on="0"/>
        <pt x="1069" y="1748" on="0"/>
      </contour>
      <contour>
        <pt x="645" y="1702" on="1"/>
        <pt x="645" y="1656" on="0"/>
        <pt x="579" y="1587" on="0"/>
        <pt x="532" y="1587" on="1"/>
        <pt x="488" y="1587" on="0"/>
        <pt x="422" y="1655" on="0"/>
        <pt x="422" y="1700" on="1"/>
        <pt x="422" y="1744" on="0"/>
        <pt x="488" y="1815" on="0"/>
        <pt x="532" y="1815" on="1"/>
        <pt x="579" y="1815" on="0"/>
        <pt x="645" y="1748" on="0"/>
      </contour>
      <contour>
        <pt x="1417" y="686" on="1"/>
        <pt x="1417" y="537" on="0"/>
        <pt x="1322" y="277" on="0"/>
        <pt x="1146" y="79" on="0"/>
        <pt x="900" y="-33" on="0"/>
        <pt x="750" y="-33" on="1"/>
        <pt x="549" y="-33" on="0"/>
        <pt x="248" y="156" on="0"/>
        <pt x="80" y="482" on="0"/>
        <pt x="80" y="688" on="1"/>
        <pt x="80" y="838" on="0"/>
        <pt x="173" y="1098" on="0"/>
        <pt x="349" y="1296" on="0"/>
        <pt x="595" y="1407" on="0"/>
        <pt x="748" y="1407" on="1"/>
        <pt x="900" y="1407" on="0"/>
        <pt x="1146" y="1295" on="0"/>
        <pt x="1322" y="1096" on="0"/>
        <pt x="1417" y="835" on="0"/>
      </contour>
      <contour>
        <pt x="1180" y="684" on="1"/>
        <pt x="1180" y="851" on="0"/>
        <pt x="1084" y="1126" on="0"/>
        <pt x="893" y="1290" on="0"/>
        <pt x="750" y="1290" on="1"/>
        <pt x="602" y="1290" on="0"/>
        <pt x="409" y="1125" on="0"/>
        <pt x="315" y="851" on="0"/>
        <pt x="315" y="688" on="1"/>
        <pt x="315" y="524" on="0"/>
        <pt x="409" y="247" on="0"/>
        <pt x="600" y="80" on="0"/>
        <pt x="745" y="80" on="1"/>
        <pt x="893" y="80" on="0"/>
        <pt x="1085" y="247" on="0"/>
        <pt x="1180" y="522" on="0"/>
      </contour>
    </TTGlyph>
    <TTGlyph name="Ograve" xMin="80" yMin="-33" xMax="1417" yMax="1896">
      <contour>
        <pt x="856" y="1524" on="1"/>
        <pt x="739" y="1524" on="1"/>
        <pt x="428" y="1722" on="1"/>
        <pt x="381" y="1753" on="0"/>
        <pt x="381" y="1806" on="1"/>
        <pt x="381" y="1837" on="0"/>
        <pt x="421" y="1896" on="0"/>
        <pt x="475" y="1896" on="1"/>
        <pt x="516" y="1896" on="0"/>
        <pt x="560" y="1867" on="0"/>
        <pt x="582" y="1841" on="1"/>
      </contour>
      <contour>
        <pt x="1417" y="686" on="1"/>
        <pt x="1417" y="537" on="0"/>
        <pt x="1322" y="277" on="0"/>
        <pt x="1146" y="79" on="0"/>
        <pt x="900" y="-33" on="0"/>
        <pt x="750" y="-33" on="1"/>
        <pt x="549" y="-33" on="0"/>
        <pt x="248" y="156" on="0"/>
        <pt x="80" y="482" on="0"/>
        <pt x="80" y="688" on="1"/>
        <pt x="80" y="838" on="0"/>
        <pt x="173" y="1098" on="0"/>
        <pt x="349" y="1296" on="0"/>
        <pt x="595" y="1407" on="0"/>
        <pt x="748" y="1407" on="1"/>
        <pt x="900" y="1407" on="0"/>
        <pt x="1146" y="1295" on="0"/>
        <pt x="1322" y="1096" on="0"/>
        <pt x="1417" y="835" on="0"/>
      </contour>
      <contour>
        <pt x="1180" y="684" on="1"/>
        <pt x="1180" y="851" on="0"/>
        <pt x="1084" y="1126" on="0"/>
        <pt x="893" y="1290" on="0"/>
        <pt x="750" y="1290" on="1"/>
        <pt x="602" y="1290" on="0"/>
        <pt x="409" y="1125" on="0"/>
        <pt x="315" y="851" on="0"/>
        <pt x="315" y="688" on="1"/>
        <pt x="315" y="524" on="0"/>
        <pt x="409" y="247" on="0"/>
        <pt x="600" y="80" on="0"/>
        <pt x="745" y="80" on="1"/>
        <pt x="893" y="80" on="0"/>
        <pt x="1085" y="247" on="0"/>
        <pt x="1180" y="522" on="0"/>
      </contour>
    </TTGlyph>
    <TTGlyph name="Omega" xMin="70" yMin="0" xMax="1495" yMax="1442">
      <contour>
        <pt x="1495" y="850" on="1"/>
        <pt x="1495" y="726" on="0"/>
        <pt x="1401" y="531" on="0"/>
        <pt x="1246" y="393" on="0"/>
        <pt x="1060" y="317" on="0"/>
        <pt x="967" y="311" on="1"/>
        <pt x="967" y="184" on="1"/>
        <pt x="1286" y="184" on="1"/>
        <pt x="1312" y="184" on="0"/>
        <pt x="1376" y="211" on="0"/>
        <pt x="1423" y="273" on="0"/>
        <pt x="1423" y="324" on="1"/>
        <pt x="1466" y="324" on="1"/>
        <pt x="1466" y="0" on="1"/>
        <pt x="891" y="0" on="1"/>
        <pt x="891" y="360" on="1"/>
        <pt x="1064" y="414" on="0"/>
        <pt x="1272" y="665" on="0"/>
        <pt x="1272" y="848" on="1"/>
        <pt x="1272" y="949" on="0"/>
        <pt x="1202" y="1142" on="0"/>
        <pt x="1073" y="1297" on="0"/>
        <pt x="893" y="1389" on="0"/>
        <pt x="782" y="1389" on="1"/>
        <pt x="671" y="1389" on="0"/>
        <pt x="490" y="1297" on="0"/>
        <pt x="362" y="1142" on="0"/>
        <pt x="293" y="949" on="0"/>
        <pt x="293" y="848" on="1"/>
        <pt x="293" y="665" on="0"/>
        <pt x="500" y="414" on="0"/>
        <pt x="674" y="360" on="1"/>
        <pt x="674" y="0" on="1"/>
        <pt x="98" y="0" on="1"/>
        <pt x="98" y="324" on="1"/>
        <pt x="141" y="324" on="1"/>
        <pt x="141" y="273" on="0"/>
        <pt x="189" y="211" on="0"/>
        <pt x="254" y="184" on="0"/>
        <pt x="279" y="184" on="1"/>
        <pt x="598" y="184" on="1"/>
        <pt x="598" y="311" on="1"/>
        <pt x="505" y="317" on="0"/>
        <pt x="318" y="393" on="0"/>
        <pt x="164" y="531" on="0"/>
        <pt x="70" y="726" on="0"/>
        <pt x="70" y="850" on="1"/>
        <pt x="70" y="1028" on="0"/>
        <pt x="240" y="1294" on="0"/>
        <pt x="559" y="1442" on="0"/>
        <pt x="782" y="1442" on="1"/>
        <pt x="1006" y="1442" on="0"/>
        <pt x="1325" y="1294" on="0"/>
        <pt x="1495" y="1028" on="0"/>
      </contour>
    </TTGlyph>
    <TTGlyph name="Oslash" xMin="80" yMin="-162" xMax="1417" yMax="1532">
      <contour>
        <pt x="1417" y="686" on="1"/>
        <pt x="1417" y="537" on="0"/>
        <pt x="1322" y="277" on="0"/>
        <pt x="1146" y="79" on="0"/>
        <pt x="900" y="-33" on="0"/>
        <pt x="750" y="-33" on="1"/>
        <pt x="565" y="-33" on="0"/>
        <pt x="420" y="49" on="1"/>
        <pt x="388" y="-5" on="0"/>
        <pt x="325" y="-109" on="0"/>
        <pt x="293" y="-162" on="1"/>
        <pt x="199" y="-104" on="1"/>
        <pt x="328" y="113" on="1"/>
        <pt x="211" y="210" on="0"/>
        <pt x="80" y="509" on="0"/>
        <pt x="80" y="688" on="1"/>
        <pt x="80" y="838" on="0"/>
        <pt x="173" y="1098" on="0"/>
        <pt x="349" y="1296" on="0"/>
        <pt x="595" y="1407" on="0"/>
        <pt x="748" y="1407" on="1"/>
        <pt x="834" y="1407" on="0"/>
        <pt x="989" y="1369" on="0"/>
        <pt x="1055" y="1335" on="1"/>
        <pt x="1171" y="1532" on="1"/>
        <pt x="1268" y="1475" on="1"/>
        <pt x="1242" y="1430" on="0"/>
        <pt x="1181" y="1330" on="0"/>
        <pt x="1149" y="1276" on="1"/>
        <pt x="1277" y="1178" on="0"/>
        <pt x="1417" y="869" on="0"/>
      </contour>
      <contour>
        <pt x="1180" y="684" on="1"/>
        <pt x="1180" y="816" on="0"/>
        <pt x="1122" y="1046" on="0"/>
        <pt x="1063" y="1128" on="1"/>
        <pt x="940" y="921" on="0"/>
        <pt x="648" y="431" on="0"/>
        <pt x="496" y="174" on="1"/>
        <pt x="545" y="130" on="0"/>
        <pt x="669" y="80" on="0"/>
        <pt x="745" y="80" on="1"/>
        <pt x="893" y="80" on="0"/>
        <pt x="1085" y="247" on="0"/>
        <pt x="1180" y="522" on="0"/>
      </contour>
      <contour>
        <pt x="981" y="1212" on="1"/>
        <pt x="886" y="1290" on="0"/>
        <pt x="750" y="1290" on="1"/>
        <pt x="602" y="1290" on="0"/>
        <pt x="409" y="1125" on="0"/>
        <pt x="315" y="851" on="0"/>
        <pt x="315" y="688" on="1"/>
        <pt x="315" y="567" on="0"/>
        <pt x="368" y="349" on="0"/>
        <pt x="420" y="266" on="1"/>
      </contour>
    </TTGlyph>
    <TTGlyph name="Otilde" xMin="80" yMin="-33" xMax="1417" yMax="1812">
      <contour>
        <pt x="1100" y="1812" on="1"/>
        <pt x="1077" y="1722" on="0"/>
        <pt x="962" y="1587" on="0"/>
        <pt x="862" y="1587" on="1"/>
        <pt x="808" y="1587" on="0"/>
        <pt x="730" y="1636" on="0"/>
        <pt x="645" y="1686" on="0"/>
        <pt x="578" y="1686" on="1"/>
        <pt x="536" y="1686" on="0"/>
        <pt x="476" y="1624" on="0"/>
        <pt x="471" y="1587" on="1"/>
        <pt x="389" y="1587" on="1"/>
        <pt x="412" y="1678" on="0"/>
        <pt x="527" y="1812" on="0"/>
        <pt x="627" y="1812" on="1"/>
        <pt x="681" y="1812" on="0"/>
        <pt x="758" y="1763" on="0"/>
        <pt x="843" y="1714" on="0"/>
        <pt x="909" y="1714" on="1"/>
        <pt x="951" y="1714" on="0"/>
        <pt x="1014" y="1775" on="0"/>
        <pt x="1018" y="1812" on="1"/>
      </contour>
      <contour>
        <pt x="1417" y="686" on="1"/>
        <pt x="1417" y="537" on="0"/>
        <pt x="1322" y="277" on="0"/>
        <pt x="1146" y="79" on="0"/>
        <pt x="900" y="-33" on="0"/>
        <pt x="750" y="-33" on="1"/>
        <pt x="549" y="-33" on="0"/>
        <pt x="248" y="156" on="0"/>
        <pt x="80" y="482" on="0"/>
        <pt x="80" y="688" on="1"/>
        <pt x="80" y="838" on="0"/>
        <pt x="173" y="1098" on="0"/>
        <pt x="349" y="1296" on="0"/>
        <pt x="595" y="1407" on="0"/>
        <pt x="748" y="1407" on="1"/>
        <pt x="900" y="1407" on="0"/>
        <pt x="1146" y="1295" on="0"/>
        <pt x="1322" y="1096" on="0"/>
        <pt x="1417" y="835" on="0"/>
      </contour>
      <contour>
        <pt x="1180" y="684" on="1"/>
        <pt x="1180" y="851" on="0"/>
        <pt x="1084" y="1126" on="0"/>
        <pt x="893" y="1290" on="0"/>
        <pt x="750" y="1290" on="1"/>
        <pt x="602" y="1290" on="0"/>
        <pt x="409" y="1125" on="0"/>
        <pt x="315" y="851" on="0"/>
        <pt x="315" y="688" on="1"/>
        <pt x="315" y="524" on="0"/>
        <pt x="409" y="247" on="0"/>
        <pt x="600" y="80" on="0"/>
        <pt x="745" y="80" on="1"/>
        <pt x="893" y="80" on="0"/>
        <pt x="1085" y="247" on="0"/>
        <pt x="1180" y="522" on="0"/>
      </contour>
    </TTGlyph>
    <TTGlyph name="P" xMin="51" yMin="0" xMax="1106" yMax="1374">
      <contour>
        <pt x="1106" y="961" on="1"/>
        <pt x="1106" y="811" on="0"/>
        <pt x="964" y="613" on="0"/>
        <pt x="724" y="514" on="0"/>
        <pt x="577" y="514" on="1"/>
        <pt x="571" y="514" on="1"/>
        <pt x="531" y="514" on="0"/>
        <pt x="434" y="521" on="0"/>
        <pt x="426" y="522" on="1"/>
        <pt x="426" y="141" on="1"/>
        <pt x="426" y="126" on="0"/>
        <pt x="447" y="98" on="0"/>
        <pt x="469" y="96" on="1"/>
        <pt x="604" y="88" on="1"/>
        <pt x="604" y="0" on="1"/>
        <pt x="66" y="0" on="1"/>
        <pt x="66" y="88" on="1"/>
        <pt x="174" y="96" on="1"/>
        <pt x="196" y="98" on="0"/>
        <pt x="219" y="126" on="0"/>
        <pt x="219" y="141" on="1"/>
        <pt x="219" y="1233" on="1"/>
        <pt x="219" y="1248" on="0"/>
        <pt x="196" y="1277" on="0"/>
        <pt x="174" y="1278" on="1"/>
        <pt x="51" y="1286" on="1"/>
        <pt x="51" y="1374" on="1"/>
        <pt x="541" y="1374" on="1"/>
        <pt x="831" y="1374" on="0"/>
        <pt x="1106" y="1188" on="0"/>
      </contour>
      <contour>
        <pt x="893" y="958" on="1"/>
        <pt x="893" y="1107" on="0"/>
        <pt x="726" y="1274" on="0"/>
        <pt x="530" y="1274" on="1"/>
        <pt x="502" y="1274" on="0"/>
        <pt x="426" y="1272" on="0"/>
        <pt x="426" y="1272" on="1"/>
        <pt x="426" y="627" on="1"/>
        <pt x="431" y="627" on="0"/>
        <pt x="512" y="616" on="0"/>
        <pt x="541" y="616" on="1"/>
        <pt x="547" y="616" on="1"/>
        <pt x="706" y="616" on="0"/>
        <pt x="893" y="782" on="0"/>
      </contour>
    </TTGlyph>
    <TTGlyph name="Q" xMin="80" yMin="-371" xMax="1434" yMax="1407">
      <contour>
        <pt x="1434" y="686" on="1"/>
        <pt x="1434" y="502" on="0"/>
        <pt x="1299" y="202" on="0"/>
        <pt x="1046" y="6" on="0"/>
        <pt x="868" y="-23" on="1"/>
        <pt x="870" y="-138" on="0"/>
        <pt x="1010" y="-270" on="0"/>
        <pt x="1151" y="-270" on="1"/>
        <pt x="1222" y="-270" on="0"/>
        <pt x="1326" y="-253" on="0"/>
        <pt x="1344" y="-249" on="1"/>
        <pt x="1345" y="-249" on="0"/>
        <pt x="1347" y="-248" on="0"/>
        <pt x="1348" y="-248" on="1"/>
        <pt x="1348" y="-336" on="1"/>
        <pt x="1347" y="-336" on="0"/>
        <pt x="1345" y="-337" on="0"/>
        <pt x="1343" y="-337" on="1"/>
        <pt x="1315" y="-343" on="0"/>
        <pt x="1147" y="-371" on="0"/>
        <pt x="1044" y="-371" on="1"/>
        <pt x="828" y="-371" on="0"/>
        <pt x="649" y="-185" on="0"/>
        <pt x="649" y="-27" on="1"/>
        <pt x="486" y="-3" on="0"/>
        <pt x="228" y="182" on="0"/>
        <pt x="80" y="486" on="0"/>
        <pt x="80" y="686" on="1"/>
        <pt x="80" y="836" on="0"/>
        <pt x="175" y="1098" on="0"/>
        <pt x="352" y="1296" on="0"/>
        <pt x="600" y="1407" on="0"/>
        <pt x="754" y="1407" on="1"/>
        <pt x="962" y="1407" on="0"/>
        <pt x="1267" y="1215" on="0"/>
        <pt x="1434" y="888" on="0"/>
      </contour>
      <contour>
        <pt x="1192" y="686" on="1"/>
        <pt x="1192" y="847" on="0"/>
        <pt x="1099" y="1123" on="0"/>
        <pt x="907" y="1292" on="0"/>
        <pt x="756" y="1292" on="1"/>
        <pt x="607" y="1292" on="0"/>
        <pt x="413" y="1127" on="0"/>
        <pt x="319" y="853" on="0"/>
        <pt x="319" y="690" on="1"/>
        <pt x="319" y="530" on="0"/>
        <pt x="415" y="251" on="0"/>
        <pt x="610" y="80" on="0"/>
        <pt x="756" y="80" on="1"/>
        <pt x="904" y="80" on="0"/>
        <pt x="1097" y="249" on="0"/>
        <pt x="1192" y="526" on="0"/>
      </contour>
    </TTGlyph>
    <TTGlyph name="R" xMin="66" yMin="-33" xMax="1329" yMax="1374">
      <contour>
        <pt x="1329" y="-6" on="1"/>
        <pt x="1316" y="-7" on="0"/>
        <pt x="1240" y="-33" on="0"/>
        <pt x="1194" y="-33" on="1"/>
        <pt x="1089" y="-33" on="0"/>
        <pt x="966" y="37" on="0"/>
        <pt x="899" y="152" on="0"/>
        <pt x="860" y="290" on="0"/>
        <pt x="820" y="427" on="0"/>
        <pt x="750" y="542" on="0"/>
        <pt x="624" y="612" on="0"/>
        <pt x="516" y="612" on="1"/>
        <pt x="484" y="612" on="0"/>
        <pt x="427" y="608" on="0"/>
        <pt x="424" y="608" on="1"/>
        <pt x="424" y="141" on="1"/>
        <pt x="424" y="126" on="0"/>
        <pt x="445" y="98" on="0"/>
        <pt x="467" y="96" on="1"/>
        <pt x="575" y="88" on="1"/>
        <pt x="575" y="0" on="1"/>
        <pt x="66" y="0" on="1"/>
        <pt x="66" y="88" on="1"/>
        <pt x="172" y="96" on="1"/>
        <pt x="194" y="98" on="0"/>
        <pt x="217" y="126" on="0"/>
        <pt x="217" y="141" on="1"/>
        <pt x="217" y="1233" on="1"/>
        <pt x="217" y="1248" on="0"/>
        <pt x="194" y="1277" on="0"/>
        <pt x="172" y="1278" on="1"/>
        <pt x="66" y="1286" on="1"/>
        <pt x="66" y="1374" on="1"/>
        <pt x="600" y="1374" on="1"/>
        <pt x="833" y="1374" on="0"/>
        <pt x="1102" y="1213" on="0"/>
        <pt x="1102" y="1010" on="1"/>
        <pt x="1102" y="903" on="0"/>
        <pt x="1006" y="766" on="0"/>
        <pt x="853" y="688" on="0"/>
        <pt x="766" y="668" on="1"/>
        <pt x="861" y="645" on="0"/>
        <pt x="968" y="560" on="0"/>
        <pt x="1020" y="452" on="0"/>
        <pt x="1046" y="336" on="0"/>
        <pt x="1072" y="226" on="0"/>
        <pt x="1125" y="138" on="0"/>
        <pt x="1233" y="86" on="0"/>
        <pt x="1329" y="86" on="1"/>
      </contour>
      <contour>
        <pt x="879" y="1001" on="1"/>
        <pt x="879" y="1132" on="0"/>
        <pt x="712" y="1274" on="0"/>
        <pt x="518" y="1274" on="1"/>
        <pt x="424" y="1274" on="1"/>
        <pt x="424" y="713" on="1"/>
        <pt x="429" y="713" on="0"/>
        <pt x="502" y="711" on="0"/>
        <pt x="526" y="711" on="1"/>
        <pt x="697" y="711" on="0"/>
        <pt x="879" y="837" on="0"/>
      </contour>
    </TTGlyph>
    <TTGlyph name="S" xMin="80" yMin="-33" xMax="987" yMax="1407">
      <contour>
        <pt x="987" y="385" on="1"/>
        <pt x="987" y="282" on="0"/>
        <pt x="876" y="90" on="0"/>
        <pt x="637" y="-33" on="0"/>
        <pt x="444" y="-33" on="1"/>
        <pt x="334" y="-33" on="0"/>
        <pt x="170" y="5" on="0"/>
        <pt x="80" y="43" on="0"/>
        <pt x="80" y="43" on="1"/>
        <pt x="80" y="406" on="1"/>
        <pt x="209" y="406" on="1"/>
        <pt x="236" y="174" on="1"/>
        <pt x="238" y="162" on="0"/>
        <pt x="260" y="134" on="0"/>
        <pt x="270" y="129" on="1"/>
        <pt x="275" y="128" on="0"/>
        <pt x="382" y="82" on="0"/>
        <pt x="477" y="82" on="1"/>
        <pt x="608" y="82" on="0"/>
        <pt x="778" y="210" on="0"/>
        <pt x="778" y="324" on="1"/>
        <pt x="778" y="386" on="0"/>
        <pt x="709" y="479" on="0"/>
        <pt x="599" y="551" on="0"/>
        <pt x="474" y="610" on="0"/>
        <pt x="418" y="637" on="1"/>
        <pt x="334" y="677" on="0"/>
        <pt x="190" y="768" on="0"/>
        <pt x="102" y="902" on="0"/>
        <pt x="102" y="1006" on="1"/>
        <pt x="102" y="1128" on="0"/>
        <pt x="226" y="1308" on="0"/>
        <pt x="440" y="1407" on="0"/>
        <pt x="575" y="1407" on="1"/>
        <pt x="685" y="1407" on="0"/>
        <pt x="853" y="1364" on="0"/>
        <pt x="918" y="1343" on="1"/>
        <pt x="936" y="1337" on="1"/>
        <pt x="936" y="1018" on="1"/>
        <pt x="819" y="1018" on="1"/>
        <pt x="788" y="1214" on="1"/>
        <pt x="786" y="1228" on="0"/>
        <pt x="765" y="1241" on="0"/>
        <pt x="756" y="1250" on="1"/>
        <pt x="748" y="1256" on="0"/>
        <pt x="665" y="1296" on="0"/>
        <pt x="578" y="1296" on="1"/>
        <pt x="455" y="1296" on="0"/>
        <pt x="313" y="1159" on="0"/>
        <pt x="313" y="1055" on="1"/>
        <pt x="313" y="961" on="0"/>
        <pt x="460" y="837" on="0"/>
        <pt x="598" y="784" on="1"/>
        <pt x="784" y="714" on="0"/>
        <pt x="987" y="539" on="0"/>
      </contour>
    </TTGlyph>
    <TTGlyph name="Scaron" xMin="80" yMin="-33" xMax="987" yMax="1872">
      <contour>
        <pt x="889" y="1872" on="1"/>
        <pt x="631" y="1524" on="1"/>
        <pt x="477" y="1524" on="1"/>
        <pt x="219" y="1872" on="1"/>
        <pt x="342" y="1872" on="1"/>
        <pt x="555" y="1667" on="1"/>
        <pt x="766" y="1872" on="1"/>
      </contour>
      <contour>
        <pt x="987" y="385" on="1"/>
        <pt x="987" y="282" on="0"/>
        <pt x="876" y="90" on="0"/>
        <pt x="637" y="-33" on="0"/>
        <pt x="444" y="-33" on="1"/>
        <pt x="334" y="-33" on="0"/>
        <pt x="170" y="5" on="0"/>
        <pt x="80" y="43" on="0"/>
        <pt x="80" y="43" on="1"/>
        <pt x="80" y="406" on="1"/>
        <pt x="209" y="406" on="1"/>
        <pt x="236" y="174" on="1"/>
        <pt x="238" y="162" on="0"/>
        <pt x="260" y="134" on="0"/>
        <pt x="270" y="129" on="1"/>
        <pt x="275" y="128" on="0"/>
        <pt x="382" y="82" on="0"/>
        <pt x="477" y="82" on="1"/>
        <pt x="608" y="82" on="0"/>
        <pt x="778" y="210" on="0"/>
        <pt x="778" y="324" on="1"/>
        <pt x="778" y="386" on="0"/>
        <pt x="709" y="479" on="0"/>
        <pt x="599" y="551" on="0"/>
        <pt x="474" y="610" on="0"/>
        <pt x="418" y="637" on="1"/>
        <pt x="334" y="677" on="0"/>
        <pt x="190" y="768" on="0"/>
        <pt x="102" y="902" on="0"/>
        <pt x="102" y="1006" on="1"/>
        <pt x="102" y="1128" on="0"/>
        <pt x="226" y="1308" on="0"/>
        <pt x="440" y="1407" on="0"/>
        <pt x="575" y="1407" on="1"/>
        <pt x="685" y="1407" on="0"/>
        <pt x="853" y="1364" on="0"/>
        <pt x="918" y="1343" on="1"/>
        <pt x="936" y="1337" on="1"/>
        <pt x="936" y="1018" on="1"/>
        <pt x="819" y="1018" on="1"/>
        <pt x="788" y="1214" on="1"/>
        <pt x="786" y="1228" on="0"/>
        <pt x="765" y="1241" on="0"/>
        <pt x="756" y="1250" on="1"/>
        <pt x="748" y="1256" on="0"/>
        <pt x="665" y="1296" on="0"/>
        <pt x="578" y="1296" on="1"/>
        <pt x="455" y="1296" on="0"/>
        <pt x="313" y="1159" on="0"/>
        <pt x="313" y="1055" on="1"/>
        <pt x="313" y="961" on="0"/>
        <pt x="460" y="837" on="0"/>
        <pt x="598" y="784" on="1"/>
        <pt x="784" y="714" on="0"/>
        <pt x="987" y="539" on="0"/>
      </contour>
    </TTGlyph>
    <TTGlyph name="T" xMin="33" yMin="0" xMax="1194" yMax="1374">
      <contour>
        <pt x="1194" y="1047" on="1"/>
        <pt x="1073" y="1047" on="1"/>
        <pt x="1044" y="1239" on="1"/>
        <pt x="1037" y="1274" on="0"/>
        <pt x="1010" y="1274" on="1"/>
        <pt x="717" y="1274" on="1"/>
        <pt x="717" y="141" on="1"/>
        <pt x="717" y="126" on="0"/>
        <pt x="738" y="98" on="0"/>
        <pt x="760" y="96" on="1"/>
        <pt x="891" y="88" on="1"/>
        <pt x="891" y="0" on="1"/>
        <pt x="336" y="0" on="1"/>
        <pt x="336" y="88" on="1"/>
        <pt x="467" y="96" on="1"/>
        <pt x="489" y="98" on="0"/>
        <pt x="510" y="126" on="0"/>
        <pt x="510" y="141" on="1"/>
        <pt x="510" y="1274" on="1"/>
        <pt x="215" y="1274" on="1"/>
        <pt x="185" y="1274" on="0"/>
        <pt x="180" y="1239" on="1"/>
        <pt x="152" y="1047" on="1"/>
        <pt x="33" y="1047" on="1"/>
        <pt x="33" y="1374" on="1"/>
        <pt x="1194" y="1374" on="1"/>
      </contour>
    </TTGlyph>
    <TTGlyph name="Thorn" xMin="66" yMin="0" xMax="1104" yMax="1374">
      <contour>
        <pt x="1104" y="709" on="1"/>
        <pt x="1104" y="568" on="0"/>
        <pt x="969" y="372" on="0"/>
        <pt x="731" y="270" on="0"/>
        <pt x="575" y="270" on="1"/>
        <pt x="569" y="270" on="1"/>
        <pt x="541" y="270" on="0"/>
        <pt x="473" y="276" on="0"/>
        <pt x="424" y="281" on="0"/>
        <pt x="424" y="281" on="1"/>
        <pt x="424" y="141" on="1"/>
        <pt x="424" y="123" on="0"/>
        <pt x="450" y="98" on="0"/>
        <pt x="469" y="96" on="1"/>
        <pt x="588" y="88" on="1"/>
        <pt x="588" y="0" on="1"/>
        <pt x="66" y="0" on="1"/>
        <pt x="66" y="88" on="1"/>
        <pt x="170" y="96" on="1"/>
        <pt x="189" y="98" on="0"/>
        <pt x="215" y="123" on="0"/>
        <pt x="215" y="141" on="1"/>
        <pt x="215" y="1233" on="1"/>
        <pt x="215" y="1251" on="0"/>
        <pt x="189" y="1277" on="0"/>
        <pt x="170" y="1278" on="1"/>
        <pt x="66" y="1286" on="1"/>
        <pt x="66" y="1374" on="1"/>
        <pt x="588" y="1374" on="1"/>
        <pt x="588" y="1286" on="1"/>
        <pt x="469" y="1278" on="1"/>
        <pt x="450" y="1277" on="0"/>
        <pt x="424" y="1251" on="0"/>
        <pt x="424" y="1233" on="1"/>
        <pt x="424" y="1116" on="1"/>
        <pt x="563" y="1116" on="1"/>
        <pt x="843" y="1112" on="0"/>
        <pt x="1104" y="925" on="0"/>
      </contour>
      <contour>
        <pt x="870" y="709" on="1"/>
        <pt x="870" y="856" on="0"/>
        <pt x="731" y="1021" on="0"/>
        <pt x="551" y="1021" on="1"/>
        <pt x="544" y="1021" on="0"/>
        <pt x="528" y="1020" on="0"/>
        <pt x="520" y="1020" on="1"/>
        <pt x="519" y="1021" on="0"/>
        <pt x="508" y="1021" on="1"/>
        <pt x="489" y="1021" on="0"/>
        <pt x="424" y="1016" on="0"/>
        <pt x="424" y="1016" on="1"/>
        <pt x="424" y="383" on="1"/>
        <pt x="424" y="383" on="0"/>
        <pt x="467" y="379" on="0"/>
        <pt x="524" y="375" on="0"/>
        <pt x="543" y="375" on="1"/>
        <pt x="549" y="375" on="1"/>
        <pt x="710" y="375" on="0"/>
        <pt x="870" y="537" on="0"/>
      </contour>
    </TTGlyph>
    <TTGlyph name="U" xMin="63" yMin="-33" xMax="1403" yMax="1374">
      <contour>
        <pt x="1403" y="1286" on="1"/>
        <pt x="1284" y="1278" on="1"/>
        <pt x="1262" y="1277" on="0"/>
        <pt x="1241" y="1248" on="0"/>
        <pt x="1241" y="1233" on="1"/>
        <pt x="1241" y="455" on="1"/>
        <pt x="1241" y="203" on="0"/>
        <pt x="972" y="-33" on="0"/>
        <pt x="715" y="-33" on="1"/>
        <pt x="462" y="-33" on="0"/>
        <pt x="215" y="214" on="0"/>
        <pt x="215" y="455" on="1"/>
        <pt x="215" y="1233" on="1"/>
        <pt x="215" y="1248" on="0"/>
        <pt x="194" y="1277" on="0"/>
        <pt x="172" y="1278" on="1"/>
        <pt x="63" y="1286" on="1"/>
        <pt x="63" y="1374" on="1"/>
        <pt x="584" y="1374" on="1"/>
        <pt x="584" y="1286" on="1"/>
        <pt x="467" y="1278" on="1"/>
        <pt x="445" y="1277" on="0"/>
        <pt x="424" y="1248" on="0"/>
        <pt x="424" y="1233" on="1"/>
        <pt x="424" y="508" on="1"/>
        <pt x="424" y="388" on="0"/>
        <pt x="478" y="206" on="0"/>
        <pt x="628" y="104" on="0"/>
        <pt x="770" y="104" on="1"/>
        <pt x="912" y="104" on="0"/>
        <pt x="1063" y="211" on="0"/>
        <pt x="1120" y="395" on="0"/>
        <pt x="1120" y="508" on="1"/>
        <pt x="1120" y="1233" on="1"/>
        <pt x="1120" y="1248" on="0"/>
        <pt x="1097" y="1277" on="0"/>
        <pt x="1075" y="1278" on="1"/>
        <pt x="958" y="1286" on="1"/>
        <pt x="958" y="1374" on="1"/>
        <pt x="1403" y="1374" on="1"/>
      </contour>
    </TTGlyph>
    <TTGlyph name="Uacute" xMin="63" yMin="-33" xMax="1403" yMax="1896">
      <contour>
        <pt x="1114" y="1806" on="1"/>
        <pt x="1114" y="1753" on="0"/>
        <pt x="1067" y="1722" on="1"/>
        <pt x="756" y="1524" on="1"/>
        <pt x="639" y="1524" on="1"/>
        <pt x="911" y="1841" on="1"/>
        <pt x="933" y="1867" on="0"/>
        <pt x="979" y="1896" on="0"/>
        <pt x="1020" y="1896" on="1"/>
        <pt x="1074" y="1896" on="0"/>
        <pt x="1114" y="1837" on="0"/>
      </contour>
      <contour>
        <pt x="1403" y="1286" on="1"/>
        <pt x="1284" y="1278" on="1"/>
        <pt x="1262" y="1277" on="0"/>
        <pt x="1241" y="1248" on="0"/>
        <pt x="1241" y="1233" on="1"/>
        <pt x="1241" y="455" on="1"/>
        <pt x="1241" y="203" on="0"/>
        <pt x="972" y="-33" on="0"/>
        <pt x="715" y="-33" on="1"/>
        <pt x="462" y="-33" on="0"/>
        <pt x="215" y="214" on="0"/>
        <pt x="215" y="455" on="1"/>
        <pt x="215" y="1233" on="1"/>
        <pt x="215" y="1248" on="0"/>
        <pt x="194" y="1277" on="0"/>
        <pt x="172" y="1278" on="1"/>
        <pt x="63" y="1286" on="1"/>
        <pt x="63" y="1374" on="1"/>
        <pt x="584" y="1374" on="1"/>
        <pt x="584" y="1286" on="1"/>
        <pt x="467" y="1278" on="1"/>
        <pt x="445" y="1277" on="0"/>
        <pt x="424" y="1248" on="0"/>
        <pt x="424" y="1233" on="1"/>
        <pt x="424" y="508" on="1"/>
        <pt x="424" y="388" on="0"/>
        <pt x="478" y="206" on="0"/>
        <pt x="628" y="104" on="0"/>
        <pt x="770" y="104" on="1"/>
        <pt x="912" y="104" on="0"/>
        <pt x="1063" y="211" on="0"/>
        <pt x="1120" y="395" on="0"/>
        <pt x="1120" y="508" on="1"/>
        <pt x="1120" y="1233" on="1"/>
        <pt x="1120" y="1248" on="0"/>
        <pt x="1097" y="1277" on="0"/>
        <pt x="1075" y="1278" on="1"/>
        <pt x="958" y="1286" on="1"/>
        <pt x="958" y="1374" on="1"/>
        <pt x="1403" y="1374" on="1"/>
      </contour>
    </TTGlyph>
    <TTGlyph name="Ucircumflex" xMin="63" yMin="-33" xMax="1403" yMax="1872">
      <contour>
        <pt x="1090" y="1524" on="1"/>
        <pt x="967" y="1524" on="1"/>
        <pt x="754" y="1729" on="1"/>
        <pt x="543" y="1524" on="1"/>
        <pt x="420" y="1524" on="1"/>
        <pt x="678" y="1872" on="1"/>
        <pt x="831" y="1872" on="1"/>
      </contour>
      <contour>
        <pt x="1403" y="1286" on="1"/>
        <pt x="1284" y="1278" on="1"/>
        <pt x="1262" y="1277" on="0"/>
        <pt x="1241" y="1248" on="0"/>
        <pt x="1241" y="1233" on="1"/>
        <pt x="1241" y="455" on="1"/>
        <pt x="1241" y="203" on="0"/>
        <pt x="972" y="-33" on="0"/>
        <pt x="715" y="-33" on="1"/>
        <pt x="462" y="-33" on="0"/>
        <pt x="215" y="214" on="0"/>
        <pt x="215" y="455" on="1"/>
        <pt x="215" y="1233" on="1"/>
        <pt x="215" y="1248" on="0"/>
        <pt x="194" y="1277" on="0"/>
        <pt x="172" y="1278" on="1"/>
        <pt x="63" y="1286" on="1"/>
        <pt x="63" y="1374" on="1"/>
        <pt x="584" y="1374" on="1"/>
        <pt x="584" y="1286" on="1"/>
        <pt x="467" y="1278" on="1"/>
        <pt x="445" y="1277" on="0"/>
        <pt x="424" y="1248" on="0"/>
        <pt x="424" y="1233" on="1"/>
        <pt x="424" y="508" on="1"/>
        <pt x="424" y="388" on="0"/>
        <pt x="478" y="206" on="0"/>
        <pt x="628" y="104" on="0"/>
        <pt x="770" y="104" on="1"/>
        <pt x="912" y="104" on="0"/>
        <pt x="1063" y="211" on="0"/>
        <pt x="1120" y="395" on="0"/>
        <pt x="1120" y="508" on="1"/>
        <pt x="1120" y="1233" on="1"/>
        <pt x="1120" y="1248" on="0"/>
        <pt x="1097" y="1277" on="0"/>
        <pt x="1075" y="1278" on="1"/>
        <pt x="958" y="1286" on="1"/>
        <pt x="958" y="1374" on="1"/>
        <pt x="1403" y="1374" on="1"/>
      </contour>
    </TTGlyph>
    <TTGlyph name="Udieresis" xMin="63" yMin="-33" xMax="1403" yMax="1815">
      <contour>
        <pt x="1085" y="1702" on="1"/>
        <pt x="1085" y="1656" on="0"/>
        <pt x="1021" y="1587" on="0"/>
        <pt x="975" y="1587" on="1"/>
        <pt x="929" y="1587" on="0"/>
        <pt x="862" y="1656" on="0"/>
        <pt x="862" y="1702" on="1"/>
        <pt x="862" y="1745" on="0"/>
        <pt x="930" y="1815" on="0"/>
        <pt x="973" y="1815" on="1"/>
        <pt x="1019" y="1815" on="0"/>
        <pt x="1085" y="1748" on="0"/>
      </contour>
      <contour>
        <pt x="662" y="1702" on="1"/>
        <pt x="662" y="1656" on="0"/>
        <pt x="595" y="1587" on="0"/>
        <pt x="549" y="1587" on="1"/>
        <pt x="504" y="1587" on="0"/>
        <pt x="438" y="1655" on="0"/>
        <pt x="438" y="1700" on="1"/>
        <pt x="438" y="1744" on="0"/>
        <pt x="504" y="1815" on="0"/>
        <pt x="549" y="1815" on="1"/>
        <pt x="595" y="1815" on="0"/>
        <pt x="662" y="1748" on="0"/>
      </contour>
      <contour>
        <pt x="1403" y="1286" on="1"/>
        <pt x="1284" y="1278" on="1"/>
        <pt x="1262" y="1277" on="0"/>
        <pt x="1241" y="1248" on="0"/>
        <pt x="1241" y="1233" on="1"/>
        <pt x="1241" y="455" on="1"/>
        <pt x="1241" y="203" on="0"/>
        <pt x="972" y="-33" on="0"/>
        <pt x="715" y="-33" on="1"/>
        <pt x="462" y="-33" on="0"/>
        <pt x="215" y="214" on="0"/>
        <pt x="215" y="455" on="1"/>
        <pt x="215" y="1233" on="1"/>
        <pt x="215" y="1248" on="0"/>
        <pt x="194" y="1277" on="0"/>
        <pt x="172" y="1278" on="1"/>
        <pt x="63" y="1286" on="1"/>
        <pt x="63" y="1374" on="1"/>
        <pt x="584" y="1374" on="1"/>
        <pt x="584" y="1286" on="1"/>
        <pt x="467" y="1278" on="1"/>
        <pt x="445" y="1277" on="0"/>
        <pt x="424" y="1248" on="0"/>
        <pt x="424" y="1233" on="1"/>
        <pt x="424" y="508" on="1"/>
        <pt x="424" y="388" on="0"/>
        <pt x="478" y="206" on="0"/>
        <pt x="628" y="104" on="0"/>
        <pt x="770" y="104" on="1"/>
        <pt x="912" y="104" on="0"/>
        <pt x="1063" y="211" on="0"/>
        <pt x="1120" y="395" on="0"/>
        <pt x="1120" y="508" on="1"/>
        <pt x="1120" y="1233" on="1"/>
        <pt x="1120" y="1248" on="0"/>
        <pt x="1097" y="1277" on="0"/>
        <pt x="1075" y="1278" on="1"/>
        <pt x="958" y="1286" on="1"/>
        <pt x="958" y="1374" on="1"/>
        <pt x="1403" y="1374" on="1"/>
      </contour>
    </TTGlyph>
    <TTGlyph name="Ugrave" xMin="63" yMin="-33" xMax="1403" yMax="1896">
      <contour>
        <pt x="866" y="1524" on="1"/>
        <pt x="750" y="1524" on="1"/>
        <pt x="438" y="1722" on="1"/>
        <pt x="417" y="1736" on="0"/>
        <pt x="391" y="1778" on="0"/>
        <pt x="391" y="1806" on="1"/>
        <pt x="391" y="1837" on="0"/>
        <pt x="432" y="1896" on="0"/>
        <pt x="485" y="1896" on="1"/>
        <pt x="527" y="1896" on="0"/>
        <pt x="570" y="1867" on="0"/>
        <pt x="592" y="1841" on="1"/>
      </contour>
      <contour>
        <pt x="1403" y="1286" on="1"/>
        <pt x="1284" y="1278" on="1"/>
        <pt x="1262" y="1277" on="0"/>
        <pt x="1241" y="1248" on="0"/>
        <pt x="1241" y="1233" on="1"/>
        <pt x="1241" y="455" on="1"/>
        <pt x="1241" y="203" on="0"/>
        <pt x="972" y="-33" on="0"/>
        <pt x="715" y="-33" on="1"/>
        <pt x="462" y="-33" on="0"/>
        <pt x="215" y="214" on="0"/>
        <pt x="215" y="455" on="1"/>
        <pt x="215" y="1233" on="1"/>
        <pt x="215" y="1248" on="0"/>
        <pt x="194" y="1277" on="0"/>
        <pt x="172" y="1278" on="1"/>
        <pt x="63" y="1286" on="1"/>
        <pt x="63" y="1374" on="1"/>
        <pt x="584" y="1374" on="1"/>
        <pt x="584" y="1286" on="1"/>
        <pt x="467" y="1278" on="1"/>
        <pt x="445" y="1277" on="0"/>
        <pt x="424" y="1248" on="0"/>
        <pt x="424" y="1233" on="1"/>
        <pt x="424" y="508" on="1"/>
        <pt x="424" y="388" on="0"/>
        <pt x="478" y="206" on="0"/>
        <pt x="628" y="104" on="0"/>
        <pt x="770" y="104" on="1"/>
        <pt x="912" y="104" on="0"/>
        <pt x="1063" y="211" on="0"/>
        <pt x="1120" y="395" on="0"/>
        <pt x="1120" y="508" on="1"/>
        <pt x="1120" y="1233" on="1"/>
        <pt x="1120" y="1248" on="0"/>
        <pt x="1097" y="1277" on="0"/>
        <pt x="1075" y="1278" on="1"/>
        <pt x="958" y="1286" on="1"/>
        <pt x="958" y="1374" on="1"/>
        <pt x="1403" y="1374" on="1"/>
      </contour>
    </TTGlyph>
    <TTGlyph name="V" xMin="20" yMin="-33" xMax="1343" yMax="1374">
      <contour>
        <pt x="1343" y="1286" on="1"/>
        <pt x="1225" y="1264" on="1"/>
        <pt x="766" y="-33" on="1"/>
        <pt x="610" y="-33" on="1"/>
        <pt x="141" y="1266" on="1"/>
        <pt x="20" y="1286" on="1"/>
        <pt x="20" y="1374" on="1"/>
        <pt x="510" y="1374" on="1"/>
        <pt x="510" y="1286" on="1"/>
        <pt x="389" y="1276" on="1"/>
        <pt x="380" y="1275" on="0"/>
        <pt x="370" y="1255" on="0"/>
        <pt x="370" y="1246" on="1"/>
        <pt x="370" y="1241" on="0"/>
        <pt x="371" y="1239" on="1"/>
        <pt x="731" y="227" on="1"/>
        <pt x="1077" y="1235" on="1"/>
        <pt x="1078" y="1237" on="0"/>
        <pt x="1078" y="1242" on="1"/>
        <pt x="1078" y="1253" on="0"/>
        <pt x="1060" y="1275" on="0"/>
        <pt x="1049" y="1276" on="1"/>
        <pt x="936" y="1286" on="1"/>
        <pt x="936" y="1374" on="1"/>
        <pt x="1343" y="1374" on="1"/>
      </contour>
    </TTGlyph>
    <TTGlyph name="W" xMin="20" yMin="-33" xMax="1886" yMax="1374">
      <contour>
        <pt x="1886" y="1286" on="1"/>
        <pt x="1761" y="1262" on="1"/>
        <pt x="1448" y="-33" on="1"/>
        <pt x="1298" y="-33" on="1"/>
        <pt x="956" y="1102" on="1"/>
        <pt x="621" y="-33" on="1"/>
        <pt x="473" y="-33" on="1"/>
        <pt x="139" y="1262" on="1"/>
        <pt x="20" y="1286" on="1"/>
        <pt x="20" y="1374" on="1"/>
        <pt x="489" y="1374" on="1"/>
        <pt x="489" y="1286" on="1"/>
        <pt x="367" y="1274" on="1"/>
        <pt x="344" y="1271" on="0"/>
        <pt x="344" y="1244" on="1"/>
        <pt x="344" y="1241" on="0"/>
        <pt x="346" y="1233" on="1"/>
        <pt x="590" y="309" on="1"/>
        <pt x="911" y="1374" on="1"/>
        <pt x="1069" y="1374" on="1"/>
        <pt x="1399" y="276" on="1"/>
        <pt x="1626" y="1233" on="1"/>
        <pt x="1627" y="1235" on="0"/>
        <pt x="1627" y="1240" on="1"/>
        <pt x="1627" y="1271" on="0"/>
        <pt x="1597" y="1274" on="1"/>
        <pt x="1468" y="1286" on="1"/>
        <pt x="1468" y="1374" on="1"/>
        <pt x="1886" y="1374" on="1"/>
      </contour>
    </TTGlyph>
    <TTGlyph name="X" xMin="20" yMin="0" xMax="1278" yMax="1374">
      <contour>
        <pt x="1278" y="0" on="1"/>
        <pt x="752" y="0" on="1"/>
        <pt x="752" y="88" on="1"/>
        <pt x="870" y="100" on="1"/>
        <pt x="899" y="104" on="0"/>
        <pt x="899" y="129" on="1"/>
        <pt x="899" y="136" on="0"/>
        <pt x="895" y="143" on="1"/>
        <pt x="623" y="571" on="1"/>
        <pt x="307" y="137" on="1"/>
        <pt x="302" y="129" on="0"/>
        <pt x="302" y="121" on="1"/>
        <pt x="302" y="101" on="0"/>
        <pt x="332" y="98" on="1"/>
        <pt x="455" y="88" on="1"/>
        <pt x="455" y="0" on="1"/>
        <pt x="20" y="0" on="1"/>
        <pt x="20" y="88" on="1"/>
        <pt x="143" y="113" on="1"/>
        <pt x="555" y="678" on="1"/>
        <pt x="182" y="1262" on="1"/>
        <pt x="47" y="1286" on="1"/>
        <pt x="47" y="1374" on="1"/>
        <pt x="561" y="1374" on="1"/>
        <pt x="561" y="1286" on="1"/>
        <pt x="457" y="1276" on="1"/>
        <pt x="427" y="1275" on="0"/>
        <pt x="427" y="1252" on="1"/>
        <pt x="427" y="1243" on="0"/>
        <pt x="432" y="1235" on="1"/>
        <pt x="682" y="850" on="1"/>
        <pt x="958" y="1229" on="1"/>
        <pt x="964" y="1237" on="0"/>
        <pt x="964" y="1245" on="1"/>
        <pt x="964" y="1270" on="0"/>
        <pt x="936" y="1272" on="1"/>
        <pt x="831" y="1286" on="1"/>
        <pt x="831" y="1374" on="1"/>
        <pt x="1260" y="1374" on="1"/>
        <pt x="1260" y="1286" on="1"/>
        <pt x="1128" y="1266" on="1"/>
        <pt x="748" y="743" on="1"/>
        <pt x="1151" y="113" on="1"/>
        <pt x="1278" y="88" on="1"/>
      </contour>
    </TTGlyph>
    <TTGlyph name="Y" xMin="20" yMin="0" xMax="1262" yMax="1374">
      <contour>
        <pt x="1262" y="1286" on="1"/>
        <pt x="1151" y="1266" on="1"/>
        <pt x="739" y="584" on="1"/>
        <pt x="739" y="141" on="1"/>
        <pt x="739" y="126" on="0"/>
        <pt x="761" y="98" on="0"/>
        <pt x="782" y="96" on="1"/>
        <pt x="913" y="88" on="1"/>
        <pt x="913" y="0" on="1"/>
        <pt x="360" y="0" on="1"/>
        <pt x="360" y="88" on="1"/>
        <pt x="487" y="96" on="1"/>
        <pt x="509" y="98" on="0"/>
        <pt x="532" y="126" on="0"/>
        <pt x="532" y="141" on="1"/>
        <pt x="532" y="553" on="1"/>
        <pt x="139" y="1262" on="1"/>
        <pt x="20" y="1286" on="1"/>
        <pt x="20" y="1374" on="1"/>
        <pt x="506" y="1374" on="1"/>
        <pt x="506" y="1286" on="1"/>
        <pt x="403" y="1276" on="1"/>
        <pt x="375" y="1272" on="0"/>
        <pt x="375" y="1252" on="1"/>
        <pt x="375" y="1242" on="0"/>
        <pt x="379" y="1235" on="1"/>
        <pt x="668" y="700" on="1"/>
        <pt x="985" y="1229" on="1"/>
        <pt x="989" y="1236" on="0"/>
        <pt x="989" y="1243" on="1"/>
        <pt x="989" y="1268" on="0"/>
        <pt x="961" y="1272" on="1"/>
        <pt x="846" y="1286" on="1"/>
        <pt x="846" y="1374" on="1"/>
        <pt x="1262" y="1374" on="1"/>
      </contour>
    </TTGlyph>
    <TTGlyph name="Yacute" xMin="20" yMin="0" xMax="1262" yMax="1896">
      <contour>
        <pt x="975" y="1806" on="1"/>
        <pt x="975" y="1751" on="0"/>
        <pt x="928" y="1722" on="1"/>
        <pt x="616" y="1524" on="1"/>
        <pt x="500" y="1524" on="1"/>
        <pt x="772" y="1841" on="1"/>
        <pt x="794" y="1867" on="0"/>
        <pt x="839" y="1896" on="0"/>
        <pt x="881" y="1896" on="1"/>
        <pt x="934" y="1896" on="0"/>
        <pt x="975" y="1837" on="0"/>
      </contour>
      <contour>
        <pt x="1262" y="1286" on="1"/>
        <pt x="1151" y="1266" on="1"/>
        <pt x="739" y="584" on="1"/>
        <pt x="739" y="141" on="1"/>
        <pt x="739" y="126" on="0"/>
        <pt x="761" y="98" on="0"/>
        <pt x="782" y="96" on="1"/>
        <pt x="913" y="88" on="1"/>
        <pt x="913" y="0" on="1"/>
        <pt x="360" y="0" on="1"/>
        <pt x="360" y="88" on="1"/>
        <pt x="487" y="96" on="1"/>
        <pt x="509" y="98" on="0"/>
        <pt x="532" y="126" on="0"/>
        <pt x="532" y="141" on="1"/>
        <pt x="532" y="553" on="1"/>
        <pt x="139" y="1262" on="1"/>
        <pt x="20" y="1286" on="1"/>
        <pt x="20" y="1374" on="1"/>
        <pt x="506" y="1374" on="1"/>
        <pt x="506" y="1286" on="1"/>
        <pt x="403" y="1276" on="1"/>
        <pt x="375" y="1272" on="0"/>
        <pt x="375" y="1252" on="1"/>
        <pt x="375" y="1242" on="0"/>
        <pt x="379" y="1235" on="1"/>
        <pt x="668" y="700" on="1"/>
        <pt x="985" y="1229" on="1"/>
        <pt x="989" y="1236" on="0"/>
        <pt x="989" y="1243" on="1"/>
        <pt x="989" y="1268" on="0"/>
        <pt x="961" y="1272" on="1"/>
        <pt x="846" y="1286" on="1"/>
        <pt x="846" y="1374" on="1"/>
        <pt x="1262" y="1374" on="1"/>
      </contour>
    </TTGlyph>
    <TTGlyph name="Ydieresis" xMin="20" yMin="0" xMax="1260" yMax="1815">
      <contour>
        <pt x="991" y="1702" on="1"/>
        <pt x="991" y="1656" on="0"/>
        <pt x="925" y="1587" on="0"/>
        <pt x="879" y="1587" on="1"/>
        <pt x="833" y="1587" on="0"/>
        <pt x="768" y="1656" on="0"/>
        <pt x="768" y="1702" on="1"/>
        <pt x="768" y="1745" on="0"/>
        <pt x="836" y="1815" on="0"/>
        <pt x="879" y="1815" on="1"/>
        <pt x="925" y="1815" on="0"/>
        <pt x="991" y="1748" on="0"/>
      </contour>
      <contour>
        <pt x="565" y="1702" on="1"/>
        <pt x="565" y="1656" on="0"/>
        <pt x="499" y="1587" on="0"/>
        <pt x="453" y="1587" on="1"/>
        <pt x="408" y="1587" on="0"/>
        <pt x="342" y="1655" on="0"/>
        <pt x="342" y="1700" on="1"/>
        <pt x="342" y="1744" on="0"/>
        <pt x="410" y="1815" on="0"/>
        <pt x="455" y="1815" on="1"/>
        <pt x="501" y="1815" on="0"/>
        <pt x="565" y="1748" on="0"/>
      </contour>
      <contour>
        <pt x="1260" y="1288" on="1"/>
        <pt x="1149" y="1268" on="1"/>
        <pt x="737" y="584" on="1"/>
        <pt x="737" y="141" on="1"/>
        <pt x="737" y="126" on="0"/>
        <pt x="759" y="98" on="0"/>
        <pt x="780" y="96" on="1"/>
        <pt x="911" y="88" on="1"/>
        <pt x="911" y="0" on="1"/>
        <pt x="360" y="0" on="1"/>
        <pt x="360" y="88" on="1"/>
        <pt x="487" y="96" on="1"/>
        <pt x="509" y="98" on="0"/>
        <pt x="532" y="126" on="0"/>
        <pt x="532" y="141" on="1"/>
        <pt x="532" y="553" on="1"/>
        <pt x="139" y="1264" on="1"/>
        <pt x="20" y="1288" on="1"/>
        <pt x="20" y="1374" on="1"/>
        <pt x="506" y="1374" on="1"/>
        <pt x="506" y="1288" on="1"/>
        <pt x="407" y="1278" on="1"/>
        <pt x="375" y="1273" on="0"/>
        <pt x="375" y="1254" on="1"/>
        <pt x="375" y="1244" on="0"/>
        <pt x="379" y="1237" on="1"/>
        <pt x="666" y="700" on="1"/>
        <pt x="983" y="1231" on="1"/>
        <pt x="987" y="1238" on="0"/>
        <pt x="987" y="1245" on="1"/>
        <pt x="987" y="1270" on="0"/>
        <pt x="958" y="1274" on="1"/>
        <pt x="844" y="1288" on="1"/>
        <pt x="844" y="1374" on="1"/>
        <pt x="1260" y="1374" on="1"/>
      </contour>
    </TTGlyph>
    <TTGlyph name="Z" xMin="80" yMin="0" xMax="1098" yMax="1374">
      <contour>
        <pt x="1098" y="0" on="1"/>
        <pt x="80" y="0" on="1"/>
        <pt x="80" y="90" on="1"/>
        <pt x="842" y="1272" on="1"/>
        <pt x="309" y="1272" on="1"/>
        <pt x="283" y="1272" on="0"/>
        <pt x="274" y="1237" on="1"/>
        <pt x="244" y="1047" on="1"/>
        <pt x="123" y="1047" on="1"/>
        <pt x="123" y="1374" on="1"/>
        <pt x="1087" y="1374" on="1"/>
        <pt x="1087" y="1280" on="1"/>
        <pt x="324" y="104" on="1"/>
        <pt x="907" y="104" on="1"/>
        <pt x="921" y="104" on="0"/>
        <pt x="940" y="126" on="0"/>
        <pt x="942" y="141" on="1"/>
        <pt x="977" y="379" on="1"/>
        <pt x="1098" y="379" on="1"/>
      </contour>
    </TTGlyph>
    <TTGlyph name="Zcaron" xMin="80" yMin="0" xMax="1098" yMax="1875">
      <contour>
        <pt x="1098" y="0" on="1"/>
        <pt x="80" y="0" on="1"/>
        <pt x="80" y="90" on="1"/>
        <pt x="842" y="1272" on="1"/>
        <pt x="309" y="1272" on="1"/>
        <pt x="283" y="1272" on="0"/>
        <pt x="274" y="1237" on="1"/>
        <pt x="244" y="1047" on="1"/>
        <pt x="123" y="1047" on="1"/>
        <pt x="123" y="1374" on="1"/>
        <pt x="1087" y="1374" on="1"/>
        <pt x="1087" y="1280" on="1"/>
        <pt x="324" y="104" on="1"/>
        <pt x="907" y="104" on="1"/>
        <pt x="921" y="104" on="0"/>
        <pt x="940" y="126" on="0"/>
        <pt x="942" y="141" on="1"/>
        <pt x="977" y="379" on="1"/>
        <pt x="1098" y="379" on="1"/>
      </contour>
      <contour>
        <pt x="945" y="1875" on="1"/>
        <pt x="687" y="1528" on="1"/>
        <pt x="533" y="1528" on="1"/>
        <pt x="275" y="1875" on="1"/>
        <pt x="398" y="1875" on="1"/>
        <pt x="611" y="1672" on="1"/>
        <pt x="822" y="1875" on="1"/>
      </contour>
    </TTGlyph>
    <TTGlyph name="a" xMin="70" yMin="-25" xMax="1008" yMax="1012">
      <contour>
        <pt x="1008" y="0" on="1"/>
        <pt x="705" y="0" on="1"/>
        <pt x="678" y="121" on="1"/>
        <pt x="678" y="121" on="0"/>
        <pt x="617" y="77" on="0"/>
        <pt x="517" y="19" on="0"/>
        <pt x="396" y="-25" on="0"/>
        <pt x="336" y="-25" on="1"/>
        <pt x="225" y="-25" on="0"/>
        <pt x="70" y="123" on="0"/>
        <pt x="70" y="252" on="1"/>
        <pt x="70" y="309" on="0"/>
        <pt x="111" y="407" on="0"/>
        <pt x="234" y="496" on="0"/>
        <pt x="477" y="581" on="0"/>
        <pt x="678" y="625" on="1"/>
        <pt x="678" y="713" on="1"/>
        <pt x="678" y="915" on="0"/>
        <pt x="487" y="915" on="1"/>
        <pt x="434" y="915" on="0"/>
        <pt x="357" y="895" on="0"/>
        <pt x="342" y="889" on="1"/>
        <pt x="342" y="711" on="1"/>
        <pt x="193" y="711" on="1"/>
        <pt x="165" y="711" on="0"/>
        <pt x="117" y="732" on="0"/>
        <pt x="117" y="770" on="1"/>
        <pt x="117" y="854" on="0"/>
        <pt x="245" y="961" on="0"/>
        <pt x="442" y="1012" on="0"/>
        <pt x="543" y="1012" on="1"/>
        <pt x="670" y="1012" on="0"/>
        <pt x="810" y="933" on="0"/>
        <pt x="866" y="794" on="0"/>
        <pt x="866" y="705" on="1"/>
        <pt x="866" y="131" on="1"/>
        <pt x="866" y="112" on="0"/>
        <pt x="891" y="88" on="0"/>
        <pt x="909" y="86" on="1"/>
        <pt x="1008" y="80" on="1"/>
      </contour>
      <contour>
        <pt x="678" y="193" on="1"/>
        <pt x="678" y="547" on="1"/>
        <pt x="540" y="513" on="0"/>
        <pt x="377" y="444" on="0"/>
        <pt x="297" y="375" on="0"/>
        <pt x="272" y="304" on="0"/>
        <pt x="272" y="266" on="1"/>
        <pt x="272" y="203" on="0"/>
        <pt x="353" y="96" on="0"/>
        <pt x="426" y="96" on="1"/>
        <pt x="467" y="96" on="0"/>
        <pt x="555" y="125" on="0"/>
        <pt x="631" y="164" on="0"/>
        <pt x="678" y="193" on="0"/>
      </contour>
    </TTGlyph>
    <TTGlyph name="aacute" xMin="70" yMin="-25" xMax="1008" yMax="1501">
      <contour>
        <pt x="1008" y="0" on="1"/>
        <pt x="705" y="0" on="1"/>
        <pt x="678" y="121" on="1"/>
        <pt x="678" y="121" on="0"/>
        <pt x="617" y="77" on="0"/>
        <pt x="517" y="19" on="0"/>
        <pt x="396" y="-25" on="0"/>
        <pt x="336" y="-25" on="1"/>
        <pt x="225" y="-25" on="0"/>
        <pt x="70" y="123" on="0"/>
        <pt x="70" y="252" on="1"/>
        <pt x="70" y="309" on="0"/>
        <pt x="111" y="407" on="0"/>
        <pt x="234" y="496" on="0"/>
        <pt x="477" y="581" on="0"/>
        <pt x="678" y="625" on="1"/>
        <pt x="678" y="713" on="1"/>
        <pt x="678" y="915" on="0"/>
        <pt x="487" y="915" on="1"/>
        <pt x="434" y="915" on="0"/>
        <pt x="357" y="895" on="0"/>
        <pt x="342" y="889" on="1"/>
        <pt x="342" y="711" on="1"/>
        <pt x="193" y="711" on="1"/>
        <pt x="165" y="711" on="0"/>
        <pt x="117" y="732" on="0"/>
        <pt x="117" y="770" on="1"/>
        <pt x="117" y="854" on="0"/>
        <pt x="245" y="961" on="0"/>
        <pt x="442" y="1012" on="0"/>
        <pt x="543" y="1012" on="1"/>
        <pt x="670" y="1012" on="0"/>
        <pt x="810" y="933" on="0"/>
        <pt x="866" y="794" on="0"/>
        <pt x="866" y="705" on="1"/>
        <pt x="866" y="131" on="1"/>
        <pt x="866" y="112" on="0"/>
        <pt x="891" y="88" on="0"/>
        <pt x="909" y="86" on="1"/>
        <pt x="1008" y="80" on="1"/>
      </contour>
      <contour>
        <pt x="678" y="193" on="1"/>
        <pt x="678" y="547" on="1"/>
        <pt x="540" y="513" on="0"/>
        <pt x="377" y="444" on="0"/>
        <pt x="297" y="375" on="0"/>
        <pt x="272" y="304" on="0"/>
        <pt x="272" y="266" on="1"/>
        <pt x="272" y="203" on="0"/>
        <pt x="353" y="96" on="0"/>
        <pt x="426" y="96" on="1"/>
        <pt x="467" y="96" on="0"/>
        <pt x="555" y="125" on="0"/>
        <pt x="631" y="164" on="0"/>
        <pt x="678" y="193" on="0"/>
      </contour>
      <contour>
        <pt x="860" y="1409" on="1"/>
        <pt x="860" y="1358" on="0"/>
        <pt x="813" y="1327" on="1"/>
        <pt x="502" y="1128" on="1"/>
        <pt x="385" y="1128" on="1"/>
        <pt x="659" y="1446" on="1"/>
        <pt x="682" y="1472" on="0"/>
        <pt x="725" y="1501" on="0"/>
        <pt x="766" y="1501" on="1"/>
        <pt x="820" y="1501" on="0"/>
        <pt x="860" y="1440" on="0"/>
      </contour>
    </TTGlyph>
    <TTGlyph name="acircumflex" xMin="70" yMin="-25" xMax="1008" yMax="1475">
      <contour>
        <pt x="1008" y="0" on="1"/>
        <pt x="705" y="0" on="1"/>
        <pt x="678" y="121" on="1"/>
        <pt x="678" y="121" on="0"/>
        <pt x="617" y="77" on="0"/>
        <pt x="517" y="19" on="0"/>
        <pt x="396" y="-25" on="0"/>
        <pt x="336" y="-25" on="1"/>
        <pt x="225" y="-25" on="0"/>
        <pt x="70" y="123" on="0"/>
        <pt x="70" y="252" on="1"/>
        <pt x="70" y="309" on="0"/>
        <pt x="111" y="407" on="0"/>
        <pt x="234" y="496" on="0"/>
        <pt x="477" y="581" on="0"/>
        <pt x="678" y="625" on="1"/>
        <pt x="678" y="713" on="1"/>
        <pt x="678" y="915" on="0"/>
        <pt x="487" y="915" on="1"/>
        <pt x="434" y="915" on="0"/>
        <pt x="357" y="895" on="0"/>
        <pt x="342" y="889" on="1"/>
        <pt x="342" y="711" on="1"/>
        <pt x="193" y="711" on="1"/>
        <pt x="165" y="711" on="0"/>
        <pt x="117" y="732" on="0"/>
        <pt x="117" y="770" on="1"/>
        <pt x="117" y="854" on="0"/>
        <pt x="245" y="961" on="0"/>
        <pt x="442" y="1012" on="0"/>
        <pt x="543" y="1012" on="1"/>
        <pt x="670" y="1012" on="0"/>
        <pt x="810" y="933" on="0"/>
        <pt x="866" y="794" on="0"/>
        <pt x="866" y="705" on="1"/>
        <pt x="866" y="131" on="1"/>
        <pt x="866" y="112" on="0"/>
        <pt x="891" y="88" on="0"/>
        <pt x="909" y="86" on="1"/>
        <pt x="1008" y="80" on="1"/>
      </contour>
      <contour>
        <pt x="678" y="193" on="1"/>
        <pt x="678" y="547" on="1"/>
        <pt x="540" y="513" on="0"/>
        <pt x="377" y="444" on="0"/>
        <pt x="297" y="375" on="0"/>
        <pt x="272" y="304" on="0"/>
        <pt x="272" y="266" on="1"/>
        <pt x="272" y="203" on="0"/>
        <pt x="353" y="96" on="0"/>
        <pt x="426" y="96" on="1"/>
        <pt x="467" y="96" on="0"/>
        <pt x="555" y="125" on="0"/>
        <pt x="631" y="164" on="0"/>
        <pt x="678" y="193" on="0"/>
      </contour>
      <contour>
        <pt x="827" y="1128" on="1"/>
        <pt x="705" y="1128" on="1"/>
        <pt x="494" y="1331" on="1"/>
        <pt x="283" y="1128" on="1"/>
        <pt x="158" y="1128" on="1"/>
        <pt x="416" y="1475" on="1"/>
        <pt x="571" y="1475" on="1"/>
      </contour>
    </TTGlyph>
    <TTGlyph name="acute" xMin="244" yMin="1128" xMax="719" yMax="1501">
      <contour>
        <pt x="719" y="1409" on="1"/>
        <pt x="719" y="1356" on="0"/>
        <pt x="672" y="1327" on="1"/>
        <pt x="358" y="1128" on="1"/>
        <pt x="244" y="1128" on="1"/>
        <pt x="514" y="1446" on="1"/>
        <pt x="537" y="1472" on="0"/>
        <pt x="583" y="1501" on="0"/>
        <pt x="625" y="1501" on="1"/>
        <pt x="678" y="1501" on="0"/>
        <pt x="719" y="1440" on="0"/>
      </contour>
    </TTGlyph>
    <TTGlyph name="acutecomb" xMin="-1048" yMin="1558" xMax="-573" yMax="1931">
      <contour>
        <pt x="-573" y="1839" on="1"/>
        <pt x="-573" y="1811" on="0"/>
        <pt x="-600" y="1771" on="0"/>
        <pt x="-620" y="1757" on="1"/>
        <pt x="-932" y="1558" on="1"/>
        <pt x="-1048" y="1558" on="1"/>
        <pt x="-776" y="1876" on="1"/>
        <pt x="-753" y="1902" on="0"/>
        <pt x="-710" y="1931" on="0"/>
        <pt x="-667" y="1931" on="1"/>
        <pt x="-614" y="1931" on="0"/>
        <pt x="-573" y="1871" on="0"/>
      </contour>
    </TTGlyph>
    <TTGlyph name="adieresis" xMin="70" yMin="-25" xMax="1008" yMax="1425">
      <contour>
        <pt x="1008" y="0" on="1"/>
        <pt x="705" y="0" on="1"/>
        <pt x="678" y="121" on="1"/>
        <pt x="678" y="121" on="0"/>
        <pt x="617" y="77" on="0"/>
        <pt x="517" y="19" on="0"/>
        <pt x="396" y="-25" on="0"/>
        <pt x="336" y="-25" on="1"/>
        <pt x="225" y="-25" on="0"/>
        <pt x="70" y="123" on="0"/>
        <pt x="70" y="252" on="1"/>
        <pt x="70" y="309" on="0"/>
        <pt x="111" y="407" on="0"/>
        <pt x="234" y="496" on="0"/>
        <pt x="477" y="581" on="0"/>
        <pt x="678" y="625" on="1"/>
        <pt x="678" y="713" on="1"/>
        <pt x="678" y="915" on="0"/>
        <pt x="487" y="915" on="1"/>
        <pt x="434" y="915" on="0"/>
        <pt x="357" y="895" on="0"/>
        <pt x="342" y="889" on="1"/>
        <pt x="342" y="711" on="1"/>
        <pt x="193" y="711" on="1"/>
        <pt x="165" y="711" on="0"/>
        <pt x="117" y="732" on="0"/>
        <pt x="117" y="770" on="1"/>
        <pt x="117" y="854" on="0"/>
        <pt x="245" y="961" on="0"/>
        <pt x="442" y="1012" on="0"/>
        <pt x="543" y="1012" on="1"/>
        <pt x="670" y="1012" on="0"/>
        <pt x="810" y="933" on="0"/>
        <pt x="866" y="794" on="0"/>
        <pt x="866" y="705" on="1"/>
        <pt x="866" y="131" on="1"/>
        <pt x="866" y="112" on="0"/>
        <pt x="891" y="88" on="0"/>
        <pt x="909" y="86" on="1"/>
        <pt x="1008" y="80" on="1"/>
      </contour>
      <contour>
        <pt x="678" y="193" on="1"/>
        <pt x="678" y="547" on="1"/>
        <pt x="540" y="513" on="0"/>
        <pt x="377" y="444" on="0"/>
        <pt x="297" y="375" on="0"/>
        <pt x="272" y="304" on="0"/>
        <pt x="272" y="266" on="1"/>
        <pt x="272" y="203" on="0"/>
        <pt x="353" y="96" on="0"/>
        <pt x="426" y="96" on="1"/>
        <pt x="467" y="96" on="0"/>
        <pt x="555" y="125" on="0"/>
        <pt x="631" y="164" on="0"/>
        <pt x="678" y="193" on="0"/>
      </contour>
      <contour>
        <pt x="840" y="1313" on="1"/>
        <pt x="840" y="1267" on="0"/>
        <pt x="773" y="1198" on="0"/>
        <pt x="727" y="1198" on="1"/>
        <pt x="681" y="1198" on="0"/>
        <pt x="616" y="1267" on="0"/>
        <pt x="616" y="1313" on="1"/>
        <pt x="616" y="1356" on="0"/>
        <pt x="684" y="1425" on="0"/>
        <pt x="727" y="1425" on="1"/>
        <pt x="773" y="1425" on="0"/>
        <pt x="840" y="1359" on="0"/>
      </contour>
      <contour>
        <pt x="414" y="1313" on="1"/>
        <pt x="414" y="1267" on="0"/>
        <pt x="347" y="1198" on="0"/>
        <pt x="301" y="1198" on="1"/>
        <pt x="257" y="1198" on="0"/>
        <pt x="193" y="1266" on="0"/>
        <pt x="193" y="1311" on="1"/>
        <pt x="193" y="1355" on="0"/>
        <pt x="259" y="1425" on="0"/>
        <pt x="303" y="1425" on="1"/>
        <pt x="350" y="1425" on="0"/>
        <pt x="414" y="1359" on="0"/>
      </contour>
    </TTGlyph>
    <TTGlyph name="ae" xMin="70" yMin="-25" xMax="1407" yMax="1012">
      <contour>
        <pt x="1407" y="102" on="1"/>
        <pt x="1378" y="81" on="0"/>
        <pt x="1281" y="21" on="0"/>
        <pt x="1149" y="-25" on="0"/>
        <pt x="1067" y="-25" on="1"/>
        <pt x="978" y="-25" on="0"/>
        <pt x="839" y="22" on="0"/>
        <pt x="743" y="84" on="0"/>
        <pt x="694" y="131" on="0"/>
        <pt x="694" y="131" on="1"/>
        <pt x="694" y="131" on="0"/>
        <pt x="633" y="84" on="0"/>
        <pt x="530" y="22" on="0"/>
        <pt x="402" y="-25" on="0"/>
        <pt x="334" y="-25" on="1"/>
        <pt x="205" y="-25" on="0"/>
        <pt x="70" y="130" on="0"/>
        <pt x="70" y="244" on="1"/>
        <pt x="70" y="353" on="0"/>
        <pt x="184" y="480" on="0"/>
        <pt x="437" y="572" on="0"/>
        <pt x="645" y="625" on="1"/>
        <pt x="645" y="709" on="1"/>
        <pt x="645" y="810" on="0"/>
        <pt x="570" y="915" on="0"/>
        <pt x="467" y="915" on="1"/>
        <pt x="418" y="915" on="0"/>
        <pt x="353" y="895" on="0"/>
        <pt x="338" y="889" on="1"/>
        <pt x="338" y="711" on="1"/>
        <pt x="195" y="711" on="1"/>
        <pt x="155" y="711" on="0"/>
        <pt x="117" y="735" on="0"/>
        <pt x="117" y="770" on="1"/>
        <pt x="117" y="854" on="0"/>
        <pt x="240" y="961" on="0"/>
        <pt x="425" y="1012" on="0"/>
        <pt x="518" y="1012" on="1"/>
        <pt x="615" y="1012" on="0"/>
        <pt x="722" y="970" on="0"/>
        <pt x="776" y="914" on="0"/>
        <pt x="791" y="891" on="1"/>
        <pt x="807" y="911" on="0"/>
        <pt x="877" y="968" on="0"/>
        <pt x="988" y="1012" on="0"/>
        <pt x="1067" y="1012" on="1"/>
        <pt x="1189" y="1012" on="0"/>
        <pt x="1339" y="895" on="0"/>
        <pt x="1407" y="706" on="0"/>
        <pt x="1407" y="596" on="1"/>
        <pt x="1407" y="579" on="0"/>
        <pt x="1403" y="524" on="0"/>
        <pt x="1403" y="524" on="1"/>
        <pt x="836" y="524" on="1"/>
        <pt x="836" y="252" on="1"/>
        <pt x="880" y="208" on="0"/>
        <pt x="1024" y="113" on="0"/>
        <pt x="1133" y="113" on="1"/>
        <pt x="1225" y="113" on="0"/>
        <pt x="1352" y="179" on="0"/>
        <pt x="1407" y="225" on="1"/>
      </contour>
      <contour>
        <pt x="645" y="193" on="1"/>
        <pt x="645" y="547" on="1"/>
        <pt x="494" y="506" on="0"/>
        <pt x="330" y="427" on="0"/>
        <pt x="266" y="334" on="0"/>
        <pt x="266" y="272" on="1"/>
        <pt x="266" y="203" on="0"/>
        <pt x="342" y="98" on="0"/>
        <pt x="422" y="98" on="1"/>
        <pt x="470" y="98" on="0"/>
        <pt x="574" y="146" on="0"/>
        <pt x="645" y="193" on="0"/>
      </contour>
      <contour>
        <pt x="1204" y="612" on="1"/>
        <pt x="1204" y="674" on="1"/>
        <pt x="1204" y="736" on="0"/>
        <pt x="1167" y="846" on="0"/>
        <pt x="1091" y="915" on="0"/>
        <pt x="1030" y="915" on="1"/>
        <pt x="955" y="915" on="0"/>
        <pt x="870" y="825" on="0"/>
        <pt x="836" y="686" on="0"/>
        <pt x="836" y="612" on="1"/>
      </contour>
    </TTGlyph>
    <TTGlyph name="agrave" xMin="70" yMin="-25" xMax="1008" yMax="1501">
      <contour>
        <pt x="1008" y="0" on="1"/>
        <pt x="705" y="0" on="1"/>
        <pt x="678" y="121" on="1"/>
        <pt x="678" y="121" on="0"/>
        <pt x="617" y="77" on="0"/>
        <pt x="517" y="19" on="0"/>
        <pt x="396" y="-25" on="0"/>
        <pt x="336" y="-25" on="1"/>
        <pt x="225" y="-25" on="0"/>
        <pt x="70" y="123" on="0"/>
        <pt x="70" y="252" on="1"/>
        <pt x="70" y="309" on="0"/>
        <pt x="111" y="407" on="0"/>
        <pt x="234" y="496" on="0"/>
        <pt x="477" y="581" on="0"/>
        <pt x="678" y="625" on="1"/>
        <pt x="678" y="713" on="1"/>
        <pt x="678" y="915" on="0"/>
        <pt x="487" y="915" on="1"/>
        <pt x="434" y="915" on="0"/>
        <pt x="357" y="895" on="0"/>
        <pt x="342" y="889" on="1"/>
        <pt x="342" y="711" on="1"/>
        <pt x="193" y="711" on="1"/>
        <pt x="165" y="711" on="0"/>
        <pt x="117" y="732" on="0"/>
        <pt x="117" y="770" on="1"/>
        <pt x="117" y="854" on="0"/>
        <pt x="245" y="961" on="0"/>
        <pt x="442" y="1012" on="0"/>
        <pt x="543" y="1012" on="1"/>
        <pt x="670" y="1012" on="0"/>
        <pt x="810" y="933" on="0"/>
        <pt x="866" y="794" on="0"/>
        <pt x="866" y="705" on="1"/>
        <pt x="866" y="131" on="1"/>
        <pt x="866" y="112" on="0"/>
        <pt x="891" y="88" on="0"/>
        <pt x="909" y="86" on="1"/>
        <pt x="1008" y="80" on="1"/>
      </contour>
      <contour>
        <pt x="678" y="193" on="1"/>
        <pt x="678" y="547" on="1"/>
        <pt x="540" y="513" on="0"/>
        <pt x="377" y="444" on="0"/>
        <pt x="297" y="375" on="0"/>
        <pt x="272" y="304" on="0"/>
        <pt x="272" y="266" on="1"/>
        <pt x="272" y="203" on="0"/>
        <pt x="353" y="96" on="0"/>
        <pt x="426" y="96" on="1"/>
        <pt x="467" y="96" on="0"/>
        <pt x="555" y="125" on="0"/>
        <pt x="631" y="164" on="0"/>
        <pt x="678" y="193" on="0"/>
      </contour>
      <contour>
        <pt x="643" y="1128" on="1"/>
        <pt x="526" y="1128" on="1"/>
        <pt x="215" y="1327" on="1"/>
        <pt x="168" y="1358" on="0"/>
        <pt x="168" y="1409" on="1"/>
        <pt x="168" y="1440" on="0"/>
        <pt x="208" y="1501" on="0"/>
        <pt x="262" y="1501" on="1"/>
        <pt x="303" y="1501" on="0"/>
        <pt x="347" y="1472" on="0"/>
        <pt x="369" y="1446" on="1"/>
      </contour>
    </TTGlyph>
    <TTGlyph name="ampersand" xMin="80" yMin="-25" xMax="1391" yMax="1401">
      <contour>
        <pt x="1391" y="0" on="1"/>
        <pt x="1014" y="0" on="1"/>
        <pt x="1014" y="49" on="1"/>
        <pt x="922" y="152" on="1"/>
        <pt x="869" y="110" on="0"/>
        <pt x="749" y="29" on="0"/>
        <pt x="602" y="-25" on="0"/>
        <pt x="506" y="-25" on="1"/>
        <pt x="389" y="-25" on="0"/>
        <pt x="195" y="81" on="0"/>
        <pt x="80" y="264" on="0"/>
        <pt x="80" y="381" on="1"/>
        <pt x="80" y="516" on="0"/>
        <pt x="233" y="691" on="0"/>
        <pt x="354" y="741" on="1"/>
        <pt x="345" y="750" on="1"/>
        <pt x="320" y="775" on="0"/>
        <pt x="242" y="863" on="0"/>
        <pt x="182" y="983" on="0"/>
        <pt x="182" y="1055" on="1"/>
        <pt x="182" y="1158" on="0"/>
        <pt x="284" y="1313" on="0"/>
        <pt x="461" y="1401" on="0"/>
        <pt x="571" y="1401" on="1"/>
        <pt x="675" y="1401" on="0"/>
        <pt x="838" y="1321" on="0"/>
        <pt x="932" y="1181" on="0"/>
        <pt x="932" y="1092" on="1"/>
        <pt x="932" y="992" on="0"/>
        <pt x="844" y="857" on="0"/>
        <pt x="706" y="767" on="0"/>
        <pt x="631" y="733" on="1"/>
        <pt x="975" y="362" on="1"/>
        <pt x="995" y="388" on="0"/>
        <pt x="1049" y="476" on="0"/>
        <pt x="1090" y="570" on="0"/>
        <pt x="1090" y="604" on="1"/>
        <pt x="1090" y="614" on="0"/>
        <pt x="1068" y="640" on="0"/>
        <pt x="1055" y="641" on="1"/>
        <pt x="944" y="657" on="1"/>
        <pt x="944" y="743" on="1"/>
        <pt x="1364" y="743" on="1"/>
        <pt x="1364" y="657" on="1"/>
        <pt x="1217" y="635" on="1"/>
        <pt x="1188" y="531" on="0"/>
        <pt x="1087" y="351" on="0"/>
        <pt x="1042" y="289" on="1"/>
        <pt x="1208" y="98" on="1"/>
        <pt x="1391" y="88" on="1"/>
      </contour>
      <contour>
        <pt x="743" y="1079" on="1"/>
        <pt x="743" y="1167" on="0"/>
        <pt x="649" y="1300" on="0"/>
        <pt x="551" y="1300" on="1"/>
        <pt x="468" y="1300" on="0"/>
        <pt x="367" y="1188" on="0"/>
        <pt x="367" y="1108" on="1"/>
        <pt x="367" y="1045" on="0"/>
        <pt x="422" y="941" on="0"/>
        <pt x="501" y="856" on="0"/>
        <pt x="538" y="821" on="1"/>
        <pt x="557" y="803" on="1"/>
        <pt x="646" y="847" on="0"/>
        <pt x="743" y="976" on="0"/>
      </contour>
      <contour>
        <pt x="856" y="223" on="1"/>
        <pt x="434" y="682" on="1"/>
        <pt x="373" y="639" on="0"/>
        <pt x="287" y="520" on="0"/>
        <pt x="287" y="428" on="1"/>
        <pt x="287" y="336" on="0"/>
        <pt x="366" y="192" on="0"/>
        <pt x="501" y="109" on="0"/>
        <pt x="584" y="109" on="1"/>
        <pt x="678" y="109" on="0"/>
        <pt x="804" y="179" on="0"/>
      </contour>
    </TTGlyph>
    <TTGlyph name="approxequal" xMin="410" yMin="291" xMax="1638" yMax="942">
      <contour>
        <pt x="1638" y="801" on="1"/>
        <pt x="1597" y="763" on="0"/>
        <pt x="1440" y="674" on="0"/>
        <pt x="1348" y="668" on="1"/>
        <pt x="1331" y="667" on="0"/>
        <pt x="1299" y="666" on="0"/>
        <pt x="1285" y="666" on="1"/>
        <pt x="1228" y="666" on="0"/>
        <pt x="1145" y="683" on="0"/>
        <pt x="1063" y="713" on="0"/>
        <pt x="1006" y="733" on="1"/>
        <pt x="915" y="765" on="0"/>
        <pt x="775" y="795" on="0"/>
        <pt x="719" y="795" on="1"/>
        <pt x="620" y="795" on="0"/>
        <pt x="484" y="710" on="0"/>
        <pt x="410" y="639" on="1"/>
        <pt x="410" y="780" on="1"/>
        <pt x="436" y="806" on="0"/>
        <pt x="507" y="864" on="0"/>
        <pt x="626" y="911" on="0"/>
        <pt x="723" y="918" on="1"/>
        <pt x="731" y="919" on="0"/>
        <pt x="748" y="919" on="0"/>
        <pt x="756" y="919" on="1"/>
        <pt x="860" y="919" on="0"/>
        <pt x="1054" y="845" on="0"/>
        <pt x="1133" y="821" on="1"/>
        <pt x="1236" y="790" on="0"/>
        <pt x="1315" y="790" on="1"/>
        <pt x="1415" y="790" on="0"/>
        <pt x="1562" y="875" on="0"/>
        <pt x="1638" y="942" on="1"/>
      </contour>
      <contour>
        <pt x="1638" y="453" on="1"/>
        <pt x="1597" y="414" on="0"/>
        <pt x="1440" y="326" on="0"/>
        <pt x="1348" y="319" on="1"/>
        <pt x="1332" y="318" on="0"/>
        <pt x="1303" y="317" on="0"/>
        <pt x="1289" y="317" on="1"/>
        <pt x="1231" y="317" on="0"/>
        <pt x="1147" y="334" on="0"/>
        <pt x="1064" y="365" on="0"/>
        <pt x="1006" y="385" on="1"/>
        <pt x="915" y="417" on="0"/>
        <pt x="775" y="447" on="0"/>
        <pt x="719" y="447" on="1"/>
        <pt x="620" y="447" on="0"/>
        <pt x="484" y="362" on="0"/>
        <pt x="410" y="291" on="1"/>
        <pt x="410" y="432" on="1"/>
        <pt x="436" y="458" on="0"/>
        <pt x="507" y="516" on="0"/>
        <pt x="626" y="562" on="0"/>
        <pt x="723" y="569" on="1"/>
        <pt x="732" y="570" on="0"/>
        <pt x="750" y="571" on="0"/>
        <pt x="759" y="571" on="1"/>
        <pt x="863" y="571" on="0"/>
        <pt x="1055" y="497" on="0"/>
        <pt x="1133" y="473" on="1"/>
        <pt x="1236" y="442" on="0"/>
        <pt x="1315" y="442" on="1"/>
        <pt x="1415" y="442" on="0"/>
        <pt x="1562" y="527" on="0"/>
        <pt x="1638" y="594" on="1"/>
      </contour>
    </TTGlyph>
    <TTGlyph name="aring" xMin="70" yMin="-25" xMax="1008" yMax="1616">
      <contour>
        <pt x="1008" y="0" on="1"/>
        <pt x="705" y="0" on="1"/>
        <pt x="678" y="121" on="1"/>
        <pt x="678" y="121" on="0"/>
        <pt x="617" y="77" on="0"/>
        <pt x="517" y="19" on="0"/>
        <pt x="396" y="-25" on="0"/>
        <pt x="336" y="-25" on="1"/>
        <pt x="225" y="-25" on="0"/>
        <pt x="70" y="123" on="0"/>
        <pt x="70" y="252" on="1"/>
        <pt x="70" y="309" on="0"/>
        <pt x="111" y="407" on="0"/>
        <pt x="234" y="496" on="0"/>
        <pt x="477" y="581" on="0"/>
        <pt x="678" y="625" on="1"/>
        <pt x="678" y="713" on="1"/>
        <pt x="678" y="915" on="0"/>
        <pt x="487" y="915" on="1"/>
        <pt x="434" y="915" on="0"/>
        <pt x="357" y="895" on="0"/>
        <pt x="342" y="889" on="1"/>
        <pt x="342" y="711" on="1"/>
        <pt x="193" y="711" on="1"/>
        <pt x="165" y="711" on="0"/>
        <pt x="117" y="732" on="0"/>
        <pt x="117" y="770" on="1"/>
        <pt x="117" y="854" on="0"/>
        <pt x="245" y="961" on="0"/>
        <pt x="442" y="1012" on="0"/>
        <pt x="543" y="1012" on="1"/>
        <pt x="670" y="1012" on="0"/>
        <pt x="810" y="933" on="0"/>
        <pt x="866" y="794" on="0"/>
        <pt x="866" y="705" on="1"/>
        <pt x="866" y="131" on="1"/>
        <pt x="866" y="112" on="0"/>
        <pt x="891" y="88" on="0"/>
        <pt x="909" y="86" on="1"/>
        <pt x="1008" y="80" on="1"/>
      </contour>
      <contour>
        <pt x="766" y="1372" on="1"/>
        <pt x="766" y="1305" on="0"/>
        <pt x="700" y="1194" on="0"/>
        <pt x="590" y="1128" on="0"/>
        <pt x="522" y="1128" on="1"/>
        <pt x="455" y="1128" on="0"/>
        <pt x="344" y="1194" on="0"/>
        <pt x="279" y="1305" on="0"/>
        <pt x="279" y="1372" on="1"/>
        <pt x="279" y="1440" on="0"/>
        <pt x="344" y="1550" on="0"/>
        <pt x="455" y="1616" on="0"/>
        <pt x="522" y="1616" on="1"/>
        <pt x="590" y="1616" on="0"/>
        <pt x="700" y="1550" on="0"/>
        <pt x="766" y="1440" on="0"/>
      </contour>
      <contour>
        <pt x="678" y="193" on="1"/>
        <pt x="678" y="547" on="1"/>
        <pt x="540" y="513" on="0"/>
        <pt x="377" y="444" on="0"/>
        <pt x="297" y="375" on="0"/>
        <pt x="272" y="304" on="0"/>
        <pt x="272" y="266" on="1"/>
        <pt x="272" y="203" on="0"/>
        <pt x="353" y="96" on="0"/>
        <pt x="426" y="96" on="1"/>
        <pt x="467" y="96" on="0"/>
        <pt x="555" y="125" on="0"/>
        <pt x="631" y="164" on="0"/>
        <pt x="678" y="193" on="0"/>
      </contour>
      <contour>
        <pt x="666" y="1372" on="1"/>
        <pt x="666" y="1432" on="0"/>
        <pt x="582" y="1516" on="0"/>
        <pt x="522" y="1516" on="1"/>
        <pt x="462" y="1516" on="0"/>
        <pt x="379" y="1432" on="0"/>
        <pt x="379" y="1372" on="1"/>
        <pt x="379" y="1312" on="0"/>
        <pt x="462" y="1229" on="0"/>
        <pt x="522" y="1229" on="1"/>
        <pt x="582" y="1229" on="0"/>
        <pt x="666" y="1312" on="0"/>
      </contour>
    </TTGlyph>
    <TTGlyph name="asciicircum" xMin="446" yMin="23" xMax="1516" yMax="1200">
      <contour>
        <pt x="1516" y="23" on="1"/>
        <pt x="1386" y="23" on="1"/>
        <pt x="981" y="1022" on="1"/>
        <pt x="573" y="23" on="1"/>
        <pt x="446" y="23" on="1"/>
        <pt x="930" y="1200" on="1"/>
        <pt x="1034" y="1200" on="1"/>
      </contour>
    </TTGlyph>
    <TTGlyph name="asciitilde" xMin="176" yMin="461" xMax="1530" yMax="760">
      <contour>
        <pt x="1530" y="760" on="1"/>
        <pt x="1530" y="627" on="1"/>
        <pt x="1412" y="545" on="0"/>
        <pt x="1233" y="483" on="0"/>
        <pt x="1145" y="483" on="1"/>
        <pt x="1072" y="483" on="0"/>
        <pt x="928" y="525" on="0"/>
        <pt x="782" y="579" on="0"/>
        <pt x="632" y="621" on="0"/>
        <pt x="553" y="621" on="1"/>
        <pt x="475" y="621" on="0"/>
        <pt x="279" y="536" on="0"/>
        <pt x="176" y="461" on="1"/>
        <pt x="176" y="594" on="1"/>
        <pt x="286" y="672" on="0"/>
        <pt x="483" y="739" on="0"/>
        <pt x="565" y="739" on="1"/>
        <pt x="640" y="739" on="0"/>
        <pt x="790" y="698" on="0"/>
        <pt x="938" y="643" on="0"/>
        <pt x="1080" y="602" on="0"/>
        <pt x="1147" y="602" on="1"/>
        <pt x="1221" y="602" on="0"/>
        <pt x="1407" y="671" on="0"/>
      </contour>
    </TTGlyph>
    <TTGlyph name="asterisk" xMin="102" yMin="707" xMax="858" yMax="1440">
      <contour>
        <pt x="741" y="1253" on="1"/>
        <pt x="784" y="1253" on="0"/>
        <pt x="858" y="1186" on="0"/>
        <pt x="858" y="1142" on="1"/>
        <pt x="858" y="1084" on="0"/>
        <pt x="783" y="1019" on="0"/>
        <pt x="728" y="1019" on="1"/>
        <pt x="685" y="1019" on="0"/>
        <pt x="604" y="1039" on="0"/>
        <pt x="587" y="1039" on="1"/>
        <pt x="586" y="1039" on="0"/>
        <pt x="583" y="1038" on="0"/>
        <pt x="582" y="1038" on="1"/>
        <pt x="558" y="1031" on="0"/>
        <pt x="558" y="1017" on="1"/>
        <pt x="558" y="1009" on="0"/>
        <pt x="567" y="995" on="1"/>
        <pt x="573" y="987" on="0"/>
        <pt x="640" y="963" on="0"/>
        <pt x="719" y="924" on="0"/>
        <pt x="742" y="893" on="1"/>
        <pt x="762" y="866" on="0"/>
        <pt x="762" y="832" on="1"/>
        <pt x="762" y="780" on="0"/>
        <pt x="699" y="711" on="0"/>
        <pt x="647" y="711" on="1"/>
        <pt x="623" y="711" on="0"/>
        <pt x="574" y="732" on="0"/>
        <pt x="555" y="758" on="1"/>
        <pt x="534" y="788" on="0"/>
        <pt x="516" y="871" on="0"/>
        <pt x="509" y="940" on="0"/>
        <pt x="504" y="948" on="1"/>
        <pt x="494" y="964" on="0"/>
        <pt x="482" y="964" on="1"/>
        <pt x="470" y="964" on="0"/>
        <pt x="459" y="948" on="1"/>
        <pt x="454" y="941" on="0"/>
        <pt x="452" y="869" on="0"/>
        <pt x="438" y="782" on="0"/>
        <pt x="415" y="750" on="1"/>
        <pt x="397" y="725" on="0"/>
        <pt x="348" y="707" on="0"/>
        <pt x="324" y="707" on="1"/>
        <pt x="279" y="707" on="0"/>
        <pt x="254" y="725" on="1"/>
        <pt x="238" y="736" on="0"/>
        <pt x="207" y="790" on="0"/>
        <pt x="207" y="823" on="1"/>
        <pt x="207" y="859" on="0"/>
        <pt x="229" y="889" on="1"/>
        <pt x="251" y="919" on="0"/>
        <pt x="326" y="959" on="0"/>
        <pt x="390" y="986" on="0"/>
        <pt x="395" y="995" on="1"/>
        <pt x="404" y="1007" on="0"/>
        <pt x="404" y="1017" on="1"/>
        <pt x="404" y="1031" on="0"/>
        <pt x="379" y="1038" on="1"/>
        <pt x="366" y="1038" on="0"/>
        <pt x="276" y="1011" on="0"/>
        <pt x="228" y="1011" on="1"/>
        <pt x="173" y="1011" on="0"/>
        <pt x="102" y="1075" on="0"/>
        <pt x="102" y="1133" on="1"/>
        <pt x="102" y="1152" on="0"/>
        <pt x="106" y="1163" on="1"/>
        <pt x="113" y="1186" on="0"/>
        <pt x="172" y="1243" on="0"/>
        <pt x="216" y="1243" on="1"/>
        <pt x="234" y="1243" on="0"/>
        <pt x="252" y="1237" on="1"/>
        <pt x="288" y="1226" on="0"/>
        <pt x="351" y="1167" on="0"/>
        <pt x="397" y="1115" on="0"/>
        <pt x="406" y="1112" on="1"/>
        <pt x="411" y="1110" on="0"/>
        <pt x="419" y="1110" on="1"/>
        <pt x="442" y="1110" on="0"/>
        <pt x="442" y="1139" on="1"/>
        <pt x="442" y="1148" on="0"/>
        <pt x="401" y="1207" on="0"/>
        <pt x="360" y="1286" on="0"/>
        <pt x="360" y="1325" on="1"/>
        <pt x="360" y="1364" on="0"/>
        <pt x="403" y="1415" on="0"/>
        <pt x="459" y="1440" on="0"/>
        <pt x="477" y="1440" on="1"/>
        <pt x="496" y="1440" on="0"/>
        <pt x="550" y="1416" on="0"/>
        <pt x="592" y="1364" on="0"/>
        <pt x="592" y="1323" on="1"/>
        <pt x="592" y="1286" on="0"/>
        <pt x="556" y="1209" on="0"/>
        <pt x="520" y="1149" on="0"/>
        <pt x="520" y="1139" on="1"/>
        <pt x="520" y="1109" on="0"/>
        <pt x="541" y="1109" on="1"/>
        <pt x="548" y="1109" on="0"/>
        <pt x="557" y="1112" on="1"/>
        <pt x="565" y="1115" on="0"/>
        <pt x="609" y="1172" on="0"/>
        <pt x="672" y="1235" on="0"/>
        <pt x="709" y="1247" on="1"/>
        <pt x="726" y="1253" on="0"/>
      </contour>
    </TTGlyph>
    <TTGlyph name="asterisk.punct" xMin="109" yMin="690" xMax="915" yMax="1466">
      <contour>
        <pt x="915" y="1167" on="1"/>
        <pt x="823" y="1051" on="1"/>
        <pt x="559" y="1036" on="1"/>
        <pt x="549" y="1065" on="1"/>
        <pt x="770" y="1210" on="1"/>
      </contour>
      <contour>
        <pt x="598" y="1341" on="1"/>
        <pt x="526" y="1085" on="1"/>
        <pt x="498" y="1085" on="1"/>
        <pt x="428" y="1341" on="1"/>
        <pt x="512" y="1466" on="1"/>
      </contour>
      <contour>
        <pt x="760" y="690" on="1"/>
        <pt x="618" y="743" on="1"/>
        <pt x="524" y="989" on="1"/>
        <pt x="549" y="1008" on="1"/>
        <pt x="760" y="842" on="1"/>
      </contour>
      <contour>
        <pt x="475" y="1065" on="1"/>
        <pt x="467" y="1036" on="1"/>
        <pt x="201" y="1051" on="1"/>
        <pt x="109" y="1167" on="1"/>
        <pt x="254" y="1210" on="1"/>
      </contour>
      <contour>
        <pt x="500" y="989" on="1"/>
        <pt x="406" y="743" on="1"/>
        <pt x="268" y="690" on="1"/>
        <pt x="268" y="842" on="1"/>
        <pt x="475" y="1008" on="1"/>
      </contour>
    </TTGlyph>
    <TTGlyph name="at" xMin="150" yMin="-313" xMax="1769" yMax="1415">
      <contour>
        <pt x="1769" y="764" on="1"/>
        <pt x="1769" y="608" on="0"/>
        <pt x="1673" y="366" on="0"/>
        <pt x="1520" y="201" on="0"/>
        <pt x="1347" y="115" on="0"/>
        <pt x="1270" y="115" on="1"/>
        <pt x="1185" y="115" on="0"/>
        <pt x="1110" y="200" on="0"/>
        <pt x="1110" y="285" on="1"/>
        <pt x="1031" y="205" on="0"/>
        <pt x="885" y="117" on="0"/>
        <pt x="813" y="117" on="1"/>
        <pt x="701" y="117" on="0"/>
        <pt x="557" y="297" on="0"/>
        <pt x="557" y="451" on="1"/>
        <pt x="557" y="568" on="0"/>
        <pt x="643" y="771" on="0"/>
        <pt x="788" y="923" on="0"/>
        <pt x="970" y="1008" on="0"/>
        <pt x="1067" y="1008" on="1"/>
        <pt x="1111" y="1008" on="0"/>
        <pt x="1223" y="977" on="0"/>
        <pt x="1268" y="952" on="1"/>
        <pt x="1305" y="999" on="1"/>
        <pt x="1419" y="999" on="1"/>
        <pt x="1417" y="991" on="0"/>
        <pt x="1394" y="897" on="0"/>
        <pt x="1363" y="759" on="0"/>
        <pt x="1329" y="607" on="0"/>
        <pt x="1299" y="475" on="0"/>
        <pt x="1280" y="391" on="0"/>
        <pt x="1280" y="391" on="1"/>
        <pt x="1271" y="355" on="0"/>
        <pt x="1271" y="326" on="1"/>
        <pt x="1271" y="283" on="0"/>
        <pt x="1313" y="231" on="0"/>
        <pt x="1356" y="231" on="1"/>
        <pt x="1401" y="231" on="0"/>
        <pt x="1509" y="305" on="0"/>
        <pt x="1607" y="444" on="0"/>
        <pt x="1669" y="640" on="0"/>
        <pt x="1669" y="762" on="1"/>
        <pt x="1669" y="906" on="0"/>
        <pt x="1572" y="1119" on="0"/>
        <pt x="1409" y="1257" on="0"/>
        <pt x="1204" y="1325" on="0"/>
        <pt x="1096" y="1325" on="1"/>
        <pt x="921" y="1325" on="0"/>
        <pt x="628" y="1205" on="0"/>
        <pt x="414" y="989" on="0"/>
        <pt x="297" y="697" on="0"/>
        <pt x="297" y="526" on="1"/>
        <pt x="297" y="318" on="0"/>
        <pt x="467" y="-16" on="0"/>
        <pt x="788" y="-211" on="0"/>
        <pt x="1014" y="-211" on="1"/>
        <pt x="1193" y="-211" on="0"/>
        <pt x="1461" y="-111" on="0"/>
        <pt x="1554" y="-59" on="1"/>
        <pt x="1583" y="-133" on="1"/>
        <pt x="1445" y="-206" on="0"/>
        <pt x="1143" y="-313" on="0"/>
        <pt x="965" y="-313" on="1"/>
        <pt x="800" y="-313" on="0"/>
        <pt x="506" y="-203" on="0"/>
        <pt x="280" y="6" on="0"/>
        <pt x="150" y="303" on="0"/>
        <pt x="150" y="489" on="1"/>
        <pt x="150" y="717" on="0"/>
        <pt x="306" y="1063" on="0"/>
        <pt x="570" y="1297" on="0"/>
        <pt x="898" y="1415" on="0"/>
        <pt x="1069" y="1415" on="1"/>
        <pt x="1272" y="1415" on="0"/>
        <pt x="1588" y="1265" on="0"/>
        <pt x="1769" y="975" on="0"/>
      </contour>
      <contour>
        <pt x="1196" y="805" on="1"/>
        <pt x="1197" y="807" on="0"/>
        <pt x="1197" y="812" on="1"/>
        <pt x="1197" y="831" on="0"/>
        <pt x="1165" y="883" on="0"/>
        <pt x="1110" y="922" on="0"/>
        <pt x="1075" y="922" on="1"/>
        <pt x="974" y="922" on="0"/>
        <pt x="825" y="800" on="0"/>
        <pt x="745" y="594" on="0"/>
        <pt x="745" y="469" on="1"/>
        <pt x="745" y="359" on="0"/>
        <pt x="829" y="248" on="0"/>
        <pt x="905" y="248" on="1"/>
        <pt x="974" y="248" on="0"/>
        <pt x="1082" y="341" on="0"/>
        <pt x="1114" y="381" on="1"/>
      </contour>
    </TTGlyph>
    <TTGlyph name="atilde" xMin="70" yMin="-25" xMax="1008" yMax="1423">
      <contour>
        <pt x="1008" y="0" on="1"/>
        <pt x="705" y="0" on="1"/>
        <pt x="678" y="121" on="1"/>
        <pt x="678" y="121" on="0"/>
        <pt x="617" y="77" on="0"/>
        <pt x="517" y="19" on="0"/>
        <pt x="396" y="-25" on="0"/>
        <pt x="336" y="-25" on="1"/>
        <pt x="225" y="-25" on="0"/>
        <pt x="70" y="123" on="0"/>
        <pt x="70" y="252" on="1"/>
        <pt x="70" y="309" on="0"/>
        <pt x="111" y="407" on="0"/>
        <pt x="234" y="496" on="0"/>
        <pt x="477" y="581" on="0"/>
        <pt x="678" y="625" on="1"/>
        <pt x="678" y="713" on="1"/>
        <pt x="678" y="915" on="0"/>
        <pt x="487" y="915" on="1"/>
        <pt x="434" y="915" on="0"/>
        <pt x="357" y="895" on="0"/>
        <pt x="342" y="889" on="1"/>
        <pt x="342" y="711" on="1"/>
        <pt x="193" y="711" on="1"/>
        <pt x="165" y="711" on="0"/>
        <pt x="117" y="732" on="0"/>
        <pt x="117" y="770" on="1"/>
        <pt x="117" y="854" on="0"/>
        <pt x="245" y="961" on="0"/>
        <pt x="442" y="1012" on="0"/>
        <pt x="543" y="1012" on="1"/>
        <pt x="670" y="1012" on="0"/>
        <pt x="810" y="933" on="0"/>
        <pt x="866" y="794" on="0"/>
        <pt x="866" y="705" on="1"/>
        <pt x="866" y="131" on="1"/>
        <pt x="866" y="112" on="0"/>
        <pt x="891" y="88" on="0"/>
        <pt x="909" y="86" on="1"/>
        <pt x="1008" y="80" on="1"/>
      </contour>
      <contour>
        <pt x="678" y="193" on="1"/>
        <pt x="678" y="547" on="1"/>
        <pt x="540" y="513" on="0"/>
        <pt x="377" y="444" on="0"/>
        <pt x="297" y="375" on="0"/>
        <pt x="272" y="304" on="0"/>
        <pt x="272" y="266" on="1"/>
        <pt x="272" y="203" on="0"/>
        <pt x="353" y="96" on="0"/>
        <pt x="426" y="96" on="1"/>
        <pt x="467" y="96" on="0"/>
        <pt x="555" y="125" on="0"/>
        <pt x="631" y="164" on="0"/>
        <pt x="678" y="193" on="0"/>
      </contour>
      <contour>
        <pt x="864" y="1423" on="1"/>
        <pt x="842" y="1333" on="0"/>
        <pt x="727" y="1198" on="0"/>
        <pt x="627" y="1198" on="1"/>
        <pt x="573" y="1198" on="0"/>
        <pt x="494" y="1247" on="0"/>
        <pt x="409" y="1296" on="0"/>
        <pt x="342" y="1296" on="1"/>
        <pt x="301" y="1296" on="0"/>
        <pt x="241" y="1235" on="0"/>
        <pt x="236" y="1198" on="1"/>
        <pt x="154" y="1198" on="1"/>
        <pt x="177" y="1289" on="0"/>
        <pt x="291" y="1423" on="0"/>
        <pt x="391" y="1423" on="1"/>
        <pt x="446" y="1423" on="0"/>
        <pt x="523" y="1374" on="0"/>
        <pt x="608" y="1325" on="0"/>
        <pt x="674" y="1325" on="1"/>
        <pt x="715" y="1325" on="0"/>
        <pt x="778" y="1386" on="0"/>
        <pt x="782" y="1423" on="1"/>
      </contour>
    </TTGlyph>
    <TTGlyph name="b" xMin="29" yMin="0" xMax="1067" yMax="1509">
      <contour>
        <pt x="1067" y="541" on="1"/>
        <pt x="1067" y="387" on="0"/>
        <pt x="945" y="142" on="0"/>
        <pt x="685" y="0" on="0"/>
        <pt x="479" y="0" on="1"/>
        <pt x="184" y="0" on="1"/>
        <pt x="184" y="1362" on="1"/>
        <pt x="29" y="1362" on="1"/>
        <pt x="29" y="1430" on="1"/>
        <pt x="293" y="1509" on="1"/>
        <pt x="375" y="1509" on="1"/>
        <pt x="375" y="936" on="1"/>
        <pt x="410" y="953" on="0"/>
        <pt x="567" y="1012" on="0"/>
        <pt x="657" y="1012" on="1"/>
        <pt x="792" y="1012" on="0"/>
        <pt x="974" y="882" on="0"/>
        <pt x="1067" y="667" on="0"/>
      </contour>
      <contour>
        <pt x="858" y="500" on="1"/>
        <pt x="858" y="694" on="0"/>
        <pt x="694" y="891" on="0"/>
        <pt x="545" y="891" on="1"/>
        <pt x="511" y="891" on="0"/>
        <pt x="406" y="869" on="0"/>
        <pt x="375" y="858" on="1"/>
        <pt x="375" y="98" on="1"/>
        <pt x="375" y="98" on="0"/>
        <pt x="446" y="96" on="0"/>
        <pt x="475" y="96" on="1"/>
        <pt x="657" y="96" on="0"/>
        <pt x="858" y="276" on="0"/>
      </contour>
    </TTGlyph>
    <TTGlyph name="backslash" xMin="0" yMin="-12" xMax="834" yMax="1432">
      <contour>
        <pt x="221" y="1432" on="1"/>
        <pt x="834" y="-12" on="1"/>
        <pt x="608" y="-12" on="1"/>
        <pt x="0" y="1432" on="1"/>
      </contour>
    </TTGlyph>
    <TTGlyph name="bar" xMin="440" yMin="-483" xMax="584" yMax="1565">
      <contour>
        <pt x="584" y="-483" on="1"/>
        <pt x="440" y="-483" on="1"/>
        <pt x="440" y="1565" on="1"/>
        <pt x="584" y="1565" on="1"/>
      </contour>
    </TTGlyph>
    <TTGlyph name="blank" xMin="0" yMin="-266" xMax="471" yMax="0">
      <contour>
        <pt x="471" y="-266" on="1"/>
        <pt x="0" y="-266" on="1"/>
        <pt x="0" y="0" on="1"/>
        <pt x="82" y="0" on="1"/>
        <pt x="82" y="-184" on="1"/>
        <pt x="389" y="-184" on="1"/>
        <pt x="389" y="0" on="1"/>
        <pt x="471" y="0" on="1"/>
      </contour>
    </TTGlyph>
    <TTGlyph name="braceleft" xMin="123" yMin="-252" xMax="858" yMax="1442">
      <contour>
        <pt x="858" y="-168" on="1"/>
        <pt x="858" y="-252" on="1"/>
        <pt x="749" y="-252" on="0"/>
        <pt x="552" y="-215" on="0"/>
        <pt x="502" y="-162" on="1"/>
        <pt x="444" y="-100" on="0"/>
        <pt x="418" y="58" on="0"/>
        <pt x="418" y="143" on="1"/>
        <pt x="418" y="249" on="1"/>
        <pt x="418" y="373" on="0"/>
        <pt x="373" y="502" on="0"/>
        <pt x="246" y="549" on="0"/>
        <pt x="123" y="549" on="1"/>
        <pt x="123" y="641" on="1"/>
        <pt x="246" y="641" on="0"/>
        <pt x="373" y="688" on="0"/>
        <pt x="418" y="817" on="0"/>
        <pt x="418" y="941" on="1"/>
        <pt x="418" y="1047" on="1"/>
        <pt x="418" y="1133" on="0"/>
        <pt x="444" y="1290" on="0"/>
        <pt x="502" y="1352" on="1"/>
        <pt x="552" y="1405" on="0"/>
        <pt x="749" y="1442" on="0"/>
        <pt x="858" y="1442" on="1"/>
        <pt x="858" y="1358" on="1"/>
        <pt x="841" y="1358" on="0"/>
        <pt x="760" y="1350" on="0"/>
        <pt x="675" y="1324" on="0"/>
        <pt x="649" y="1296" on="1"/>
        <pt x="615" y="1260" on="0"/>
        <pt x="600" y="1138" on="0"/>
        <pt x="600" y="1070" on="1"/>
        <pt x="600" y="993" on="1"/>
        <pt x="600" y="879" on="0"/>
        <pt x="562" y="721" on="0"/>
        <pt x="444" y="622" on="0"/>
        <pt x="324" y="596" on="1"/>
        <pt x="444" y="571" on="0"/>
        <pt x="562" y="469" on="0"/>
        <pt x="600" y="310" on="0"/>
        <pt x="600" y="197" on="1"/>
        <pt x="600" y="120" on="1"/>
        <pt x="600" y="52" on="0"/>
        <pt x="615" y="-70" on="0"/>
        <pt x="649" y="-106" on="1"/>
        <pt x="675" y="-134" on="0"/>
        <pt x="760" y="-160" on="0"/>
        <pt x="841" y="-168" on="0"/>
      </contour>
    </TTGlyph>
    <TTGlyph name="braceright" xMin="141" yMin="-252" xMax="877" yMax="1442">
      <contour>
        <pt x="877" y="641" on="1"/>
        <pt x="877" y="549" on="1"/>
        <pt x="756" y="549" on="0"/>
        <pt x="629" y="505" on="0"/>
        <pt x="582" y="378" on="0"/>
        <pt x="582" y="255" on="1"/>
        <pt x="582" y="143" on="1"/>
        <pt x="582" y="58" on="0"/>
        <pt x="557" y="-100" on="0"/>
        <pt x="498" y="-162" on="1"/>
        <pt x="447" y="-215" on="0"/>
        <pt x="251" y="-252" on="0"/>
        <pt x="141" y="-252" on="1"/>
        <pt x="141" y="-168" on="1"/>
        <pt x="159" y="-168" on="0"/>
        <pt x="239" y="-160" on="0"/>
        <pt x="325" y="-134" on="0"/>
        <pt x="350" y="-106" on="1"/>
        <pt x="383" y="-71" on="0"/>
        <pt x="400" y="47" on="0"/>
        <pt x="400" y="114" on="1"/>
        <pt x="400" y="135" on="0"/>
        <pt x="399" y="177" on="0"/>
        <pt x="399" y="197" on="1"/>
        <pt x="399" y="311" on="0"/>
        <pt x="438" y="470" on="0"/>
        <pt x="557" y="571" on="0"/>
        <pt x="676" y="596" on="1"/>
        <pt x="556" y="622" on="0"/>
        <pt x="438" y="720" on="0"/>
        <pt x="399" y="879" on="0"/>
        <pt x="399" y="993" on="1"/>
        <pt x="399" y="1013" on="0"/>
        <pt x="400" y="1055" on="0"/>
        <pt x="400" y="1076" on="1"/>
        <pt x="400" y="1143" on="0"/>
        <pt x="383" y="1261" on="0"/>
        <pt x="350" y="1296" on="1"/>
        <pt x="325" y="1324" on="0"/>
        <pt x="239" y="1350" on="0"/>
        <pt x="159" y="1358" on="0"/>
        <pt x="141" y="1358" on="1"/>
        <pt x="141" y="1442" on="1"/>
        <pt x="251" y="1442" on="0"/>
        <pt x="447" y="1405" on="0"/>
        <pt x="498" y="1352" on="1"/>
        <pt x="557" y="1290" on="0"/>
        <pt x="582" y="1133" on="0"/>
        <pt x="582" y="1047" on="1"/>
        <pt x="582" y="935" on="1"/>
        <pt x="582" y="812" on="0"/>
        <pt x="629" y="686" on="0"/>
        <pt x="756" y="641" on="0"/>
      </contour>
    </TTGlyph>
    <TTGlyph name="bracketleft" xMin="176" yMin="-158" xMax="584" yMax="1487">
      <contour>
        <pt x="584" y="-158" on="1"/>
        <pt x="176" y="-158" on="1"/>
        <pt x="176" y="1487" on="1"/>
        <pt x="584" y="1487" on="1"/>
        <pt x="584" y="1364" on="1"/>
        <pt x="367" y="1364" on="1"/>
        <pt x="367" y="-41" on="1"/>
        <pt x="584" y="-41" on="1"/>
      </contour>
    </TTGlyph>
    <TTGlyph name="bracketright" xMin="82" yMin="-158" xMax="489" yMax="1487">
      <contour>
        <pt x="489" y="-158" on="1"/>
        <pt x="82" y="-158" on="1"/>
        <pt x="82" y="-35" on="1"/>
        <pt x="299" y="-35" on="1"/>
        <pt x="299" y="1370" on="1"/>
        <pt x="82" y="1370" on="1"/>
        <pt x="82" y="1487" on="1"/>
        <pt x="489" y="1487" on="1"/>
      </contour>
    </TTGlyph>
    <TTGlyph name="breve" xMin="0" yMin="1128" xMax="610" yMax="1432">
      <contour>
        <pt x="528" y="1432" on="1"/>
        <pt x="610" y="1432" on="1"/>
        <pt x="610" y="1360" on="0"/>
        <pt x="542" y="1220" on="0"/>
        <pt x="407" y="1128" on="0"/>
        <pt x="305" y="1128" on="1"/>
        <pt x="203" y="1128" on="0"/>
        <pt x="67" y="1220" on="0"/>
        <pt x="0" y="1360" on="0"/>
        <pt x="0" y="1432" on="1"/>
        <pt x="80" y="1432" on="1"/>
        <pt x="98" y="1344" on="0"/>
        <pt x="230" y="1266" on="0"/>
        <pt x="305" y="1266" on="1"/>
        <pt x="381" y="1266" on="0"/>
        <pt x="510" y="1344" on="0"/>
      </contour>
    </TTGlyph>
    <TTGlyph name="brokenbar" xMin="442" yMin="-350" xMax="582" yMax="1434">
      <contour>
        <pt x="582" y="674" on="1"/>
        <pt x="442" y="674" on="1"/>
        <pt x="442" y="1434" on="1"/>
        <pt x="582" y="1434" on="1"/>
      </contour>
      <contour>
        <pt x="582" y="-350" on="1"/>
        <pt x="442" y="-350" on="1"/>
        <pt x="442" y="410" on="1"/>
        <pt x="582" y="410" on="1"/>
      </contour>
    </TTGlyph>
    <TTGlyph name="bullet" xMin="100" yMin="469" xMax="662" yMax="1028">
      <contour>
        <pt x="662" y="748" on="1"/>
        <pt x="662" y="670" on="0"/>
        <pt x="587" y="544" on="0"/>
        <pt x="459" y="469" on="0"/>
        <pt x="381" y="469" on="1"/>
        <pt x="303" y="469" on="0"/>
        <pt x="176" y="544" on="0"/>
        <pt x="100" y="670" on="0"/>
        <pt x="100" y="748" on="1"/>
        <pt x="100" y="826" on="0"/>
        <pt x="176" y="953" on="0"/>
        <pt x="303" y="1028" on="0"/>
        <pt x="381" y="1028" on="1"/>
        <pt x="459" y="1028" on="0"/>
        <pt x="587" y="953" on="0"/>
        <pt x="662" y="826" on="0"/>
      </contour>
    </TTGlyph>
    <TTGlyph name="c" xMin="70" yMin="-25" xMax="885" yMax="1012">
      <contour>
        <pt x="885" y="193" on="1"/>
        <pt x="885" y="76" on="1"/>
        <pt x="816" y="39" on="0"/>
        <pt x="643" y="-25" on="0"/>
        <pt x="539" y="-25" on="1"/>
        <pt x="396" y="-25" on="0"/>
        <pt x="185" y="109" on="0"/>
        <pt x="70" y="340" on="0"/>
        <pt x="70" y="487" on="1"/>
        <pt x="70" y="659" on="0"/>
        <pt x="207" y="893" on="0"/>
        <pt x="432" y="1012" on="0"/>
        <pt x="563" y="1012" on="1"/>
        <pt x="698" y="1012" on="0"/>
        <pt x="881" y="907" on="0"/>
        <pt x="881" y="807" on="1"/>
        <pt x="881" y="747" on="0"/>
        <pt x="806" y="686" on="0"/>
        <pt x="760" y="686" on="1"/>
        <pt x="726" y="686" on="0"/>
        <pt x="676" y="709" on="0"/>
        <pt x="657" y="721" on="1"/>
        <pt x="657" y="899" on="1"/>
        <pt x="610" y="926" on="0"/>
        <pt x="571" y="926" on="1"/>
        <pt x="480" y="926" on="0"/>
        <pt x="349" y="819" on="0"/>
        <pt x="279" y="633" on="0"/>
        <pt x="279" y="514" on="1"/>
        <pt x="279" y="401" on="0"/>
        <pt x="355" y="214" on="0"/>
        <pt x="506" y="104" on="0"/>
        <pt x="618" y="104" on="1"/>
        <pt x="689" y="104" on="0"/>
        <pt x="819" y="150" on="0"/>
      </contour>
    </TTGlyph>
    <TTGlyph name="caron" xMin="0" yMin="1128" xMax="670" yMax="1475">
      <contour>
        <pt x="670" y="1475" on="1"/>
        <pt x="412" y="1128" on="1"/>
        <pt x="258" y="1128" on="1"/>
        <pt x="0" y="1475" on="1"/>
        <pt x="123" y="1475" on="1"/>
        <pt x="336" y="1272" on="1"/>
        <pt x="547" y="1475" on="1"/>
      </contour>
    </TTGlyph>
    <TTGlyph name="ccedilla" xMin="70" yMin="-461" xMax="885" yMax="1012">
      <contour>
        <pt x="885" y="201" on="1"/>
        <pt x="885" y="84" on="1"/>
        <pt x="821" y="49" on="0"/>
        <pt x="658" y="-20" on="0"/>
        <pt x="563" y="-25" on="1"/>
        <pt x="563" y="-129" on="1"/>
        <pt x="574" y="-127" on="0"/>
        <pt x="594" y="-121" on="0"/>
        <pt x="610" y="-121" on="1"/>
        <pt x="672" y="-121" on="0"/>
        <pt x="760" y="-188" on="0"/>
        <pt x="760" y="-266" on="1"/>
        <pt x="760" y="-361" on="0"/>
        <pt x="625" y="-461" on="0"/>
        <pt x="522" y="-461" on="1"/>
        <pt x="469" y="-461" on="0"/>
        <pt x="369" y="-440" on="0"/>
        <pt x="369" y="-440" on="1"/>
        <pt x="369" y="-360" on="1"/>
        <pt x="369" y="-360" on="0"/>
        <pt x="455" y="-377" on="0"/>
        <pt x="494" y="-377" on="1"/>
        <pt x="543" y="-377" on="0"/>
        <pt x="627" y="-340" on="0"/>
        <pt x="627" y="-293" on="1"/>
        <pt x="627" y="-256" on="0"/>
        <pt x="569" y="-217" on="0"/>
        <pt x="528" y="-217" on="1"/>
        <pt x="513" y="-217" on="0"/>
        <pt x="483" y="-229" on="0"/>
        <pt x="483" y="-229" on="1"/>
        <pt x="483" y="-23" on="1"/>
        <pt x="356" y="-10" on="0"/>
        <pt x="171" y="128" on="0"/>
        <pt x="70" y="350" on="0"/>
        <pt x="70" y="487" on="1"/>
        <pt x="70" y="659" on="0"/>
        <pt x="207" y="893" on="0"/>
        <pt x="432" y="1012" on="0"/>
        <pt x="563" y="1012" on="1"/>
        <pt x="698" y="1012" on="0"/>
        <pt x="881" y="905" on="0"/>
        <pt x="881" y="805" on="1"/>
        <pt x="881" y="745" on="0"/>
        <pt x="806" y="686" on="0"/>
        <pt x="760" y="686" on="1"/>
        <pt x="726" y="686" on="0"/>
        <pt x="676" y="706" on="0"/>
        <pt x="657" y="719" on="1"/>
        <pt x="657" y="899" on="1"/>
        <pt x="610" y="926" on="0"/>
        <pt x="571" y="926" on="1"/>
        <pt x="480" y="926" on="0"/>
        <pt x="349" y="819" on="0"/>
        <pt x="279" y="633" on="0"/>
        <pt x="279" y="514" on="1"/>
        <pt x="279" y="401" on="0"/>
        <pt x="355" y="214" on="0"/>
        <pt x="506" y="104" on="0"/>
        <pt x="618" y="104" on="1"/>
        <pt x="689" y="104" on="0"/>
        <pt x="819" y="158" on="0"/>
      </contour>
    </TTGlyph>
    <TTGlyph name="cedilla" xMin="84" yMin="-461" xMax="473" yMax="0">
      <contour>
        <pt x="473" y="-266" on="1"/>
        <pt x="473" y="-361" on="0"/>
        <pt x="339" y="-461" on="0"/>
        <pt x="236" y="-461" on="1"/>
        <pt x="182" y="-461" on="0"/>
        <pt x="84" y="-440" on="0"/>
        <pt x="84" y="-440" on="1"/>
        <pt x="84" y="-360" on="1"/>
        <pt x="84" y="-360" on="0"/>
        <pt x="169" y="-377" on="0"/>
        <pt x="207" y="-377" on="1"/>
        <pt x="256" y="-377" on="0"/>
        <pt x="340" y="-340" on="0"/>
        <pt x="340" y="-293" on="1"/>
        <pt x="340" y="-256" on="0"/>
        <pt x="284" y="-217" on="0"/>
        <pt x="244" y="-217" on="1"/>
        <pt x="228" y="-217" on="0"/>
        <pt x="197" y="-229" on="0"/>
        <pt x="197" y="-229" on="1"/>
        <pt x="197" y="0" on="1"/>
        <pt x="276" y="0" on="1"/>
        <pt x="276" y="-129" on="1"/>
        <pt x="287" y="-127" on="0"/>
        <pt x="307" y="-121" on="0"/>
        <pt x="324" y="-121" on="1"/>
        <pt x="386" y="-121" on="0"/>
        <pt x="473" y="-188" on="0"/>
      </contour>
    </TTGlyph>
    <TTGlyph name="cent" xMin="156" yMin="-203" xMax="997" yMax="1237">
      <contour>
        <pt x="997" y="47" on="1"/>
        <pt x="993" y="43" on="0"/>
        <pt x="847" y="0" on="0"/>
        <pt x="702" y="0" on="1"/>
        <pt x="702" y="-203" on="1"/>
        <pt x="604" y="-203" on="1"/>
        <pt x="604" y="4" on="1"/>
        <pt x="465" y="20" on="0"/>
        <pt x="264" y="157" on="0"/>
        <pt x="156" y="377" on="0"/>
        <pt x="156" y="516" on="1"/>
        <pt x="156" y="652" on="0"/>
        <pt x="268" y="870" on="0"/>
        <pt x="470" y="1010" on="0"/>
        <pt x="604" y="1028" on="1"/>
        <pt x="604" y="1237" on="1"/>
        <pt x="702" y="1237" on="1"/>
        <pt x="702" y="1036" on="1"/>
        <pt x="779" y="1036" on="0"/>
        <pt x="918" y="1011" on="0"/>
        <pt x="997" y="985" on="1"/>
        <pt x="997" y="684" on="1"/>
        <pt x="899" y="684" on="1"/>
        <pt x="885" y="775" on="0"/>
        <pt x="872" y="849" on="0"/>
        <pt x="868" y="864" on="0"/>
        <pt x="868" y="866" on="1"/>
        <pt x="865" y="877" on="0"/>
        <pt x="857" y="901" on="0"/>
        <pt x="846" y="905" on="1"/>
        <pt x="824" y="918" on="0"/>
        <pt x="765" y="935" on="0"/>
        <pt x="702" y="936" on="1"/>
        <pt x="702" y="98" on="1"/>
        <pt x="767" y="100" on="0"/>
        <pt x="846" y="127" on="0"/>
        <pt x="846" y="127" on="1"/>
        <pt x="855" y="132" on="0"/>
        <pt x="867" y="153" on="0"/>
        <pt x="870" y="160" on="1"/>
        <pt x="897" y="356" on="1"/>
        <pt x="997" y="356" on="1"/>
      </contour>
      <contour>
        <pt x="604" y="104" on="1"/>
        <pt x="604" y="930" on="1"/>
        <pt x="551" y="918" on="0"/>
        <pt x="434" y="823" on="0"/>
        <pt x="352" y="651" on="0"/>
        <pt x="352" y="522" on="1"/>
        <pt x="352" y="340" on="0"/>
        <pt x="501" y="129" on="0"/>
      </contour>
    </TTGlyph>
    <TTGlyph name="circumflex" xMin="0" yMin="1128" xMax="670" yMax="1475">
      <contour>
        <pt x="670" y="1128" on="1"/>
        <pt x="547" y="1128" on="1"/>
        <pt x="336" y="1331" on="1"/>
        <pt x="123" y="1128" on="1"/>
        <pt x="0" y="1128" on="1"/>
        <pt x="258" y="1475" on="1"/>
        <pt x="412" y="1475" on="1"/>
      </contour>
    </TTGlyph>
    <TTGlyph name="colon" xMin="125" yMin="-25" xMax="401" yMax="1012">
      <contour>
        <pt x="401" y="874" on="1"/>
        <pt x="401" y="818" on="0"/>
        <pt x="319" y="737" on="0"/>
        <pt x="262" y="737" on="1"/>
        <pt x="205" y="737" on="0"/>
        <pt x="125" y="818" on="0"/>
        <pt x="125" y="874" on="1"/>
        <pt x="125" y="931" on="0"/>
        <pt x="205" y="1012" on="0"/>
        <pt x="262" y="1012" on="1"/>
        <pt x="319" y="1012" on="0"/>
        <pt x="401" y="931" on="0"/>
      </contour>
      <contour>
        <pt x="401" y="113" on="1"/>
        <pt x="401" y="56" on="0"/>
        <pt x="319" y="-25" on="0"/>
        <pt x="262" y="-25" on="1"/>
        <pt x="205" y="-25" on="0"/>
        <pt x="125" y="56" on="0"/>
        <pt x="125" y="113" on="1"/>
        <pt x="125" y="169" on="0"/>
        <pt x="205" y="250" on="0"/>
        <pt x="262" y="250" on="1"/>
        <pt x="319" y="250" on="0"/>
        <pt x="401" y="169" on="0"/>
      </contour>
    </TTGlyph>
    <TTGlyph name="comma" xMin="150" yMin="-342" xMax="489" yMax="313">
      <contour>
        <pt x="489" y="90" on="1"/>
        <pt x="489" y="-7" on="0"/>
        <pt x="419" y="-166" on="0"/>
        <pt x="315" y="-281" on="0"/>
        <pt x="212" y="-342" on="0"/>
        <pt x="180" y="-342" on="1"/>
        <pt x="150" y="-342" on="0"/>
        <pt x="150" y="-317" on="1"/>
        <pt x="150" y="-309" on="0"/>
        <pt x="193" y="-266" on="1"/>
        <pt x="255" y="-206" on="0"/>
        <pt x="313" y="-83" on="0"/>
        <pt x="313" y="0" on="1"/>
        <pt x="250" y="0" on="0"/>
        <pt x="164" y="74" on="0"/>
        <pt x="164" y="147" on="1"/>
        <pt x="164" y="221" on="0"/>
        <pt x="247" y="313" on="0"/>
        <pt x="319" y="313" on="1"/>
        <pt x="392" y="313" on="0"/>
        <pt x="489" y="224" on="0"/>
      </contour>
    </TTGlyph>
    <TTGlyph name="copyright" xMin="123" yMin="-29" xMax="1655" yMax="1507">
      <contour>
        <pt x="1655" y="739" on="1"/>
        <pt x="1655" y="580" on="0"/>
        <pt x="1536" y="302" on="0"/>
        <pt x="1326" y="90" on="0"/>
        <pt x="1048" y="-29" on="0"/>
        <pt x="889" y="-29" on="1"/>
        <pt x="730" y="-29" on="0"/>
        <pt x="452" y="90" on="0"/>
        <pt x="242" y="302" on="0"/>
        <pt x="123" y="580" on="0"/>
        <pt x="123" y="739" on="1"/>
        <pt x="123" y="898" on="0"/>
        <pt x="242" y="1176" on="0"/>
        <pt x="452" y="1388" on="0"/>
        <pt x="730" y="1507" on="0"/>
        <pt x="889" y="1507" on="1"/>
        <pt x="1048" y="1507" on="0"/>
        <pt x="1326" y="1388" on="0"/>
        <pt x="1536" y="1176" on="0"/>
        <pt x="1655" y="898" on="0"/>
      </contour>
      <contour>
        <pt x="1552" y="739" on="1"/>
        <pt x="1552" y="877" on="0"/>
        <pt x="1449" y="1118" on="0"/>
        <pt x="1267" y="1301" on="0"/>
        <pt x="1026" y="1405" on="0"/>
        <pt x="889" y="1405" on="1"/>
        <pt x="751" y="1405" on="0"/>
        <pt x="511" y="1301" on="0"/>
        <pt x="328" y="1118" on="0"/>
        <pt x="225" y="877" on="0"/>
        <pt x="225" y="739" on="1"/>
        <pt x="225" y="601" on="0"/>
        <pt x="328" y="360" on="0"/>
        <pt x="511" y="177" on="0"/>
        <pt x="751" y="74" on="0"/>
        <pt x="889" y="74" on="1"/>
        <pt x="1026" y="74" on="0"/>
        <pt x="1267" y="177" on="0"/>
        <pt x="1449" y="360" on="0"/>
        <pt x="1552" y="601" on="0"/>
      </contour>
      <contour>
        <pt x="1288" y="592" on="1"/>
        <pt x="1280" y="500" on="0"/>
        <pt x="1196" y="347" on="0"/>
        <pt x="1028" y="256" on="0"/>
        <pt x="895" y="256" on="1"/>
        <pt x="814" y="256" on="0"/>
        <pt x="660" y="299" on="0"/>
        <pt x="535" y="405" on="0"/>
        <pt x="461" y="591" on="0"/>
        <pt x="461" y="735" on="1"/>
        <pt x="461" y="880" on="0"/>
        <pt x="543" y="1099" on="0"/>
        <pt x="727" y="1223" on="0"/>
        <pt x="879" y="1223" on="1"/>
        <pt x="1002" y="1223" on="0"/>
        <pt x="1159" y="1166" on="0"/>
        <pt x="1246" y="1074" on="0"/>
        <pt x="1280" y="964" on="0"/>
        <pt x="1280" y="911" on="1"/>
        <pt x="1116" y="911" on="1"/>
        <pt x="1116" y="1005" on="0"/>
        <pt x="997" y="1112" on="0"/>
        <pt x="866" y="1112" on="1"/>
        <pt x="806" y="1112" on="0"/>
        <pt x="697" y="1034" on="0"/>
        <pt x="629" y="867" on="0"/>
        <pt x="629" y="735" on="1"/>
        <pt x="629" y="537" on="0"/>
        <pt x="779" y="383" on="0"/>
        <pt x="897" y="383" on="1"/>
        <pt x="979" y="383" on="0"/>
        <pt x="1076" y="453" on="0"/>
        <pt x="1120" y="551" on="0"/>
        <pt x="1124" y="592" on="1"/>
      </contour>
    </TTGlyph>
    <TTGlyph name="copyright.punct" xMin="70" yMin="-74" xMax="1645" yMax="1509">
      <contour>
        <pt x="1645" y="719" on="1"/>
        <pt x="1645" y="556" on="0"/>
        <pt x="1522" y="268" on="0"/>
        <pt x="1306" y="50" on="0"/>
        <pt x="1020" y="-74" on="0"/>
        <pt x="856" y="-74" on="1"/>
        <pt x="694" y="-74" on="0"/>
        <pt x="409" y="50" on="0"/>
        <pt x="193" y="268" on="0"/>
        <pt x="70" y="554" on="0"/>
        <pt x="70" y="717" on="1"/>
        <pt x="70" y="881" on="0"/>
        <pt x="192" y="1167" on="0"/>
        <pt x="409" y="1386" on="0"/>
        <pt x="695" y="1509" on="0"/>
        <pt x="858" y="1509" on="1"/>
        <pt x="1023" y="1509" on="0"/>
        <pt x="1309" y="1384" on="0"/>
        <pt x="1524" y="1165" on="0"/>
        <pt x="1645" y="880" on="0"/>
      </contour>
      <contour>
        <pt x="1556" y="717" on="1"/>
        <pt x="1556" y="862" on="0"/>
        <pt x="1448" y="1118" on="0"/>
        <pt x="1256" y="1313" on="0"/>
        <pt x="1003" y="1423" on="0"/>
        <pt x="858" y="1423" on="1"/>
        <pt x="713" y="1423" on="0"/>
        <pt x="459" y="1313" on="0"/>
        <pt x="267" y="1119" on="0"/>
        <pt x="158" y="863" on="0"/>
        <pt x="158" y="717" on="1"/>
        <pt x="158" y="572" on="0"/>
        <pt x="267" y="317" on="0"/>
        <pt x="459" y="122" on="0"/>
        <pt x="712" y="12" on="0"/>
        <pt x="856" y="12" on="1"/>
        <pt x="1000" y="12" on="0"/>
        <pt x="1254" y="122" on="0"/>
        <pt x="1447" y="317" on="0"/>
        <pt x="1556" y="572" on="0"/>
      </contour>
      <contour>
        <pt x="1180" y="283" on="1"/>
        <pt x="1173" y="281" on="0"/>
        <pt x="1089" y="256" on="0"/>
        <pt x="962" y="233" on="0"/>
        <pt x="889" y="233" on="1"/>
        <pt x="728" y="233" on="0"/>
        <pt x="504" y="368" on="0"/>
        <pt x="387" y="588" on="0"/>
        <pt x="387" y="717" on="1"/>
        <pt x="387" y="858" on="0"/>
        <pt x="512" y="1075" on="0"/>
        <pt x="739" y="1198" on="0"/>
        <pt x="891" y="1198" on="1"/>
        <pt x="971" y="1198" on="0"/>
        <pt x="1113" y="1167" on="0"/>
        <pt x="1180" y="1147" on="1"/>
        <pt x="1180" y="903" on="1"/>
        <pt x="1087" y="903" on="1"/>
        <pt x="1057" y="1059" on="1"/>
        <pt x="1034" y="1074" on="0"/>
        <pt x="955" y="1102" on="0"/>
        <pt x="911" y="1102" on="1"/>
        <pt x="824" y="1102" on="0"/>
        <pt x="671" y="1012" on="0"/>
        <pt x="575" y="842" on="0"/>
        <pt x="575" y="721" on="1"/>
        <pt x="575" y="596" on="0"/>
        <pt x="666" y="420" on="0"/>
        <pt x="811" y="328" on="0"/>
        <pt x="891" y="328" on="1"/>
        <pt x="941" y="328" on="0"/>
        <pt x="1035" y="354" on="0"/>
        <pt x="1061" y="367" on="1"/>
        <pt x="1090" y="541" on="1"/>
        <pt x="1180" y="541" on="1"/>
      </contour>
    </TTGlyph>
    <TTGlyph name="currency" xMin="86" yMin="348" xMax="1155" yMax="1417">
      <contour>
        <pt x="1155" y="420" on="1"/>
        <pt x="1083" y="348" on="1"/>
        <pt x="877" y="555" on="1"/>
        <pt x="825" y="515" on="0"/>
        <pt x="695" y="469" on="0"/>
        <pt x="623" y="469" on="1"/>
        <pt x="475" y="469" on="0"/>
        <pt x="367" y="555" on="1"/>
        <pt x="160" y="348" on="1"/>
        <pt x="86" y="422" on="1"/>
        <pt x="295" y="629" on="1"/>
        <pt x="254" y="682" on="0"/>
        <pt x="205" y="815" on="0"/>
        <pt x="205" y="887" on="1"/>
        <pt x="205" y="959" on="0"/>
        <pt x="251" y="1089" on="0"/>
        <pt x="291" y="1141" on="1"/>
        <pt x="86" y="1346" on="1"/>
        <pt x="160" y="1417" on="1"/>
        <pt x="362" y="1212" on="1"/>
        <pt x="475" y="1303" on="0"/>
        <pt x="623" y="1303" on="1"/>
        <pt x="695" y="1303" on="0"/>
        <pt x="825" y="1256" on="0"/>
        <pt x="879" y="1214" on="1"/>
        <pt x="1083" y="1417" on="1"/>
        <pt x="1155" y="1346" on="1"/>
        <pt x="952" y="1141" on="1"/>
        <pt x="1038" y="1034" on="0"/>
        <pt x="1038" y="887" on="1"/>
        <pt x="1038" y="737" on="0"/>
        <pt x="948" y="627" on="1"/>
      </contour>
      <contour>
        <pt x="936" y="887" on="1"/>
        <pt x="936" y="974" on="0"/>
        <pt x="852" y="1116" on="0"/>
        <pt x="710" y="1200" on="0"/>
        <pt x="623" y="1200" on="1"/>
        <pt x="536" y="1200" on="0"/>
        <pt x="392" y="1116" on="0"/>
        <pt x="307" y="974" on="0"/>
        <pt x="307" y="887" on="1"/>
        <pt x="307" y="800" on="0"/>
        <pt x="392" y="657" on="0"/>
        <pt x="536" y="571" on="0"/>
        <pt x="623" y="571" on="1"/>
        <pt x="710" y="571" on="0"/>
        <pt x="852" y="657" on="0"/>
        <pt x="936" y="800" on="0"/>
      </contour>
    </TTGlyph>
    <TTGlyph name="d" xMin="70" yMin="-25" xMax="1102" yMax="1509">
      <contour>
        <pt x="1102" y="0" on="1"/>
        <pt x="780" y="0" on="1"/>
        <pt x="780" y="109" on="1"/>
        <pt x="710" y="55" on="0"/>
        <pt x="552" y="-25" on="0"/>
        <pt x="463" y="-25" on="1"/>
        <pt x="360" y="-25" on="0"/>
        <pt x="211" y="62" on="0"/>
        <pt x="116" y="206" on="0"/>
        <pt x="70" y="380" on="0"/>
        <pt x="70" y="467" on="1"/>
        <pt x="70" y="606" on="0"/>
        <pt x="184" y="855" on="0"/>
        <pt x="416" y="1012" on="0"/>
        <pt x="592" y="1012" on="1"/>
        <pt x="641" y="1012" on="0"/>
        <pt x="756" y="993" on="0"/>
        <pt x="780" y="987" on="1"/>
        <pt x="780" y="1362" on="1"/>
        <pt x="625" y="1362" on="1"/>
        <pt x="625" y="1430" on="1"/>
        <pt x="889" y="1509" on="1"/>
        <pt x="971" y="1509" on="1"/>
        <pt x="971" y="131" on="1"/>
        <pt x="971" y="89" on="0"/>
        <pt x="1014" y="86" on="1"/>
        <pt x="1102" y="80" on="1"/>
      </contour>
      <contour>
        <pt x="780" y="186" on="1"/>
        <pt x="780" y="883" on="1"/>
        <pt x="754" y="892" on="0"/>
        <pt x="651" y="913" on="0"/>
        <pt x="606" y="913" on="1"/>
        <pt x="454" y="913" on="0"/>
        <pt x="272" y="688" on="0"/>
        <pt x="272" y="502" on="1"/>
        <pt x="272" y="335" on="0"/>
        <pt x="428" y="115" on="0"/>
        <pt x="569" y="115" on="1"/>
        <pt x="631" y="115" on="0"/>
        <pt x="740" y="162" on="0"/>
      </contour>
    </TTGlyph>
    <TTGlyph name="dagger" xMin="54" yMin="-205" xMax="1014" yMax="1498">
      <contour>
        <pt x="944" y="897" on="1"/>
        <pt x="935" y="893" on="0"/>
        <pt x="921" y="893" on="1"/>
        <pt x="890" y="893" on="0"/>
        <pt x="804" y="927" on="0"/>
        <pt x="698" y="966" on="0"/>
        <pt x="637" y="971" on="1"/>
        <pt x="609" y="971" on="0"/>
        <pt x="577" y="952" on="0"/>
        <pt x="577" y="918" on="1"/>
        <pt x="577" y="907" on="1"/>
        <pt x="583" y="845" on="0"/>
        <pt x="619" y="736" on="0"/>
        <pt x="650" y="655" on="0"/>
        <pt x="650" y="635" on="1"/>
        <pt x="650" y="629" on="0"/>
        <pt x="649" y="627" on="1"/>
        <pt x="631" y="531" on="0"/>
        <pt x="604" y="298" on="0"/>
        <pt x="584" y="69" on="0"/>
        <pt x="571" y="-116" on="0"/>
        <pt x="569" y="-164" on="1"/>
        <pt x="568" y="-195" on="0"/>
        <pt x="554" y="-205" on="0"/>
        <pt x="532" y="-205" on="1"/>
        <pt x="511" y="-205" on="0"/>
        <pt x="498" y="-195" on="0"/>
        <pt x="496" y="-164" on="1"/>
        <pt x="493" y="-116" on="0"/>
        <pt x="481" y="69" on="0"/>
        <pt x="462" y="298" on="0"/>
        <pt x="434" y="531" on="0"/>
        <pt x="416" y="627" on="1"/>
        <pt x="415" y="629" on="0"/>
        <pt x="415" y="635" on="1"/>
        <pt x="415" y="655" on="0"/>
        <pt x="445" y="736" on="0"/>
        <pt x="480" y="845" on="0"/>
        <pt x="487" y="907" on="1"/>
        <pt x="488" y="913" on="0"/>
        <pt x="488" y="923" on="1"/>
        <pt x="488" y="971" on="0"/>
        <pt x="438" y="971" on="1"/>
        <pt x="428" y="971" on="1"/>
        <pt x="369" y="966" on="0"/>
        <pt x="264" y="926" on="0"/>
        <pt x="180" y="891" on="0"/>
        <pt x="150" y="891" on="1"/>
        <pt x="107" y="891" on="0"/>
        <pt x="54" y="980" on="0"/>
        <pt x="54" y="1017" on="1"/>
        <pt x="54" y="1053" on="0"/>
        <pt x="90" y="1117" on="0"/>
        <pt x="125" y="1133" on="1"/>
        <pt x="133" y="1135" on="0"/>
        <pt x="138" y="1135" on="1"/>
        <pt x="165" y="1135" on="0"/>
        <pt x="253" y="1102" on="0"/>
        <pt x="365" y="1065" on="0"/>
        <pt x="428" y="1059" on="1"/>
        <pt x="455" y="1059" on="0"/>
        <pt x="488" y="1074" on="0"/>
        <pt x="488" y="1108" on="1"/>
        <pt x="488" y="1118" on="1"/>
        <pt x="483" y="1178" on="0"/>
        <pt x="444" y="1283" on="0"/>
        <pt x="409" y="1369" on="0"/>
        <pt x="409" y="1399" on="1"/>
        <pt x="409" y="1443" on="0"/>
        <pt x="492" y="1498" on="0"/>
        <pt x="531" y="1498" on="1"/>
        <pt x="566" y="1498" on="0"/>
        <pt x="630" y="1462" on="0"/>
        <pt x="649" y="1425" on="1"/>
        <pt x="652" y="1418" on="0"/>
        <pt x="652" y="1408" on="1"/>
        <pt x="652" y="1381" on="0"/>
        <pt x="620" y="1291" on="0"/>
        <pt x="584" y="1179" on="0"/>
        <pt x="578" y="1118" on="1"/>
        <pt x="577" y="1114" on="0"/>
        <pt x="577" y="1106" on="1"/>
        <pt x="577" y="1075" on="0"/>
        <pt x="612" y="1059" on="0"/>
        <pt x="637" y="1059" on="1"/>
        <pt x="698" y="1065" on="0"/>
        <pt x="810" y="1102" on="0"/>
        <pt x="899" y="1136" on="0"/>
        <pt x="925" y="1136" on="1"/>
        <pt x="935" y="1136" on="0"/>
        <pt x="942" y="1133" on="1"/>
        <pt x="977" y="1116" on="0"/>
        <pt x="1014" y="1053" on="0"/>
        <pt x="1014" y="1018" on="1"/>
        <pt x="1014" y="984" on="0"/>
        <pt x="979" y="919" on="0"/>
      </contour>
    </TTGlyph>
    <TTGlyph name="daggerdbl" xMin="54" yMin="-236" xMax="1014" yMax="1498">
      <contour>
        <pt x="944" y="365" on="1"/>
        <pt x="979" y="343" on="0"/>
        <pt x="1014" y="277" on="0"/>
        <pt x="1014" y="243" on="1"/>
        <pt x="1014" y="209" on="0"/>
        <pt x="977" y="146" on="0"/>
        <pt x="942" y="129" on="1"/>
        <pt x="935" y="126" on="0"/>
        <pt x="925" y="126" on="1"/>
        <pt x="899" y="126" on="0"/>
        <pt x="810" y="159" on="0"/>
        <pt x="698" y="197" on="0"/>
        <pt x="637" y="203" on="1"/>
        <pt x="610" y="203" on="0"/>
        <pt x="577" y="186" on="0"/>
        <pt x="577" y="153" on="1"/>
        <pt x="577" y="143" on="1"/>
        <pt x="583" y="82" on="0"/>
        <pt x="619" y="-30" on="0"/>
        <pt x="652" y="-119" on="0"/>
        <pt x="652" y="-147" on="1"/>
        <pt x="652" y="-156" on="0"/>
        <pt x="649" y="-164" on="1"/>
        <pt x="630" y="-201" on="0"/>
        <pt x="566" y="-236" on="0"/>
        <pt x="531" y="-236" on="1"/>
        <pt x="493" y="-236" on="0"/>
        <pt x="409" y="-181" on="0"/>
        <pt x="409" y="-138" on="1"/>
        <pt x="409" y="-107" on="0"/>
        <pt x="444" y="-22" on="0"/>
        <pt x="482" y="83" on="0"/>
        <pt x="487" y="143" on="1"/>
        <pt x="488" y="147" on="0"/>
        <pt x="488" y="155" on="1"/>
        <pt x="488" y="203" on="0"/>
        <pt x="438" y="203" on="1"/>
        <pt x="428" y="203" on="1"/>
        <pt x="366" y="197" on="0"/>
        <pt x="253" y="160" on="0"/>
        <pt x="165" y="127" on="0"/>
        <pt x="138" y="127" on="1"/>
        <pt x="133" y="127" on="0"/>
        <pt x="125" y="129" on="1"/>
        <pt x="90" y="146" on="0"/>
        <pt x="54" y="209" on="0"/>
        <pt x="54" y="244" on="1"/>
        <pt x="54" y="282" on="0"/>
        <pt x="106" y="370" on="0"/>
        <pt x="149" y="370" on="1"/>
        <pt x="179" y="370" on="0"/>
        <pt x="264" y="335" on="0"/>
        <pt x="369" y="296" on="0"/>
        <pt x="428" y="291" on="1"/>
        <pt x="454" y="291" on="0"/>
        <pt x="489" y="306" on="0"/>
        <pt x="489" y="339" on="1"/>
        <pt x="489" y="349" on="0"/>
        <pt x="488" y="354" on="1"/>
        <pt x="475" y="454" on="0"/>
        <pt x="416" y="584" on="0"/>
        <pt x="416" y="635" on="1"/>
        <pt x="416" y="679" on="0"/>
        <pt x="475" y="807" on="0"/>
        <pt x="487" y="907" on="1"/>
        <pt x="488" y="913" on="0"/>
        <pt x="488" y="923" on="1"/>
        <pt x="488" y="971" on="0"/>
        <pt x="438" y="971" on="1"/>
        <pt x="428" y="971" on="1"/>
        <pt x="369" y="966" on="0"/>
        <pt x="264" y="926" on="0"/>
        <pt x="180" y="891" on="0"/>
        <pt x="150" y="891" on="1"/>
        <pt x="107" y="891" on="0"/>
        <pt x="54" y="980" on="0"/>
        <pt x="54" y="1017" on="1"/>
        <pt x="54" y="1053" on="0"/>
        <pt x="90" y="1117" on="0"/>
        <pt x="125" y="1133" on="1"/>
        <pt x="133" y="1135" on="0"/>
        <pt x="138" y="1135" on="1"/>
        <pt x="165" y="1135" on="0"/>
        <pt x="253" y="1102" on="0"/>
        <pt x="365" y="1065" on="0"/>
        <pt x="428" y="1059" on="1"/>
        <pt x="455" y="1059" on="0"/>
        <pt x="488" y="1074" on="0"/>
        <pt x="488" y="1108" on="1"/>
        <pt x="488" y="1118" on="1"/>
        <pt x="483" y="1178" on="0"/>
        <pt x="444" y="1283" on="0"/>
        <pt x="409" y="1369" on="0"/>
        <pt x="409" y="1399" on="1"/>
        <pt x="409" y="1443" on="0"/>
        <pt x="492" y="1498" on="0"/>
        <pt x="531" y="1498" on="1"/>
        <pt x="566" y="1498" on="0"/>
        <pt x="630" y="1462" on="0"/>
        <pt x="649" y="1425" on="1"/>
        <pt x="652" y="1418" on="0"/>
        <pt x="652" y="1408" on="1"/>
        <pt x="652" y="1381" on="0"/>
        <pt x="620" y="1291" on="0"/>
        <pt x="584" y="1179" on="0"/>
        <pt x="578" y="1118" on="1"/>
        <pt x="577" y="1114" on="0"/>
        <pt x="577" y="1106" on="1"/>
        <pt x="577" y="1075" on="0"/>
        <pt x="612" y="1059" on="0"/>
        <pt x="637" y="1059" on="1"/>
        <pt x="698" y="1065" on="0"/>
        <pt x="810" y="1102" on="0"/>
        <pt x="899" y="1136" on="0"/>
        <pt x="925" y="1136" on="1"/>
        <pt x="935" y="1136" on="0"/>
        <pt x="942" y="1133" on="1"/>
        <pt x="977" y="1116" on="0"/>
        <pt x="1014" y="1053" on="0"/>
        <pt x="1014" y="1018" on="1"/>
        <pt x="1014" y="984" on="0"/>
        <pt x="979" y="919" on="0"/>
        <pt x="944" y="897" on="1"/>
        <pt x="935" y="893" on="0"/>
        <pt x="921" y="893" on="1"/>
        <pt x="890" y="893" on="0"/>
        <pt x="804" y="927" on="0"/>
        <pt x="698" y="966" on="0"/>
        <pt x="637" y="971" on="1"/>
        <pt x="609" y="971" on="0"/>
        <pt x="577" y="952" on="0"/>
        <pt x="577" y="918" on="1"/>
        <pt x="577" y="907" on="1"/>
        <pt x="584" y="841" on="0"/>
        <pt x="618" y="740" on="0"/>
        <pt x="649" y="663" on="0"/>
        <pt x="649" y="631" on="1"/>
        <pt x="649" y="599" on="0"/>
        <pt x="619" y="521" on="0"/>
        <pt x="584" y="421" on="0"/>
        <pt x="578" y="354" on="1"/>
        <pt x="577" y="349" on="0"/>
        <pt x="577" y="341" on="1"/>
        <pt x="577" y="291" on="0"/>
        <pt x="627" y="291" on="1"/>
        <pt x="637" y="291" on="1"/>
        <pt x="698" y="297" on="0"/>
        <pt x="805" y="335" on="0"/>
        <pt x="892" y="369" on="0"/>
        <pt x="922" y="369" on="1"/>
        <pt x="935" y="369" on="0"/>
      </contour>
    </TTGlyph>
    <TTGlyph name="degree" xMin="80" yMin="1001" xMax="575" yMax="1497">
      <contour>
        <pt x="575" y="1249" on="1"/>
        <pt x="575" y="1181" on="0"/>
        <pt x="509" y="1068" on="0"/>
        <pt x="397" y="1001" on="0"/>
        <pt x="328" y="1001" on="1"/>
        <pt x="259" y="1001" on="0"/>
        <pt x="146" y="1068" on="0"/>
        <pt x="80" y="1181" on="0"/>
        <pt x="80" y="1249" on="1"/>
        <pt x="80" y="1318" on="0"/>
        <pt x="146" y="1430" on="0"/>
        <pt x="259" y="1497" on="0"/>
        <pt x="328" y="1497" on="1"/>
        <pt x="397" y="1497" on="0"/>
        <pt x="509" y="1430" on="0"/>
        <pt x="575" y="1318" on="0"/>
      </contour>
      <contour>
        <pt x="455" y="1249" on="1"/>
        <pt x="455" y="1302" on="0"/>
        <pt x="380" y="1376" on="0"/>
        <pt x="328" y="1376" on="1"/>
        <pt x="276" y="1376" on="0"/>
        <pt x="201" y="1302" on="0"/>
        <pt x="201" y="1249" on="1"/>
        <pt x="201" y="1197" on="0"/>
        <pt x="276" y="1122" on="0"/>
        <pt x="328" y="1122" on="1"/>
        <pt x="380" y="1122" on="0"/>
        <pt x="455" y="1197" on="0"/>
      </contour>
    </TTGlyph>
    <TTGlyph name="dieresis" xMin="0" yMin="1198" xMax="647" yMax="1425">
      <contour>
        <pt x="647" y="1313" on="1"/>
        <pt x="647" y="1267" on="0"/>
        <pt x="583" y="1198" on="0"/>
        <pt x="537" y="1198" on="1"/>
        <pt x="491" y="1198" on="0"/>
        <pt x="424" y="1267" on="0"/>
        <pt x="424" y="1313" on="1"/>
        <pt x="424" y="1356" on="0"/>
        <pt x="494" y="1425" on="0"/>
        <pt x="537" y="1425" on="1"/>
        <pt x="583" y="1425" on="0"/>
        <pt x="647" y="1359" on="0"/>
      </contour>
      <contour>
        <pt x="223" y="1313" on="1"/>
        <pt x="223" y="1267" on="0"/>
        <pt x="157" y="1198" on="0"/>
        <pt x="111" y="1198" on="1"/>
        <pt x="66" y="1198" on="0"/>
        <pt x="0" y="1266" on="0"/>
        <pt x="0" y="1311" on="1"/>
        <pt x="0" y="1355" on="0"/>
        <pt x="66" y="1425" on="0"/>
        <pt x="111" y="1425" on="1"/>
        <pt x="157" y="1425" on="0"/>
        <pt x="223" y="1359" on="0"/>
      </contour>
    </TTGlyph>
</ttFont>
